<?xml version="1.0" encoding="utf-8" standalone="no"?>
<!DOCTYPE svg PUBLIC "-//W3C//DTD SVG 1.1//EN"
  "http://www.w3.org/Graphics/SVG/1.1/DTD/svg11.dtd">
<!-- Created with matplotlib (https://matplotlib.org/) -->
<svg height="576pt" version="1.1" viewBox="0 0 864 576" width="864pt" xmlns="http://www.w3.org/2000/svg" xmlns:xlink="http://www.w3.org/1999/xlink">
 <metadata>
  <rdf:RDF xmlns:cc="http://creativecommons.org/ns#" xmlns:dc="http://purl.org/dc/elements/1.1/" xmlns:rdf="http://www.w3.org/1999/02/22-rdf-syntax-ns#">
   <cc:Work>
    <dc:type rdf:resource="http://purl.org/dc/dcmitype/StillImage"/>
    <dc:date>2022-01-27T15:12:53.617290</dc:date>
    <dc:format>image/svg+xml</dc:format>
    <dc:creator>
     <cc:Agent>
      <dc:title>Matplotlib v3.3.2, https://matplotlib.org/</dc:title>
     </cc:Agent>
    </dc:creator>
   </cc:Work>
  </rdf:RDF>
 </metadata>
 <defs>
  <style type="text/css">*{stroke-linecap:butt;stroke-linejoin:round;}</style>
 </defs>
 <g id="figure_1">
  <g id="patch_1">
   <path d="M 0 576 
L 864 576 
L 864 0 
L 0 0 
z
" style="fill:#ffffff;"/>
  </g>
  <g id="axes_1">
   <g id="patch_2">
    <path d="M 108 504 
L 777.6 504 
L 777.6 69.12 
L 108 69.12 
z
" style="fill:#eaeaf2;"/>
   </g>
   <g id="matplotlib.axis_1">
    <g id="xtick_1">
     <g id="line2d_1">
      <path clip-path="url(#pab5015c3e7)" d="M 138.436364 504 
L 138.436364 69.12 
" style="fill:none;stroke:#ffffff;stroke-linecap:round;stroke-width:2;"/>
     </g>
     <g id="text_1">
      <!-- 0 -->
      <g style="fill:#262626;" transform="translate(131.437614 536.216563)scale(0.22 -0.22)">
       <defs>
        <path d="M 31.78125 66.40625 
Q 24.171875 66.40625 20.328125 58.90625 
Q 16.5 51.421875 16.5 36.375 
Q 16.5 21.390625 20.328125 13.890625 
Q 24.171875 6.390625 31.78125 6.390625 
Q 39.453125 6.390625 43.28125 13.890625 
Q 47.125 21.390625 47.125 36.375 
Q 47.125 51.421875 43.28125 58.90625 
Q 39.453125 66.40625 31.78125 66.40625 
z
M 31.78125 74.21875 
Q 44.046875 74.21875 50.515625 64.515625 
Q 56.984375 54.828125 56.984375 36.375 
Q 56.984375 17.96875 50.515625 8.265625 
Q 44.046875 -1.421875 31.78125 -1.421875 
Q 19.53125 -1.421875 13.0625 8.265625 
Q 6.59375 17.96875 6.59375 36.375 
Q 6.59375 54.828125 13.0625 64.515625 
Q 19.53125 74.21875 31.78125 74.21875 
z
" id="DejaVuSans-48"/>
       </defs>
       <use xlink:href="#DejaVuSans-48"/>
      </g>
     </g>
    </g>
    <g id="xtick_2">
     <g id="line2d_2">
      <path clip-path="url(#pab5015c3e7)" d="M 260.181818 504 
L 260.181818 69.12 
" style="fill:none;stroke:#ffffff;stroke-linecap:round;stroke-width:2;"/>
     </g>
     <g id="text_2">
      <!-- 10 -->
      <g style="fill:#262626;" transform="translate(246.184318 536.216563)scale(0.22 -0.22)">
       <defs>
        <path d="M 12.40625 8.296875 
L 28.515625 8.296875 
L 28.515625 63.921875 
L 10.984375 60.40625 
L 10.984375 69.390625 
L 28.421875 72.90625 
L 38.28125 72.90625 
L 38.28125 8.296875 
L 54.390625 8.296875 
L 54.390625 0 
L 12.40625 0 
z
" id="DejaVuSans-49"/>
       </defs>
       <use xlink:href="#DejaVuSans-49"/>
       <use x="63.623047" xlink:href="#DejaVuSans-48"/>
      </g>
     </g>
    </g>
    <g id="xtick_3">
     <g id="line2d_3">
      <path clip-path="url(#pab5015c3e7)" d="M 381.927273 504 
L 381.927273 69.12 
" style="fill:none;stroke:#ffffff;stroke-linecap:round;stroke-width:2;"/>
     </g>
     <g id="text_3">
      <!-- 20 -->
      <g style="fill:#262626;" transform="translate(367.929773 536.216563)scale(0.22 -0.22)">
       <defs>
        <path d="M 19.1875 8.296875 
L 53.609375 8.296875 
L 53.609375 0 
L 7.328125 0 
L 7.328125 8.296875 
Q 12.9375 14.109375 22.625 23.890625 
Q 32.328125 33.6875 34.8125 36.53125 
Q 39.546875 41.84375 41.421875 45.53125 
Q 43.3125 49.21875 43.3125 52.78125 
Q 43.3125 58.59375 39.234375 62.25 
Q 35.15625 65.921875 28.609375 65.921875 
Q 23.96875 65.921875 18.8125 64.3125 
Q 13.671875 62.703125 7.8125 59.421875 
L 7.8125 69.390625 
Q 13.765625 71.78125 18.9375 73 
Q 24.125 74.21875 28.421875 74.21875 
Q 39.75 74.21875 46.484375 68.546875 
Q 53.21875 62.890625 53.21875 53.421875 
Q 53.21875 48.921875 51.53125 44.890625 
Q 49.859375 40.875 45.40625 35.40625 
Q 44.1875 33.984375 37.640625 27.21875 
Q 31.109375 20.453125 19.1875 8.296875 
z
" id="DejaVuSans-50"/>
       </defs>
       <use xlink:href="#DejaVuSans-50"/>
       <use x="63.623047" xlink:href="#DejaVuSans-48"/>
      </g>
     </g>
    </g>
    <g id="xtick_4">
     <g id="line2d_4">
      <path clip-path="url(#pab5015c3e7)" d="M 503.672727 504 
L 503.672727 69.12 
" style="fill:none;stroke:#ffffff;stroke-linecap:round;stroke-width:2;"/>
     </g>
     <g id="text_4">
      <!-- 30 -->
      <g style="fill:#262626;" transform="translate(489.675227 536.216563)scale(0.22 -0.22)">
       <defs>
        <path d="M 40.578125 39.3125 
Q 47.65625 37.796875 51.625 33 
Q 55.609375 28.21875 55.609375 21.1875 
Q 55.609375 10.40625 48.1875 4.484375 
Q 40.765625 -1.421875 27.09375 -1.421875 
Q 22.515625 -1.421875 17.65625 -0.515625 
Q 12.796875 0.390625 7.625 2.203125 
L 7.625 11.71875 
Q 11.71875 9.328125 16.59375 8.109375 
Q 21.484375 6.890625 26.8125 6.890625 
Q 36.078125 6.890625 40.9375 10.546875 
Q 45.796875 14.203125 45.796875 21.1875 
Q 45.796875 27.640625 41.28125 31.265625 
Q 36.765625 34.90625 28.71875 34.90625 
L 20.21875 34.90625 
L 20.21875 43.015625 
L 29.109375 43.015625 
Q 36.375 43.015625 40.234375 45.921875 
Q 44.09375 48.828125 44.09375 54.296875 
Q 44.09375 59.90625 40.109375 62.90625 
Q 36.140625 65.921875 28.71875 65.921875 
Q 24.65625 65.921875 20.015625 65.03125 
Q 15.375 64.15625 9.8125 62.3125 
L 9.8125 71.09375 
Q 15.4375 72.65625 20.34375 73.4375 
Q 25.25 74.21875 29.59375 74.21875 
Q 40.828125 74.21875 47.359375 69.109375 
Q 53.90625 64.015625 53.90625 55.328125 
Q 53.90625 49.265625 50.4375 45.09375 
Q 46.96875 40.921875 40.578125 39.3125 
z
" id="DejaVuSans-51"/>
       </defs>
       <use xlink:href="#DejaVuSans-51"/>
       <use x="63.623047" xlink:href="#DejaVuSans-48"/>
      </g>
     </g>
    </g>
    <g id="xtick_5">
     <g id="line2d_5">
      <path clip-path="url(#pab5015c3e7)" d="M 625.418182 504 
L 625.418182 69.12 
" style="fill:none;stroke:#ffffff;stroke-linecap:round;stroke-width:2;"/>
     </g>
     <g id="text_5">
      <!-- 40 -->
      <g style="fill:#262626;" transform="translate(611.420682 536.216563)scale(0.22 -0.22)">
       <defs>
        <path d="M 37.796875 64.3125 
L 12.890625 25.390625 
L 37.796875 25.390625 
z
M 35.203125 72.90625 
L 47.609375 72.90625 
L 47.609375 25.390625 
L 58.015625 25.390625 
L 58.015625 17.1875 
L 47.609375 17.1875 
L 47.609375 0 
L 37.796875 0 
L 37.796875 17.1875 
L 4.890625 17.1875 
L 4.890625 26.703125 
z
" id="DejaVuSans-52"/>
       </defs>
       <use xlink:href="#DejaVuSans-52"/>
       <use x="63.623047" xlink:href="#DejaVuSans-48"/>
      </g>
     </g>
    </g>
    <g id="xtick_6">
     <g id="line2d_6">
      <path clip-path="url(#pab5015c3e7)" d="M 747.163636 504 
L 747.163636 69.12 
" style="fill:none;stroke:#ffffff;stroke-linecap:round;stroke-width:2;"/>
     </g>
     <g id="text_6">
      <!-- 50 -->
      <g style="fill:#262626;" transform="translate(733.166136 536.216563)scale(0.22 -0.22)">
       <defs>
        <path d="M 10.796875 72.90625 
L 49.515625 72.90625 
L 49.515625 64.59375 
L 19.828125 64.59375 
L 19.828125 46.734375 
Q 21.96875 47.46875 24.109375 47.828125 
Q 26.265625 48.1875 28.421875 48.1875 
Q 40.625 48.1875 47.75 41.5 
Q 54.890625 34.8125 54.890625 23.390625 
Q 54.890625 11.625 47.5625 5.09375 
Q 40.234375 -1.421875 26.90625 -1.421875 
Q 22.3125 -1.421875 17.546875 -0.640625 
Q 12.796875 0.140625 7.71875 1.703125 
L 7.71875 11.625 
Q 12.109375 9.234375 16.796875 8.0625 
Q 21.484375 6.890625 26.703125 6.890625 
Q 35.15625 6.890625 40.078125 11.328125 
Q 45.015625 15.765625 45.015625 23.390625 
Q 45.015625 31 40.078125 35.4375 
Q 35.15625 39.890625 26.703125 39.890625 
Q 22.75 39.890625 18.8125 39.015625 
Q 14.890625 38.140625 10.796875 36.28125 
z
" id="DejaVuSans-53"/>
       </defs>
       <use xlink:href="#DejaVuSans-53"/>
       <use x="63.623047" xlink:href="#DejaVuSans-48"/>
      </g>
     </g>
    </g>
    <g id="text_7">
     <!-- steps -->
     <g style="fill:#262626;" transform="translate(410.59125 563.028125)scale(0.24 -0.24)">
      <defs>
       <path d="M 44.28125 53.078125 
L 44.28125 44.578125 
Q 40.484375 46.53125 36.375 47.5 
Q 32.28125 48.484375 27.875 48.484375 
Q 21.1875 48.484375 17.84375 46.4375 
Q 14.5 44.390625 14.5 40.28125 
Q 14.5 37.15625 16.890625 35.375 
Q 19.28125 33.59375 26.515625 31.984375 
L 29.59375 31.296875 
Q 39.15625 29.25 43.1875 25.515625 
Q 47.21875 21.78125 47.21875 15.09375 
Q 47.21875 7.46875 41.1875 3.015625 
Q 35.15625 -1.421875 24.609375 -1.421875 
Q 20.21875 -1.421875 15.453125 -0.5625 
Q 10.6875 0.296875 5.421875 2 
L 5.421875 11.28125 
Q 10.40625 8.6875 15.234375 7.390625 
Q 20.0625 6.109375 24.8125 6.109375 
Q 31.15625 6.109375 34.5625 8.28125 
Q 37.984375 10.453125 37.984375 14.40625 
Q 37.984375 18.0625 35.515625 20.015625 
Q 33.0625 21.96875 24.703125 23.78125 
L 21.578125 24.515625 
Q 13.234375 26.265625 9.515625 29.90625 
Q 5.8125 33.546875 5.8125 39.890625 
Q 5.8125 47.609375 11.28125 51.796875 
Q 16.75 56 26.8125 56 
Q 31.78125 56 36.171875 55.265625 
Q 40.578125 54.546875 44.28125 53.078125 
z
" id="DejaVuSans-115"/>
       <path d="M 18.3125 70.21875 
L 18.3125 54.6875 
L 36.8125 54.6875 
L 36.8125 47.703125 
L 18.3125 47.703125 
L 18.3125 18.015625 
Q 18.3125 11.328125 20.140625 9.421875 
Q 21.96875 7.515625 27.59375 7.515625 
L 36.8125 7.515625 
L 36.8125 0 
L 27.59375 0 
Q 17.1875 0 13.234375 3.875 
Q 9.28125 7.765625 9.28125 18.015625 
L 9.28125 47.703125 
L 2.6875 47.703125 
L 2.6875 54.6875 
L 9.28125 54.6875 
L 9.28125 70.21875 
z
" id="DejaVuSans-116"/>
       <path d="M 56.203125 29.59375 
L 56.203125 25.203125 
L 14.890625 25.203125 
Q 15.484375 15.921875 20.484375 11.0625 
Q 25.484375 6.203125 34.421875 6.203125 
Q 39.59375 6.203125 44.453125 7.46875 
Q 49.3125 8.734375 54.109375 11.28125 
L 54.109375 2.78125 
Q 49.265625 0.734375 44.1875 -0.34375 
Q 39.109375 -1.421875 33.890625 -1.421875 
Q 20.796875 -1.421875 13.15625 6.1875 
Q 5.515625 13.8125 5.515625 26.8125 
Q 5.515625 40.234375 12.765625 48.109375 
Q 20.015625 56 32.328125 56 
Q 43.359375 56 49.78125 48.890625 
Q 56.203125 41.796875 56.203125 29.59375 
z
M 47.21875 32.234375 
Q 47.125 39.59375 43.09375 43.984375 
Q 39.0625 48.390625 32.421875 48.390625 
Q 24.90625 48.390625 20.390625 44.140625 
Q 15.875 39.890625 15.1875 32.171875 
z
" id="DejaVuSans-101"/>
       <path d="M 18.109375 8.203125 
L 18.109375 -20.796875 
L 9.078125 -20.796875 
L 9.078125 54.6875 
L 18.109375 54.6875 
L 18.109375 46.390625 
Q 20.953125 51.265625 25.265625 53.625 
Q 29.59375 56 35.59375 56 
Q 45.5625 56 51.78125 48.09375 
Q 58.015625 40.1875 58.015625 27.296875 
Q 58.015625 14.40625 51.78125 6.484375 
Q 45.5625 -1.421875 35.59375 -1.421875 
Q 29.59375 -1.421875 25.265625 0.953125 
Q 20.953125 3.328125 18.109375 8.203125 
z
M 48.6875 27.296875 
Q 48.6875 37.203125 44.609375 42.84375 
Q 40.53125 48.484375 33.40625 48.484375 
Q 26.265625 48.484375 22.1875 42.84375 
Q 18.109375 37.203125 18.109375 27.296875 
Q 18.109375 17.390625 22.1875 11.75 
Q 26.265625 6.109375 33.40625 6.109375 
Q 40.53125 6.109375 44.609375 11.75 
Q 48.6875 17.390625 48.6875 27.296875 
z
" id="DejaVuSans-112"/>
      </defs>
      <use xlink:href="#DejaVuSans-115"/>
      <use x="52.099609" xlink:href="#DejaVuSans-116"/>
      <use x="91.308594" xlink:href="#DejaVuSans-101"/>
      <use x="152.832031" xlink:href="#DejaVuSans-112"/>
      <use x="216.308594" xlink:href="#DejaVuSans-115"/>
     </g>
    </g>
   </g>
   <g id="matplotlib.axis_2">
    <g id="ytick_1">
     <g id="line2d_7">
      <path clip-path="url(#pab5015c3e7)" d="M 108 484.232737 
L 777.6 484.232737 
" style="fill:none;stroke:#ffffff;stroke-linecap:round;stroke-width:2;"/>
     </g>
     <g id="text_8">
      <!-- 0.000 -->
      <g style="fill:#262626;" transform="translate(29.518125 492.591019)scale(0.22 -0.22)">
       <defs>
        <path d="M 10.6875 12.40625 
L 21 12.40625 
L 21 0 
L 10.6875 0 
z
" id="DejaVuSans-46"/>
       </defs>
       <use xlink:href="#DejaVuSans-48"/>
       <use x="63.623047" xlink:href="#DejaVuSans-46"/>
       <use x="95.410156" xlink:href="#DejaVuSans-48"/>
       <use x="159.033203" xlink:href="#DejaVuSans-48"/>
       <use x="222.65625" xlink:href="#DejaVuSans-48"/>
      </g>
     </g>
    </g>
    <g id="ytick_2">
     <g id="line2d_8">
      <path clip-path="url(#pab5015c3e7)" d="M 108 432.595779 
L 777.6 432.595779 
" style="fill:none;stroke:#ffffff;stroke-linecap:round;stroke-width:2;"/>
     </g>
     <g id="text_9">
      <!-- 0.025 -->
      <g style="fill:#262626;" transform="translate(29.518125 440.95406)scale(0.22 -0.22)">
       <use xlink:href="#DejaVuSans-48"/>
       <use x="63.623047" xlink:href="#DejaVuSans-46"/>
       <use x="95.410156" xlink:href="#DejaVuSans-48"/>
       <use x="159.033203" xlink:href="#DejaVuSans-50"/>
       <use x="222.65625" xlink:href="#DejaVuSans-53"/>
      </g>
     </g>
    </g>
    <g id="ytick_3">
     <g id="line2d_9">
      <path clip-path="url(#pab5015c3e7)" d="M 108 380.95882 
L 777.6 380.95882 
" style="fill:none;stroke:#ffffff;stroke-linecap:round;stroke-width:2;"/>
     </g>
     <g id="text_10">
      <!-- 0.050 -->
      <g style="fill:#262626;" transform="translate(29.518125 389.317101)scale(0.22 -0.22)">
       <use xlink:href="#DejaVuSans-48"/>
       <use x="63.623047" xlink:href="#DejaVuSans-46"/>
       <use x="95.410156" xlink:href="#DejaVuSans-48"/>
       <use x="159.033203" xlink:href="#DejaVuSans-53"/>
       <use x="222.65625" xlink:href="#DejaVuSans-48"/>
      </g>
     </g>
    </g>
    <g id="ytick_4">
     <g id="line2d_10">
      <path clip-path="url(#pab5015c3e7)" d="M 108 329.321861 
L 777.6 329.321861 
" style="fill:none;stroke:#ffffff;stroke-linecap:round;stroke-width:2;"/>
     </g>
     <g id="text_11">
      <!-- 0.075 -->
      <g style="fill:#262626;" transform="translate(29.518125 337.680143)scale(0.22 -0.22)">
       <defs>
        <path d="M 8.203125 72.90625 
L 55.078125 72.90625 
L 55.078125 68.703125 
L 28.609375 0 
L 18.3125 0 
L 43.21875 64.59375 
L 8.203125 64.59375 
z
" id="DejaVuSans-55"/>
       </defs>
       <use xlink:href="#DejaVuSans-48"/>
       <use x="63.623047" xlink:href="#DejaVuSans-46"/>
       <use x="95.410156" xlink:href="#DejaVuSans-48"/>
       <use x="159.033203" xlink:href="#DejaVuSans-55"/>
       <use x="222.65625" xlink:href="#DejaVuSans-53"/>
      </g>
     </g>
    </g>
    <g id="ytick_5">
     <g id="line2d_11">
      <path clip-path="url(#pab5015c3e7)" d="M 108 277.684903 
L 777.6 277.684903 
" style="fill:none;stroke:#ffffff;stroke-linecap:round;stroke-width:2;"/>
     </g>
     <g id="text_12">
      <!-- 0.100 -->
      <g style="fill:#262626;" transform="translate(29.518125 286.043184)scale(0.22 -0.22)">
       <use xlink:href="#DejaVuSans-48"/>
       <use x="63.623047" xlink:href="#DejaVuSans-46"/>
       <use x="95.410156" xlink:href="#DejaVuSans-49"/>
       <use x="159.033203" xlink:href="#DejaVuSans-48"/>
       <use x="222.65625" xlink:href="#DejaVuSans-48"/>
      </g>
     </g>
    </g>
    <g id="ytick_6">
     <g id="line2d_12">
      <path clip-path="url(#pab5015c3e7)" d="M 108 226.047944 
L 777.6 226.047944 
" style="fill:none;stroke:#ffffff;stroke-linecap:round;stroke-width:2;"/>
     </g>
     <g id="text_13">
      <!-- 0.125 -->
      <g style="fill:#262626;" transform="translate(29.518125 234.406225)scale(0.22 -0.22)">
       <use xlink:href="#DejaVuSans-48"/>
       <use x="63.623047" xlink:href="#DejaVuSans-46"/>
       <use x="95.410156" xlink:href="#DejaVuSans-49"/>
       <use x="159.033203" xlink:href="#DejaVuSans-50"/>
       <use x="222.65625" xlink:href="#DejaVuSans-53"/>
      </g>
     </g>
    </g>
    <g id="ytick_7">
     <g id="line2d_13">
      <path clip-path="url(#pab5015c3e7)" d="M 108 174.410985 
L 777.6 174.410985 
" style="fill:none;stroke:#ffffff;stroke-linecap:round;stroke-width:2;"/>
     </g>
     <g id="text_14">
      <!-- 0.150 -->
      <g style="fill:#262626;" transform="translate(29.518125 182.769267)scale(0.22 -0.22)">
       <use xlink:href="#DejaVuSans-48"/>
       <use x="63.623047" xlink:href="#DejaVuSans-46"/>
       <use x="95.410156" xlink:href="#DejaVuSans-49"/>
       <use x="159.033203" xlink:href="#DejaVuSans-53"/>
       <use x="222.65625" xlink:href="#DejaVuSans-48"/>
      </g>
     </g>
    </g>
    <g id="ytick_8">
     <g id="line2d_14">
      <path clip-path="url(#pab5015c3e7)" d="M 108 122.774027 
L 777.6 122.774027 
" style="fill:none;stroke:#ffffff;stroke-linecap:round;stroke-width:2;"/>
     </g>
     <g id="text_15">
      <!-- 0.175 -->
      <g style="fill:#262626;" transform="translate(29.518125 131.132308)scale(0.22 -0.22)">
       <use xlink:href="#DejaVuSans-48"/>
       <use x="63.623047" xlink:href="#DejaVuSans-46"/>
       <use x="95.410156" xlink:href="#DejaVuSans-49"/>
       <use x="159.033203" xlink:href="#DejaVuSans-55"/>
       <use x="222.65625" xlink:href="#DejaVuSans-53"/>
      </g>
     </g>
    </g>
    <g id="ytick_9">
     <g id="line2d_15">
      <path clip-path="url(#pab5015c3e7)" d="M 108 71.137068 
L 777.6 71.137068 
" style="fill:none;stroke:#ffffff;stroke-linecap:round;stroke-width:2;"/>
     </g>
     <g id="text_16">
      <!-- 0.200 -->
      <g style="fill:#262626;" transform="translate(29.518125 79.495349)scale(0.22 -0.22)">
       <use xlink:href="#DejaVuSans-48"/>
       <use x="63.623047" xlink:href="#DejaVuSans-46"/>
       <use x="95.410156" xlink:href="#DejaVuSans-50"/>
       <use x="159.033203" xlink:href="#DejaVuSans-48"/>
       <use x="222.65625" xlink:href="#DejaVuSans-48"/>
      </g>
     </g>
    </g>
    <g id="text_17">
     <!-- probability of success -->
     <g style="fill:#262626;" transform="translate(20.526875 416.715)rotate(-90)scale(0.24 -0.24)">
      <defs>
       <path d="M 41.109375 46.296875 
Q 39.59375 47.171875 37.8125 47.578125 
Q 36.03125 48 33.890625 48 
Q 26.265625 48 22.1875 43.046875 
Q 18.109375 38.09375 18.109375 28.8125 
L 18.109375 0 
L 9.078125 0 
L 9.078125 54.6875 
L 18.109375 54.6875 
L 18.109375 46.1875 
Q 20.953125 51.171875 25.484375 53.578125 
Q 30.03125 56 36.53125 56 
Q 37.453125 56 38.578125 55.875 
Q 39.703125 55.765625 41.0625 55.515625 
z
" id="DejaVuSans-114"/>
       <path d="M 30.609375 48.390625 
Q 23.390625 48.390625 19.1875 42.75 
Q 14.984375 37.109375 14.984375 27.296875 
Q 14.984375 17.484375 19.15625 11.84375 
Q 23.34375 6.203125 30.609375 6.203125 
Q 37.796875 6.203125 41.984375 11.859375 
Q 46.1875 17.53125 46.1875 27.296875 
Q 46.1875 37.015625 41.984375 42.703125 
Q 37.796875 48.390625 30.609375 48.390625 
z
M 30.609375 56 
Q 42.328125 56 49.015625 48.375 
Q 55.71875 40.765625 55.71875 27.296875 
Q 55.71875 13.875 49.015625 6.21875 
Q 42.328125 -1.421875 30.609375 -1.421875 
Q 18.84375 -1.421875 12.171875 6.21875 
Q 5.515625 13.875 5.515625 27.296875 
Q 5.515625 40.765625 12.171875 48.375 
Q 18.84375 56 30.609375 56 
z
" id="DejaVuSans-111"/>
       <path d="M 48.6875 27.296875 
Q 48.6875 37.203125 44.609375 42.84375 
Q 40.53125 48.484375 33.40625 48.484375 
Q 26.265625 48.484375 22.1875 42.84375 
Q 18.109375 37.203125 18.109375 27.296875 
Q 18.109375 17.390625 22.1875 11.75 
Q 26.265625 6.109375 33.40625 6.109375 
Q 40.53125 6.109375 44.609375 11.75 
Q 48.6875 17.390625 48.6875 27.296875 
z
M 18.109375 46.390625 
Q 20.953125 51.265625 25.265625 53.625 
Q 29.59375 56 35.59375 56 
Q 45.5625 56 51.78125 48.09375 
Q 58.015625 40.1875 58.015625 27.296875 
Q 58.015625 14.40625 51.78125 6.484375 
Q 45.5625 -1.421875 35.59375 -1.421875 
Q 29.59375 -1.421875 25.265625 0.953125 
Q 20.953125 3.328125 18.109375 8.203125 
L 18.109375 0 
L 9.078125 0 
L 9.078125 75.984375 
L 18.109375 75.984375 
z
" id="DejaVuSans-98"/>
       <path d="M 34.28125 27.484375 
Q 23.390625 27.484375 19.1875 25 
Q 14.984375 22.515625 14.984375 16.5 
Q 14.984375 11.71875 18.140625 8.90625 
Q 21.296875 6.109375 26.703125 6.109375 
Q 34.1875 6.109375 38.703125 11.40625 
Q 43.21875 16.703125 43.21875 25.484375 
L 43.21875 27.484375 
z
M 52.203125 31.203125 
L 52.203125 0 
L 43.21875 0 
L 43.21875 8.296875 
Q 40.140625 3.328125 35.546875 0.953125 
Q 30.953125 -1.421875 24.3125 -1.421875 
Q 15.921875 -1.421875 10.953125 3.296875 
Q 6 8.015625 6 15.921875 
Q 6 25.140625 12.171875 29.828125 
Q 18.359375 34.515625 30.609375 34.515625 
L 43.21875 34.515625 
L 43.21875 35.40625 
Q 43.21875 41.609375 39.140625 45 
Q 35.0625 48.390625 27.6875 48.390625 
Q 23 48.390625 18.546875 47.265625 
Q 14.109375 46.140625 10.015625 43.890625 
L 10.015625 52.203125 
Q 14.9375 54.109375 19.578125 55.046875 
Q 24.21875 56 28.609375 56 
Q 40.484375 56 46.34375 49.84375 
Q 52.203125 43.703125 52.203125 31.203125 
z
" id="DejaVuSans-97"/>
       <path d="M 9.421875 54.6875 
L 18.40625 54.6875 
L 18.40625 0 
L 9.421875 0 
z
M 9.421875 75.984375 
L 18.40625 75.984375 
L 18.40625 64.59375 
L 9.421875 64.59375 
z
" id="DejaVuSans-105"/>
       <path d="M 9.421875 75.984375 
L 18.40625 75.984375 
L 18.40625 0 
L 9.421875 0 
z
" id="DejaVuSans-108"/>
       <path d="M 32.171875 -5.078125 
Q 28.375 -14.84375 24.75 -17.8125 
Q 21.140625 -20.796875 15.09375 -20.796875 
L 7.90625 -20.796875 
L 7.90625 -13.28125 
L 13.1875 -13.28125 
Q 16.890625 -13.28125 18.9375 -11.515625 
Q 21 -9.765625 23.484375 -3.21875 
L 25.09375 0.875 
L 2.984375 54.6875 
L 12.5 54.6875 
L 29.59375 11.921875 
L 46.6875 54.6875 
L 56.203125 54.6875 
z
" id="DejaVuSans-121"/>
       <path id="DejaVuSans-32"/>
       <path d="M 37.109375 75.984375 
L 37.109375 68.5 
L 28.515625 68.5 
Q 23.6875 68.5 21.796875 66.546875 
Q 19.921875 64.59375 19.921875 59.515625 
L 19.921875 54.6875 
L 34.71875 54.6875 
L 34.71875 47.703125 
L 19.921875 47.703125 
L 19.921875 0 
L 10.890625 0 
L 10.890625 47.703125 
L 2.296875 47.703125 
L 2.296875 54.6875 
L 10.890625 54.6875 
L 10.890625 58.5 
Q 10.890625 67.625 15.140625 71.796875 
Q 19.390625 75.984375 28.609375 75.984375 
z
" id="DejaVuSans-102"/>
       <path d="M 8.5 21.578125 
L 8.5 54.6875 
L 17.484375 54.6875 
L 17.484375 21.921875 
Q 17.484375 14.15625 20.5 10.265625 
Q 23.53125 6.390625 29.59375 6.390625 
Q 36.859375 6.390625 41.078125 11.03125 
Q 45.3125 15.671875 45.3125 23.6875 
L 45.3125 54.6875 
L 54.296875 54.6875 
L 54.296875 0 
L 45.3125 0 
L 45.3125 8.40625 
Q 42.046875 3.421875 37.71875 1 
Q 33.40625 -1.421875 27.6875 -1.421875 
Q 18.265625 -1.421875 13.375 4.4375 
Q 8.5 10.296875 8.5 21.578125 
z
M 31.109375 56 
z
" id="DejaVuSans-117"/>
       <path d="M 48.78125 52.59375 
L 48.78125 44.1875 
Q 44.96875 46.296875 41.140625 47.34375 
Q 37.3125 48.390625 33.40625 48.390625 
Q 24.65625 48.390625 19.8125 42.84375 
Q 14.984375 37.3125 14.984375 27.296875 
Q 14.984375 17.28125 19.8125 11.734375 
Q 24.65625 6.203125 33.40625 6.203125 
Q 37.3125 6.203125 41.140625 7.25 
Q 44.96875 8.296875 48.78125 10.40625 
L 48.78125 2.09375 
Q 45.015625 0.34375 40.984375 -0.53125 
Q 36.96875 -1.421875 32.421875 -1.421875 
Q 20.0625 -1.421875 12.78125 6.34375 
Q 5.515625 14.109375 5.515625 27.296875 
Q 5.515625 40.671875 12.859375 48.328125 
Q 20.21875 56 33.015625 56 
Q 37.15625 56 41.109375 55.140625 
Q 45.0625 54.296875 48.78125 52.59375 
z
" id="DejaVuSans-99"/>
      </defs>
      <use xlink:href="#DejaVuSans-112"/>
      <use x="63.476562" xlink:href="#DejaVuSans-114"/>
      <use x="102.339844" xlink:href="#DejaVuSans-111"/>
      <use x="163.521484" xlink:href="#DejaVuSans-98"/>
      <use x="226.998047" xlink:href="#DejaVuSans-97"/>
      <use x="288.277344" xlink:href="#DejaVuSans-98"/>
      <use x="351.753906" xlink:href="#DejaVuSans-105"/>
      <use x="379.537109" xlink:href="#DejaVuSans-108"/>
      <use x="407.320312" xlink:href="#DejaVuSans-105"/>
      <use x="435.103516" xlink:href="#DejaVuSans-116"/>
      <use x="474.3125" xlink:href="#DejaVuSans-121"/>
      <use x="533.492188" xlink:href="#DejaVuSans-32"/>
      <use x="565.279297" xlink:href="#DejaVuSans-111"/>
      <use x="626.460938" xlink:href="#DejaVuSans-102"/>
      <use x="661.666016" xlink:href="#DejaVuSans-32"/>
      <use x="693.453125" xlink:href="#DejaVuSans-115"/>
      <use x="745.552734" xlink:href="#DejaVuSans-117"/>
      <use x="808.931641" xlink:href="#DejaVuSans-99"/>
      <use x="863.912109" xlink:href="#DejaVuSans-99"/>
      <use x="918.892578" xlink:href="#DejaVuSans-101"/>
      <use x="980.416016" xlink:href="#DejaVuSans-115"/>
      <use x="1032.515625" xlink:href="#DejaVuSans-115"/>
     </g>
    </g>
   </g>
   <g id="line2d_16">
    <path clip-path="url(#pab5015c3e7)" d="M 138.436364 451.959638 
L 150.610909 451.959638 
L 162.785455 355.140341 
L 174.96 355.140341 
L 187.134545 240.167425 
L 199.309091 240.167425 
L 211.483636 88.887273 
L 223.658182 88.887273 
L 235.832727 181.546366 
L 248.007273 181.546366 
L 260.181818 302.192287 
L 272.356364 302.192287 
L 284.530909 448.863123 
L 296.705455 448.863123 
L 308.88 478.906415 
L 321.054545 478.906415 
L 333.229091 420.765494 
L 345.403636 420.765494 
L 357.578182 204.267936 
L 369.752727 204.267936 
L 381.927273 115.557509 
L 394.101818 115.557509 
L 406.276364 205.380746 
L 418.450909 205.380746 
L 430.625455 231.820176 
L 442.8 231.820176 
L 454.974545 411.381697 
L 467.149091 411.381697 
L 479.323636 484.231147 
L 491.498182 484.231147 
L 503.672727 433.064642 
L 515.847273 433.064642 
L 528.021818 270.267787 
L 540.196364 270.267787 
L 552.370909 192.360786 
L 564.545455 192.360786 
L 576.72 108.887415 
L 588.894545 108.887415 
L 601.069091 191.704362 
L 613.243636 191.704362 
L 625.418182 411.232073 
L 637.592727 411.232073 
L 649.767273 470.736572 
L 661.941818 470.736572 
L 674.116364 463.95079 
L 686.290909 463.95079 
L 698.465455 295.595942 
L 710.64 295.595942 
L 722.814545 205.000561 
L 734.989091 205.000561 
L 747.163636 119.735543 
" style="fill:none;stroke:#4c72b0;stroke-dasharray:11.1,4.8;stroke-dashoffset:0;stroke-width:3;"/>
    <defs>
     <path d="M 0 6 
C 1.591219 6 3.117479 5.367802 4.242641 4.242641 
C 5.367802 3.117479 6 1.591219 6 0 
C 6 -1.591219 5.367802 -3.117479 4.242641 -4.242641 
C 3.117479 -5.367802 1.591219 -6 0 -6 
C -1.591219 -6 -3.117479 -5.367802 -4.242641 -4.242641 
C -5.367802 -3.117479 -6 -1.591219 -6 0 
C -6 1.591219 -5.367802 3.117479 -4.242641 4.242641 
C -3.117479 5.367802 -1.591219 6 0 6 
z
" id="m75ac95d531" style="stroke:#4c72b0;"/>
    </defs>
    <g clip-path="url(#pab5015c3e7)">
     <use style="fill:#4c72b0;stroke:#4c72b0;" x="138.436364" xlink:href="#m75ac95d531" y="451.959638"/>
     <use style="fill:#4c72b0;stroke:#4c72b0;" x="150.610909" xlink:href="#m75ac95d531" y="451.959638"/>
     <use style="fill:#4c72b0;stroke:#4c72b0;" x="162.785455" xlink:href="#m75ac95d531" y="355.140341"/>
     <use style="fill:#4c72b0;stroke:#4c72b0;" x="174.96" xlink:href="#m75ac95d531" y="355.140341"/>
     <use style="fill:#4c72b0;stroke:#4c72b0;" x="187.134545" xlink:href="#m75ac95d531" y="240.167425"/>
     <use style="fill:#4c72b0;stroke:#4c72b0;" x="199.309091" xlink:href="#m75ac95d531" y="240.167425"/>
     <use style="fill:#4c72b0;stroke:#4c72b0;" x="211.483636" xlink:href="#m75ac95d531" y="88.887273"/>
     <use style="fill:#4c72b0;stroke:#4c72b0;" x="223.658182" xlink:href="#m75ac95d531" y="88.887273"/>
     <use style="fill:#4c72b0;stroke:#4c72b0;" x="235.832727" xlink:href="#m75ac95d531" y="181.546366"/>
     <use style="fill:#4c72b0;stroke:#4c72b0;" x="248.007273" xlink:href="#m75ac95d531" y="181.546366"/>
     <use style="fill:#4c72b0;stroke:#4c72b0;" x="260.181818" xlink:href="#m75ac95d531" y="302.192287"/>
     <use style="fill:#4c72b0;stroke:#4c72b0;" x="272.356364" xlink:href="#m75ac95d531" y="302.192287"/>
     <use style="fill:#4c72b0;stroke:#4c72b0;" x="284.530909" xlink:href="#m75ac95d531" y="448.863123"/>
     <use style="fill:#4c72b0;stroke:#4c72b0;" x="296.705455" xlink:href="#m75ac95d531" y="448.863123"/>
     <use style="fill:#4c72b0;stroke:#4c72b0;" x="308.88" xlink:href="#m75ac95d531" y="478.906415"/>
     <use style="fill:#4c72b0;stroke:#4c72b0;" x="321.054545" xlink:href="#m75ac95d531" y="478.906415"/>
     <use style="fill:#4c72b0;stroke:#4c72b0;" x="333.229091" xlink:href="#m75ac95d531" y="420.765494"/>
     <use style="fill:#4c72b0;stroke:#4c72b0;" x="345.403636" xlink:href="#m75ac95d531" y="420.765494"/>
     <use style="fill:#4c72b0;stroke:#4c72b0;" x="357.578182" xlink:href="#m75ac95d531" y="204.267936"/>
     <use style="fill:#4c72b0;stroke:#4c72b0;" x="369.752727" xlink:href="#m75ac95d531" y="204.267936"/>
     <use style="fill:#4c72b0;stroke:#4c72b0;" x="381.927273" xlink:href="#m75ac95d531" y="115.557509"/>
     <use style="fill:#4c72b0;stroke:#4c72b0;" x="394.101818" xlink:href="#m75ac95d531" y="115.557509"/>
     <use style="fill:#4c72b0;stroke:#4c72b0;" x="406.276364" xlink:href="#m75ac95d531" y="205.380746"/>
     <use style="fill:#4c72b0;stroke:#4c72b0;" x="418.450909" xlink:href="#m75ac95d531" y="205.380746"/>
     <use style="fill:#4c72b0;stroke:#4c72b0;" x="430.625455" xlink:href="#m75ac95d531" y="231.820176"/>
     <use style="fill:#4c72b0;stroke:#4c72b0;" x="442.8" xlink:href="#m75ac95d531" y="231.820176"/>
     <use style="fill:#4c72b0;stroke:#4c72b0;" x="454.974545" xlink:href="#m75ac95d531" y="411.381697"/>
     <use style="fill:#4c72b0;stroke:#4c72b0;" x="467.149091" xlink:href="#m75ac95d531" y="411.381697"/>
     <use style="fill:#4c72b0;stroke:#4c72b0;" x="479.323636" xlink:href="#m75ac95d531" y="484.231147"/>
     <use style="fill:#4c72b0;stroke:#4c72b0;" x="491.498182" xlink:href="#m75ac95d531" y="484.231147"/>
     <use style="fill:#4c72b0;stroke:#4c72b0;" x="503.672727" xlink:href="#m75ac95d531" y="433.064642"/>
     <use style="fill:#4c72b0;stroke:#4c72b0;" x="515.847273" xlink:href="#m75ac95d531" y="433.064642"/>
     <use style="fill:#4c72b0;stroke:#4c72b0;" x="528.021818" xlink:href="#m75ac95d531" y="270.267787"/>
     <use style="fill:#4c72b0;stroke:#4c72b0;" x="540.196364" xlink:href="#m75ac95d531" y="270.267787"/>
     <use style="fill:#4c72b0;stroke:#4c72b0;" x="552.370909" xlink:href="#m75ac95d531" y="192.360786"/>
     <use style="fill:#4c72b0;stroke:#4c72b0;" x="564.545455" xlink:href="#m75ac95d531" y="192.360786"/>
     <use style="fill:#4c72b0;stroke:#4c72b0;" x="576.72" xlink:href="#m75ac95d531" y="108.887415"/>
     <use style="fill:#4c72b0;stroke:#4c72b0;" x="588.894545" xlink:href="#m75ac95d531" y="108.887415"/>
     <use style="fill:#4c72b0;stroke:#4c72b0;" x="601.069091" xlink:href="#m75ac95d531" y="191.704362"/>
     <use style="fill:#4c72b0;stroke:#4c72b0;" x="613.243636" xlink:href="#m75ac95d531" y="191.704362"/>
     <use style="fill:#4c72b0;stroke:#4c72b0;" x="625.418182" xlink:href="#m75ac95d531" y="411.232073"/>
     <use style="fill:#4c72b0;stroke:#4c72b0;" x="637.592727" xlink:href="#m75ac95d531" y="411.232073"/>
     <use style="fill:#4c72b0;stroke:#4c72b0;" x="649.767273" xlink:href="#m75ac95d531" y="470.736572"/>
     <use style="fill:#4c72b0;stroke:#4c72b0;" x="661.941818" xlink:href="#m75ac95d531" y="470.736572"/>
     <use style="fill:#4c72b0;stroke:#4c72b0;" x="674.116364" xlink:href="#m75ac95d531" y="463.95079"/>
     <use style="fill:#4c72b0;stroke:#4c72b0;" x="686.290909" xlink:href="#m75ac95d531" y="463.95079"/>
     <use style="fill:#4c72b0;stroke:#4c72b0;" x="698.465455" xlink:href="#m75ac95d531" y="295.595942"/>
     <use style="fill:#4c72b0;stroke:#4c72b0;" x="710.64" xlink:href="#m75ac95d531" y="295.595942"/>
     <use style="fill:#4c72b0;stroke:#4c72b0;" x="722.814545" xlink:href="#m75ac95d531" y="205.000561"/>
     <use style="fill:#4c72b0;stroke:#4c72b0;" x="734.989091" xlink:href="#m75ac95d531" y="205.000561"/>
     <use style="fill:#4c72b0;stroke:#4c72b0;" x="747.163636" xlink:href="#m75ac95d531" y="119.735543"/>
    </g>
   </g>
   <g id="line2d_17">
    <path clip-path="url(#pab5015c3e7)" d="M 138.436364 480.138041 
L 139.655037 478.32794 
L 140.87371 476.193875 
L 142.70172 472.394212 
L 144.52973 467.890663 
L 146.35774 462.702123 
L 148.185749 456.850361 
L 150.013759 450.359926 
L 152.451106 440.759961 
L 154.888452 430.144868 
L 157.325799 418.593798 
L 160.372482 402.970573 
L 163.419165 386.201891 
L 167.075184 364.843259 
L 171.949877 334.859074 
L 187.792629 235.952765 
L 191.448649 215.084587 
L 194.495332 198.826917 
L 197.542015 183.801415 
L 199.979361 172.786308 
L 202.416708 162.754237 
L 204.854054 153.780008 
L 206.682064 147.784111 
L 208.510074 142.446217 
L 210.338084 137.788723 
L 212.166093 133.831168 
L 213.384767 131.589977 
L 214.60344 129.67149 
L 215.822113 128.079287 
L 217.040786 126.816337 
L 218.259459 125.884995 
L 219.478133 125.286998 
L 220.696806 125.023462 
L 221.915479 125.094879 
L 223.134152 125.501114 
L 224.352826 126.24141 
L 225.571499 127.314387 
L 226.790172 128.718043 
L 228.008845 130.449761 
L 229.227518 132.506311 
L 230.446192 134.883858 
L 232.274201 139.042184 
L 234.102211 143.895192 
L 235.930221 149.422519 
L 237.758231 155.600977 
L 240.195577 164.806608 
L 242.632924 175.054776 
L 245.07027 186.269066 
L 248.116953 201.517511 
L 251.163636 217.966786 
L 254.819656 239.020411 
L 259.085012 264.947068 
L 265.787715 307.282026 
L 273.099754 353.212589 
L 277.365111 378.69706 
L 281.02113 399.217324 
L 284.067813 415.119982 
L 287.114496 429.735682 
L 289.551843 440.386683 
L 291.989189 450.025339 
L 294.426536 458.579779 
L 296.254545 464.245402 
L 298.082555 469.241328 
L 299.910565 473.546596 
L 301.738575 477.143144 
L 302.957248 479.139534 
L 304.175921 480.810444 
L 305.394595 482.152759 
L 306.613268 483.163976 
L 307.831941 483.842208 
L 309.050614 484.186191 
L 310.269287 484.195283 
L 311.487961 483.869467 
L 312.706634 483.20935 
L 313.925307 482.216165 
L 315.14398 480.891762 
L 316.362654 479.238613 
L 317.581327 477.2598 
L 318.8 474.959014 
L 320.62801 470.913684 
L 322.45602 466.17068 
L 324.284029 460.749901 
L 326.112039 454.67409 
L 328.549386 445.598511 
L 330.986732 435.471724 
L 333.424079 424.369241 
L 336.470762 409.245827 
L 339.517445 392.903869 
L 343.173464 371.953898 
L 347.438821 346.11138 
L 354.141523 303.824546 
L 362.062899 254.093656 
L 366.328256 228.714964 
L 369.984275 208.318711 
L 373.030958 192.54135 
L 376.077641 178.069363 
L 378.514988 167.545471 
L 380.952334 158.043695 
L 382.780344 151.631049 
L 384.608354 145.860268 
L 386.436364 140.755562 
L 388.264373 136.338349 
L 390.092383 132.62716 
L 391.311057 130.553083 
L 392.52973 128.803645 
L 393.748403 127.382109 
L 394.967076 126.291126 
L 396.185749 125.532732 
L 397.404423 125.108339 
L 398.623096 125.01874 
L 399.841769 125.264102 
L 401.060442 125.843968 
L 402.279115 126.757255 
L 403.497789 128.002261 
L 404.716462 129.576663 
L 405.935135 131.477526 
L 407.153808 133.701304 
L 408.981818 137.633201 
L 410.809828 142.265691 
L 412.637838 147.579337 
L 414.465848 153.551847 
L 416.293857 160.158162 
L 418.731204 169.904229 
L 421.16855 180.654824 
L 423.605897 192.329782 
L 426.65258 208.090141 
L 429.699263 224.974779 
L 433.355283 246.44272 
L 438.229975 276.519126 
L 452.854054 368.089337 
L 456.510074 389.266931 
L 459.556757 405.845343 
L 462.60344 421.244815 
L 465.040786 432.594515 
L 467.478133 442.989972 
L 469.915479 452.353673 
L 471.743489 458.657052 
L 473.571499 464.314179 
L 475.399509 469.301321 
L 477.227518 473.597553 
L 479.055528 477.184851 
L 480.274201 479.174974 
L 481.492875 480.839552 
L 482.711548 482.175481 
L 483.930221 483.180268 
L 485.148894 483.852041 
L 486.367568 484.189546 
L 487.586241 484.192154 
L 488.804914 483.85986 
L 490.023587 483.193283 
L 491.24226 482.193667 
L 492.460934 480.862877 
L 493.679607 479.203393 
L 494.89828 477.218311 
L 496.116953 474.911334 
L 497.944963 470.856887 
L 499.772973 466.105005 
L 501.600983 460.675623 
L 503.428993 454.591521 
L 505.866339 445.505431 
L 508.303686 435.368828 
L 510.741032 424.257295 
L 513.787715 409.123751 
L 516.834398 392.773085 
L 520.490418 371.814682 
L 524.755774 345.965284 
L 531.458477 303.674406 
L 539.379853 253.949595 
L 543.645209 228.578916 
L 547.301229 208.192009 
L 550.347912 192.424066 
L 553.394595 177.962864 
L 555.831941 167.4485 
L 558.269287 157.956974 
L 560.097297 151.552445 
L 561.925307 145.790109 
L 563.753317 140.694144 
L 565.581327 136.285929 
L 567.409337 132.583959 
L 568.62801 130.51613 
L 569.846683 128.77301 
L 571.065356 127.357849 
L 572.284029 126.273286 
L 573.502703 125.521344 
L 574.721376 125.103426 
L 575.940049 125.020311 
L 577.158722 125.272154 
L 578.377396 125.858485 
L 579.596069 126.778211 
L 580.814742 128.029616 
L 582.033415 129.610367 
L 583.252088 131.517515 
L 584.470762 133.747504 
L 586.298771 137.688553 
L 588.126781 142.329962 
L 589.954791 147.652257 
L 591.782801 153.63311 
L 593.610811 160.247429 
L 596.048157 170.003578 
L 598.485504 180.763514 
L 600.92285 192.447003 
L 603.969533 208.216789 
L 607.016216 225.109379 
L 610.672236 246.584788 
L 615.546929 276.667428 
L 630.171007 368.22977 
L 633.827027 389.399325 
L 636.87371 405.969334 
L 639.920393 421.358961 
L 642.35774 432.69982 
L 644.795086 443.085652 
L 647.232432 452.439014 
L 649.060442 458.734217 
L 650.888452 464.382845 
L 652.716462 469.361198 
L 654.544472 473.648391 
L 656.372482 477.226437 
L 657.591155 479.210292 
L 658.809828 480.868537 
L 660.028501 482.198078 
L 661.247174 483.196436 
L 662.465848 483.861749 
L 663.684521 484.192776 
L 664.903194 484.1889 
L 666.121867 483.850128 
L 667.340541 483.177091 
L 668.559214 482.171046 
L 669.777887 480.833868 
L 670.99656 479.168051 
L 672.215233 477.176702 
L 673.433907 474.863534 
L 675.261916 470.799974 
L 677.089926 466.039216 
L 678.917936 460.601235 
L 680.745946 454.508846 
L 683.183292 445.412252 
L 685.620639 435.26584 
L 688.057985 424.145266 
L 691.104668 409.001602 
L 694.151351 392.642239 
L 697.807371 371.675419 
L 702.072727 345.81916 
L 708.77543 303.524266 
L 716.696806 253.80557 
L 720.962162 228.44292 
L 724.618182 208.065373 
L 727.664865 192.306861 
L 730.711548 177.856453 
L 733.148894 167.351624 
L 735.586241 157.870355 
L 737.414251 151.473947 
L 739.24226 145.720062 
L 741.07027 140.632841 
L 742.89828 136.233627 
L 744.72629 132.540878 
L 745.944963 130.479299 
L 747.163636 128.742498 
L 747.163636 128.742498 
" style="fill:none;stroke:#dd8452;stroke-linecap:round;stroke-width:3;"/>
   </g>
   <g id="line2d_18">
    <path clip-path="url(#pab5015c3e7)" d="M 138.436364 480.879061 
L 139.655037 479.219962 
L 140.87371 477.234104 
L 142.092383 474.925204 
L 143.920393 470.865769 
L 145.748403 466.106452 
L 147.576413 460.667294 
L 149.404423 454.571203 
L 151.841769 445.465942 
L 154.279115 435.306897 
L 156.716462 424.170104 
L 159.763145 409.001793 
L 162.809828 392.613819 
L 166.465848 371.608923 
L 170.731204 345.705586 
L 177.433907 303.338607 
L 185.355283 253.553432 
L 189.620639 228.170031 
L 193.276658 207.785791 
L 196.323342 192.030613 
L 199.370025 177.592349 
L 201.807371 167.103915 
L 204.244717 157.645173 
L 206.072727 151.269745 
L 207.900737 145.54036 
L 209.728747 140.481145 
L 211.556757 136.113408 
L 213.384767 132.455541 
L 214.60344 130.419069 
L 215.822113 128.708816 
L 217.040786 127.327985 
L 218.259459 126.279161 
L 219.478133 125.564307 
L 220.696806 125.184761 
L 221.915479 125.141234 
L 223.134152 125.433808 
L 224.352826 126.061934 
L 225.571499 127.024437 
L 226.790172 128.319516 
L 228.008845 129.944744 
L 229.227518 131.897081 
L 230.446192 134.172871 
L 232.274201 138.183546 
L 234.102211 142.895375 
L 235.930221 148.288513 
L 237.758231 154.340249 
L 239.586241 161.025097 
L 242.023587 170.87404 
L 244.460934 181.724456 
L 246.89828 193.495133 
L 249.944963 209.367775 
L 253.600983 229.868453 
L 257.866339 255.351466 
L 263.350369 289.68967 
L 274.318428 358.746027 
L 278.583784 383.959389 
L 282.239803 404.147067 
L 285.286486 419.70509 
L 287.723833 431.191475 
L 290.161179 441.730917 
L 292.598526 451.24453 
L 294.426536 457.6634 
L 296.254545 463.437986 
L 298.082555 468.543971 
L 299.910565 472.95985 
L 301.738575 476.667027 
L 302.957248 478.736921 
L 304.175921 480.48096 
L 305.394595 481.895879 
L 306.613268 482.979029 
L 307.831941 483.728382 
L 309.050614 484.142536 
L 310.269287 484.220715 
L 311.487961 483.962773 
L 312.706634 483.369192 
L 313.925307 482.441085 
L 315.14398 481.180188 
L 316.362654 479.588862 
L 317.581327 477.670086 
L 318.8 475.427452 
L 320.62801 471.465615 
L 322.45602 466.80137 
L 324.284029 461.454358 
L 326.112039 455.447097 
L 327.940049 448.804887 
L 330.377396 439.009626 
L 332.814742 428.208903 
L 335.252088 416.483561 
L 338.298771 400.660943 
L 341.345455 383.716173 
L 345.001474 362.180918 
L 349.876167 332.027069 
L 364.500246 240.360244 
L 368.156265 219.200236 
L 371.202948 202.651206 
L 374.249631 187.294926 
L 376.686978 175.989848 
L 379.124324 165.647953 
L 381.561671 156.346646 
L 383.389681 150.09574 
L 385.21769 144.495821 
L 387.0457 139.570472 
L 388.87371 135.340435 
L 390.70172 131.823524 
L 391.920393 129.882538 
L 393.139066 128.268776 
L 394.35774 126.98526 
L 395.576413 126.034391 
L 396.795086 125.417952 
L 398.013759 125.137094 
L 399.232432 125.192345 
L 400.451106 125.583601 
L 401.669779 126.310128 
L 402.888452 127.370568 
L 404.107125 128.762935 
L 405.325799 130.484623 
L 406.544472 132.532407 
L 407.763145 134.902456 
L 409.591155 139.051904 
L 411.419165 143.898848 
L 413.247174 149.422876 
L 415.075184 155.600724 
L 417.512531 164.809559 
L 419.949877 175.065258 
L 422.387224 186.291059 
L 425.433907 201.558874 
L 428.48059 218.032209 
L 432.136609 239.119474 
L 436.401966 265.089537 
L 443.104668 307.494244 
L 450.416708 353.489662 
L 454.682064 379.000359 
L 458.338084 399.533582 
L 461.384767 415.439149 
L 464.43145 430.049795 
L 466.868796 440.690623 
L 469.306143 450.313408 
L 471.743489 458.846126 
L 473.571499 464.491569 
L 475.399509 469.463972 
L 477.227518 473.742396 
L 479.055528 477.308823 
L 480.274201 479.283344 
L 481.492875 480.930987 
L 482.711548 482.248668 
L 483.930221 483.23392 
L 485.148894 483.884897 
L 486.367568 484.200383 
L 487.586241 484.179785 
L 488.804914 483.823142 
L 490.023587 483.131123 
L 491.24226 482.105022 
L 492.460934 480.746761 
L 493.679607 479.058883 
L 494.89828 477.044546 
L 496.116953 474.707523 
L 497.944963 470.606684 
L 499.772973 465.807053 
L 501.600983 460.328843 
L 503.428993 454.195124 
L 505.866339 445.042184 
L 508.303686 434.838631 
L 510.741032 423.660836 
L 513.787715 408.446665 
L 516.834398 392.01932 
L 520.490418 370.976389 
L 524.755774 345.042166 
L 531.458477 302.657489 
L 538.770516 256.632462 
L 543.035872 231.080347 
L 546.691892 210.49828 
L 549.738575 194.543214 
L 552.785258 179.875687 
L 555.222604 169.184483 
L 557.659951 159.507399 
L 560.097297 150.916864 
L 561.925307 145.22601 
L 563.753317 140.206651 
L 565.581327 135.879925 
L 567.409337 132.264054 
L 568.62801 130.256037 
L 569.846683 128.574545 
L 571.065356 127.222726 
L 572.284029 126.203111 
L 573.502703 125.517608 
L 574.721376 125.167501 
L 575.940049 125.153446 
L 577.158722 125.475468 
L 578.377396 126.132965 
L 579.596069 127.124706 
L 580.814742 128.448834 
L 582.033415 130.10287 
L 583.252088 132.083718 
L 584.470762 134.38767 
L 586.298771 138.439819 
L 588.126781 143.192041 
L 589.954791 148.624324 
L 591.782801 154.71379 
L 594.220147 163.810654 
L 596.657494 173.961859 
L 599.09484 185.091425 
L 602.141523 200.251651 
L 605.188206 216.632679 
L 608.844226 237.630855 
L 613.109582 263.528724 
L 619.812285 305.892528 
L 627.733661 355.682645 
L 631.999017 381.072499 
L 635.655037 401.464252 
L 638.70172 417.226992 
L 641.748403 431.67391 
L 644.185749 442.169984 
L 646.623096 451.636944 
L 648.451106 458.018876 
L 650.279115 463.755028 
L 652.107125 468.821242 
L 653.935135 473.196184 
L 655.763145 476.861429 
L 656.981818 478.902902 
L 658.200491 480.618209 
L 659.419165 482.004139 
L 660.637838 483.058097 
L 661.856511 483.778111 
L 663.075184 484.162832 
L 664.293857 484.211541 
L 665.512531 483.924145 
L 666.731204 483.301184 
L 667.949877 482.343823 
L 669.16855 481.053854 
L 670.387224 479.433693 
L 671.605897 477.486372 
L 672.82457 475.215538 
L 674.65258 471.21216 
L 676.48059 466.507441 
L 678.3086 461.121193 
L 680.136609 455.0761 
L 681.964619 448.39762 
L 684.401966 438.556691 
L 686.839312 427.713692 
L 689.276658 415.94978 
L 692.323342 400.084598 
L 695.370025 383.104002 
L 699.026044 361.535235 
L 703.900737 331.353674 
L 717.915479 243.361403 
L 721.571499 222.031063 
L 724.618182 205.303556 
L 727.664865 189.73779 
L 730.102211 178.244432 
L 732.539558 167.697381 
L 734.976904 158.175579 
L 736.804914 151.750224 
L 738.632924 145.968889 
L 740.460934 140.855919 
L 742.288943 136.432849 
L 744.116953 132.718304 
L 745.335627 130.643416 
L 746.5543 128.894328 
L 747.163636 128.143006 
L 747.163636 128.143006 
" style="fill:none;stroke:#55a868;stroke-linecap:round;stroke-width:3;"/>
   </g>
   <g id="patch_3">
    <path d="M 108 504 
L 108 69.12 
" style="fill:none;stroke:#ffffff;stroke-linecap:square;stroke-linejoin:miter;stroke-width:2.5;"/>
   </g>
   <g id="patch_4">
    <path d="M 777.6 504 
L 777.6 69.12 
" style="fill:none;stroke:#ffffff;stroke-linecap:square;stroke-linejoin:miter;stroke-width:2.5;"/>
   </g>
   <g id="patch_5">
    <path d="M 108 504 
L 777.6 504 
" style="fill:none;stroke:#ffffff;stroke-linecap:square;stroke-linejoin:miter;stroke-width:2.5;"/>
   </g>
   <g id="patch_6">
    <path d="M 108 69.12 
L 777.6 69.12 
" style="fill:none;stroke:#ffffff;stroke-linecap:square;stroke-linejoin:miter;stroke-width:2.5;"/>
   </g>
   <g id="legend_1">
    <g id="patch_7">
     <path d="M 296.757812 338.297813 
L 588.842188 338.297813 
Q 593.242188 338.297813 593.242188 333.897812 
L 593.242188 239.222188 
Q 593.242188 234.822188 588.842188 234.822188 
L 296.757812 234.822188 
Q 292.357813 234.822188 292.357813 239.222188 
L 292.357813 333.897812 
Q 292.357813 338.297813 296.757812 338.297813 
z
" style="fill:#eaeaf2;opacity:0.8;stroke:#cccccc;stroke-linejoin:miter;stroke-width:2;"/>
    </g>
    <g id="line2d_19">
     <path d="M 301.157813 252.63875 
L 345.157813 252.63875 
" style="fill:none;stroke:#4c72b0;stroke-dasharray:11.1,4.8;stroke-dashoffset:0;stroke-width:3;"/>
    </g>
    <g id="line2d_20">
     <g>
      <use style="fill:#4c72b0;stroke:#4c72b0;" x="323.157813" xlink:href="#m75ac95d531" y="252.63875"/>
     </g>
    </g>
    <g id="text_18">
     <!-- search -->
     <g style="fill:#262626;" transform="translate(362.757813 260.33875)scale(0.22 -0.22)">
      <defs>
       <path d="M 54.890625 33.015625 
L 54.890625 0 
L 45.90625 0 
L 45.90625 32.71875 
Q 45.90625 40.484375 42.875 44.328125 
Q 39.84375 48.1875 33.796875 48.1875 
Q 26.515625 48.1875 22.3125 43.546875 
Q 18.109375 38.921875 18.109375 30.90625 
L 18.109375 0 
L 9.078125 0 
L 9.078125 75.984375 
L 18.109375 75.984375 
L 18.109375 46.1875 
Q 21.34375 51.125 25.703125 53.5625 
Q 30.078125 56 35.796875 56 
Q 45.21875 56 50.046875 50.171875 
Q 54.890625 44.34375 54.890625 33.015625 
z
" id="DejaVuSans-104"/>
      </defs>
      <use xlink:href="#DejaVuSans-115"/>
      <use x="52.099609" xlink:href="#DejaVuSans-101"/>
      <use x="113.623047" xlink:href="#DejaVuSans-97"/>
      <use x="174.902344" xlink:href="#DejaVuSans-114"/>
      <use x="213.765625" xlink:href="#DejaVuSans-99"/>
      <use x="268.746094" xlink:href="#DejaVuSans-104"/>
     </g>
    </g>
    <g id="line2d_21">
     <path d="M 301.157813 284.930625 
L 345.157813 284.930625 
" style="fill:none;stroke:#dd8452;stroke-linecap:round;stroke-width:3;"/>
    </g>
    <g id="line2d_22"/>
    <g id="text_19">
     <!-- predicted frequency -->
     <g style="fill:#262626;" transform="translate(362.757813 292.630625)scale(0.22 -0.22)">
      <defs>
       <path d="M 45.40625 46.390625 
L 45.40625 75.984375 
L 54.390625 75.984375 
L 54.390625 0 
L 45.40625 0 
L 45.40625 8.203125 
Q 42.578125 3.328125 38.25 0.953125 
Q 33.9375 -1.421875 27.875 -1.421875 
Q 17.96875 -1.421875 11.734375 6.484375 
Q 5.515625 14.40625 5.515625 27.296875 
Q 5.515625 40.1875 11.734375 48.09375 
Q 17.96875 56 27.875 56 
Q 33.9375 56 38.25 53.625 
Q 42.578125 51.265625 45.40625 46.390625 
z
M 14.796875 27.296875 
Q 14.796875 17.390625 18.875 11.75 
Q 22.953125 6.109375 30.078125 6.109375 
Q 37.203125 6.109375 41.296875 11.75 
Q 45.40625 17.390625 45.40625 27.296875 
Q 45.40625 37.203125 41.296875 42.84375 
Q 37.203125 48.484375 30.078125 48.484375 
Q 22.953125 48.484375 18.875 42.84375 
Q 14.796875 37.203125 14.796875 27.296875 
z
" id="DejaVuSans-100"/>
       <path d="M 14.796875 27.296875 
Q 14.796875 17.390625 18.875 11.75 
Q 22.953125 6.109375 30.078125 6.109375 
Q 37.203125 6.109375 41.296875 11.75 
Q 45.40625 17.390625 45.40625 27.296875 
Q 45.40625 37.203125 41.296875 42.84375 
Q 37.203125 48.484375 30.078125 48.484375 
Q 22.953125 48.484375 18.875 42.84375 
Q 14.796875 37.203125 14.796875 27.296875 
z
M 45.40625 8.203125 
Q 42.578125 3.328125 38.25 0.953125 
Q 33.9375 -1.421875 27.875 -1.421875 
Q 17.96875 -1.421875 11.734375 6.484375 
Q 5.515625 14.40625 5.515625 27.296875 
Q 5.515625 40.1875 11.734375 48.09375 
Q 17.96875 56 27.875 56 
Q 33.9375 56 38.25 53.625 
Q 42.578125 51.265625 45.40625 46.390625 
L 45.40625 54.6875 
L 54.390625 54.6875 
L 54.390625 -20.796875 
L 45.40625 -20.796875 
z
" id="DejaVuSans-113"/>
       <path d="M 54.890625 33.015625 
L 54.890625 0 
L 45.90625 0 
L 45.90625 32.71875 
Q 45.90625 40.484375 42.875 44.328125 
Q 39.84375 48.1875 33.796875 48.1875 
Q 26.515625 48.1875 22.3125 43.546875 
Q 18.109375 38.921875 18.109375 30.90625 
L 18.109375 0 
L 9.078125 0 
L 9.078125 54.6875 
L 18.109375 54.6875 
L 18.109375 46.1875 
Q 21.34375 51.125 25.703125 53.5625 
Q 30.078125 56 35.796875 56 
Q 45.21875 56 50.046875 50.171875 
Q 54.890625 44.34375 54.890625 33.015625 
z
" id="DejaVuSans-110"/>
      </defs>
      <use xlink:href="#DejaVuSans-112"/>
      <use x="63.476562" xlink:href="#DejaVuSans-114"/>
      <use x="102.339844" xlink:href="#DejaVuSans-101"/>
      <use x="163.863281" xlink:href="#DejaVuSans-100"/>
      <use x="227.339844" xlink:href="#DejaVuSans-105"/>
      <use x="255.123047" xlink:href="#DejaVuSans-99"/>
      <use x="310.103516" xlink:href="#DejaVuSans-116"/>
      <use x="349.3125" xlink:href="#DejaVuSans-101"/>
      <use x="410.835938" xlink:href="#DejaVuSans-100"/>
      <use x="474.3125" xlink:href="#DejaVuSans-32"/>
      <use x="506.099609" xlink:href="#DejaVuSans-102"/>
      <use x="541.304688" xlink:href="#DejaVuSans-114"/>
      <use x="580.167969" xlink:href="#DejaVuSans-101"/>
      <use x="641.691406" xlink:href="#DejaVuSans-113"/>
      <use x="705.167969" xlink:href="#DejaVuSans-117"/>
      <use x="768.546875" xlink:href="#DejaVuSans-101"/>
      <use x="830.070312" xlink:href="#DejaVuSans-110"/>
      <use x="893.449219" xlink:href="#DejaVuSans-99"/>
      <use x="948.429688" xlink:href="#DejaVuSans-121"/>
     </g>
    </g>
    <g id="line2d_23">
     <path d="M 301.157813 317.2225 
L 345.157813 317.2225 
" style="fill:none;stroke:#55a868;stroke-linecap:round;stroke-width:3;"/>
    </g>
    <g id="line2d_24"/>
    <g id="text_20">
     <!-- fit -->
     <g style="fill:#262626;" transform="translate(362.757813 324.9225)scale(0.22 -0.22)">
      <use xlink:href="#DejaVuSans-102"/>
      <use x="35.205078" xlink:href="#DejaVuSans-105"/>
      <use x="62.988281" xlink:href="#DejaVuSans-116"/>
     </g>
    </g>
   </g>
  </g>
 </g>
 <defs>
  <clipPath id="pab5015c3e7">
   <rect height="434.88" width="669.6" x="108" y="69.12"/>
  </clipPath>
 </defs>
</svg>
