<?xml version="1.0" encoding="utf-8" standalone="no"?>
<!DOCTYPE svg PUBLIC "-//W3C//DTD SVG 1.1//EN"
  "http://www.w3.org/Graphics/SVG/1.1/DTD/svg11.dtd">
<!-- Created with matplotlib (https://matplotlib.org/) -->
<svg height="576pt" version="1.1" viewBox="0 0 864 576" width="864pt" xmlns="http://www.w3.org/2000/svg" xmlns:xlink="http://www.w3.org/1999/xlink">
 <metadata>
  <rdf:RDF xmlns:cc="http://creativecommons.org/ns#" xmlns:dc="http://purl.org/dc/elements/1.1/" xmlns:rdf="http://www.w3.org/1999/02/22-rdf-syntax-ns#">
   <cc:Work>
    <dc:type rdf:resource="http://purl.org/dc/dcmitype/StillImage"/>
    <dc:date>2022-01-30T19:32:43.874106</dc:date>
    <dc:format>image/svg+xml</dc:format>
    <dc:creator>
     <cc:Agent>
      <dc:title>Matplotlib v3.3.2, https://matplotlib.org/</dc:title>
     </cc:Agent>
    </dc:creator>
   </cc:Work>
  </rdf:RDF>
 </metadata>
 <defs>
  <style type="text/css">*{stroke-linecap:butt;stroke-linejoin:round;}</style>
 </defs>
 <g id="figure_1">
  <g id="patch_1">
   <path d="M 0 576 
L 864 576 
L 864 0 
L 0 0 
z
" style="fill:#ffffff;"/>
  </g>
  <g id="axes_1">
   <g id="patch_2">
    <path d="M 108 504 
L 777.6 504 
L 777.6 69.12 
L 108 69.12 
z
" style="fill:#ffffff;"/>
   </g>
   <g id="matplotlib.axis_1">
    <g id="xtick_1">
     <g id="line2d_1">
      <defs>
       <path d="M 0 0 
L 0 12 
" id="m90b2a96933" style="stroke:#262626;stroke-width:2.5;"/>
      </defs>
      <g>
       <use style="fill:#262626;stroke:#262626;stroke-width:2.5;" x="138.436364" xlink:href="#m90b2a96933" y="504"/>
      </g>
     </g>
     <g id="text_1">
      <!-- 0 -->
      <g style="fill:#262626;" transform="translate(131.437614 536.216563)scale(0.22 -0.22)">
       <defs>
        <path d="M 31.78125 66.40625 
Q 24.171875 66.40625 20.328125 58.90625 
Q 16.5 51.421875 16.5 36.375 
Q 16.5 21.390625 20.328125 13.890625 
Q 24.171875 6.390625 31.78125 6.390625 
Q 39.453125 6.390625 43.28125 13.890625 
Q 47.125 21.390625 47.125 36.375 
Q 47.125 51.421875 43.28125 58.90625 
Q 39.453125 66.40625 31.78125 66.40625 
z
M 31.78125 74.21875 
Q 44.046875 74.21875 50.515625 64.515625 
Q 56.984375 54.828125 56.984375 36.375 
Q 56.984375 17.96875 50.515625 8.265625 
Q 44.046875 -1.421875 31.78125 -1.421875 
Q 19.53125 -1.421875 13.0625 8.265625 
Q 6.59375 17.96875 6.59375 36.375 
Q 6.59375 54.828125 13.0625 64.515625 
Q 19.53125 74.21875 31.78125 74.21875 
z
" id="DejaVuSans-48"/>
       </defs>
       <use xlink:href="#DejaVuSans-48"/>
      </g>
     </g>
    </g>
    <g id="xtick_2">
     <g id="line2d_2">
      <g>
       <use style="fill:#262626;stroke:#262626;stroke-width:2.5;" x="260.181818" xlink:href="#m90b2a96933" y="504"/>
      </g>
     </g>
     <g id="text_2">
      <!-- 10 -->
      <g style="fill:#262626;" transform="translate(246.184318 536.216563)scale(0.22 -0.22)">
       <defs>
        <path d="M 12.40625 8.296875 
L 28.515625 8.296875 
L 28.515625 63.921875 
L 10.984375 60.40625 
L 10.984375 69.390625 
L 28.421875 72.90625 
L 38.28125 72.90625 
L 38.28125 8.296875 
L 54.390625 8.296875 
L 54.390625 0 
L 12.40625 0 
z
" id="DejaVuSans-49"/>
       </defs>
       <use xlink:href="#DejaVuSans-49"/>
       <use x="63.623047" xlink:href="#DejaVuSans-48"/>
      </g>
     </g>
    </g>
    <g id="xtick_3">
     <g id="line2d_3">
      <g>
       <use style="fill:#262626;stroke:#262626;stroke-width:2.5;" x="381.927273" xlink:href="#m90b2a96933" y="504"/>
      </g>
     </g>
     <g id="text_3">
      <!-- 20 -->
      <g style="fill:#262626;" transform="translate(367.929773 536.216563)scale(0.22 -0.22)">
       <defs>
        <path d="M 19.1875 8.296875 
L 53.609375 8.296875 
L 53.609375 0 
L 7.328125 0 
L 7.328125 8.296875 
Q 12.9375 14.109375 22.625 23.890625 
Q 32.328125 33.6875 34.8125 36.53125 
Q 39.546875 41.84375 41.421875 45.53125 
Q 43.3125 49.21875 43.3125 52.78125 
Q 43.3125 58.59375 39.234375 62.25 
Q 35.15625 65.921875 28.609375 65.921875 
Q 23.96875 65.921875 18.8125 64.3125 
Q 13.671875 62.703125 7.8125 59.421875 
L 7.8125 69.390625 
Q 13.765625 71.78125 18.9375 73 
Q 24.125 74.21875 28.421875 74.21875 
Q 39.75 74.21875 46.484375 68.546875 
Q 53.21875 62.890625 53.21875 53.421875 
Q 53.21875 48.921875 51.53125 44.890625 
Q 49.859375 40.875 45.40625 35.40625 
Q 44.1875 33.984375 37.640625 27.21875 
Q 31.109375 20.453125 19.1875 8.296875 
z
" id="DejaVuSans-50"/>
       </defs>
       <use xlink:href="#DejaVuSans-50"/>
       <use x="63.623047" xlink:href="#DejaVuSans-48"/>
      </g>
     </g>
    </g>
    <g id="xtick_4">
     <g id="line2d_4">
      <g>
       <use style="fill:#262626;stroke:#262626;stroke-width:2.5;" x="503.672727" xlink:href="#m90b2a96933" y="504"/>
      </g>
     </g>
     <g id="text_4">
      <!-- 30 -->
      <g style="fill:#262626;" transform="translate(489.675227 536.216563)scale(0.22 -0.22)">
       <defs>
        <path d="M 40.578125 39.3125 
Q 47.65625 37.796875 51.625 33 
Q 55.609375 28.21875 55.609375 21.1875 
Q 55.609375 10.40625 48.1875 4.484375 
Q 40.765625 -1.421875 27.09375 -1.421875 
Q 22.515625 -1.421875 17.65625 -0.515625 
Q 12.796875 0.390625 7.625 2.203125 
L 7.625 11.71875 
Q 11.71875 9.328125 16.59375 8.109375 
Q 21.484375 6.890625 26.8125 6.890625 
Q 36.078125 6.890625 40.9375 10.546875 
Q 45.796875 14.203125 45.796875 21.1875 
Q 45.796875 27.640625 41.28125 31.265625 
Q 36.765625 34.90625 28.71875 34.90625 
L 20.21875 34.90625 
L 20.21875 43.015625 
L 29.109375 43.015625 
Q 36.375 43.015625 40.234375 45.921875 
Q 44.09375 48.828125 44.09375 54.296875 
Q 44.09375 59.90625 40.109375 62.90625 
Q 36.140625 65.921875 28.71875 65.921875 
Q 24.65625 65.921875 20.015625 65.03125 
Q 15.375 64.15625 9.8125 62.3125 
L 9.8125 71.09375 
Q 15.4375 72.65625 20.34375 73.4375 
Q 25.25 74.21875 29.59375 74.21875 
Q 40.828125 74.21875 47.359375 69.109375 
Q 53.90625 64.015625 53.90625 55.328125 
Q 53.90625 49.265625 50.4375 45.09375 
Q 46.96875 40.921875 40.578125 39.3125 
z
" id="DejaVuSans-51"/>
       </defs>
       <use xlink:href="#DejaVuSans-51"/>
       <use x="63.623047" xlink:href="#DejaVuSans-48"/>
      </g>
     </g>
    </g>
    <g id="xtick_5">
     <g id="line2d_5">
      <g>
       <use style="fill:#262626;stroke:#262626;stroke-width:2.5;" x="625.418182" xlink:href="#m90b2a96933" y="504"/>
      </g>
     </g>
     <g id="text_5">
      <!-- 40 -->
      <g style="fill:#262626;" transform="translate(611.420682 536.216563)scale(0.22 -0.22)">
       <defs>
        <path d="M 37.796875 64.3125 
L 12.890625 25.390625 
L 37.796875 25.390625 
z
M 35.203125 72.90625 
L 47.609375 72.90625 
L 47.609375 25.390625 
L 58.015625 25.390625 
L 58.015625 17.1875 
L 47.609375 17.1875 
L 47.609375 0 
L 37.796875 0 
L 37.796875 17.1875 
L 4.890625 17.1875 
L 4.890625 26.703125 
z
" id="DejaVuSans-52"/>
       </defs>
       <use xlink:href="#DejaVuSans-52"/>
       <use x="63.623047" xlink:href="#DejaVuSans-48"/>
      </g>
     </g>
    </g>
    <g id="xtick_6">
     <g id="line2d_6">
      <g>
       <use style="fill:#262626;stroke:#262626;stroke-width:2.5;" x="747.163636" xlink:href="#m90b2a96933" y="504"/>
      </g>
     </g>
     <g id="text_6">
      <!-- 50 -->
      <g style="fill:#262626;" transform="translate(733.166136 536.216563)scale(0.22 -0.22)">
       <defs>
        <path d="M 10.796875 72.90625 
L 49.515625 72.90625 
L 49.515625 64.59375 
L 19.828125 64.59375 
L 19.828125 46.734375 
Q 21.96875 47.46875 24.109375 47.828125 
Q 26.265625 48.1875 28.421875 48.1875 
Q 40.625 48.1875 47.75 41.5 
Q 54.890625 34.8125 54.890625 23.390625 
Q 54.890625 11.625 47.5625 5.09375 
Q 40.234375 -1.421875 26.90625 -1.421875 
Q 22.3125 -1.421875 17.546875 -0.640625 
Q 12.796875 0.140625 7.71875 1.703125 
L 7.71875 11.625 
Q 12.109375 9.234375 16.796875 8.0625 
Q 21.484375 6.890625 26.703125 6.890625 
Q 35.15625 6.890625 40.078125 11.328125 
Q 45.015625 15.765625 45.015625 23.390625 
Q 45.015625 31 40.078125 35.4375 
Q 35.15625 39.890625 26.703125 39.890625 
Q 22.75 39.890625 18.8125 39.015625 
Q 14.890625 38.140625 10.796875 36.28125 
z
" id="DejaVuSans-53"/>
       </defs>
       <use xlink:href="#DejaVuSans-53"/>
       <use x="63.623047" xlink:href="#DejaVuSans-48"/>
      </g>
     </g>
    </g>
    <g id="text_7">
     <!-- steps -->
     <g style="fill:#262626;" transform="translate(410.59125 563.028125)scale(0.24 -0.24)">
      <defs>
       <path d="M 44.28125 53.078125 
L 44.28125 44.578125 
Q 40.484375 46.53125 36.375 47.5 
Q 32.28125 48.484375 27.875 48.484375 
Q 21.1875 48.484375 17.84375 46.4375 
Q 14.5 44.390625 14.5 40.28125 
Q 14.5 37.15625 16.890625 35.375 
Q 19.28125 33.59375 26.515625 31.984375 
L 29.59375 31.296875 
Q 39.15625 29.25 43.1875 25.515625 
Q 47.21875 21.78125 47.21875 15.09375 
Q 47.21875 7.46875 41.1875 3.015625 
Q 35.15625 -1.421875 24.609375 -1.421875 
Q 20.21875 -1.421875 15.453125 -0.5625 
Q 10.6875 0.296875 5.421875 2 
L 5.421875 11.28125 
Q 10.40625 8.6875 15.234375 7.390625 
Q 20.0625 6.109375 24.8125 6.109375 
Q 31.15625 6.109375 34.5625 8.28125 
Q 37.984375 10.453125 37.984375 14.40625 
Q 37.984375 18.0625 35.515625 20.015625 
Q 33.0625 21.96875 24.703125 23.78125 
L 21.578125 24.515625 
Q 13.234375 26.265625 9.515625 29.90625 
Q 5.8125 33.546875 5.8125 39.890625 
Q 5.8125 47.609375 11.28125 51.796875 
Q 16.75 56 26.8125 56 
Q 31.78125 56 36.171875 55.265625 
Q 40.578125 54.546875 44.28125 53.078125 
z
" id="DejaVuSans-115"/>
       <path d="M 18.3125 70.21875 
L 18.3125 54.6875 
L 36.8125 54.6875 
L 36.8125 47.703125 
L 18.3125 47.703125 
L 18.3125 18.015625 
Q 18.3125 11.328125 20.140625 9.421875 
Q 21.96875 7.515625 27.59375 7.515625 
L 36.8125 7.515625 
L 36.8125 0 
L 27.59375 0 
Q 17.1875 0 13.234375 3.875 
Q 9.28125 7.765625 9.28125 18.015625 
L 9.28125 47.703125 
L 2.6875 47.703125 
L 2.6875 54.6875 
L 9.28125 54.6875 
L 9.28125 70.21875 
z
" id="DejaVuSans-116"/>
       <path d="M 56.203125 29.59375 
L 56.203125 25.203125 
L 14.890625 25.203125 
Q 15.484375 15.921875 20.484375 11.0625 
Q 25.484375 6.203125 34.421875 6.203125 
Q 39.59375 6.203125 44.453125 7.46875 
Q 49.3125 8.734375 54.109375 11.28125 
L 54.109375 2.78125 
Q 49.265625 0.734375 44.1875 -0.34375 
Q 39.109375 -1.421875 33.890625 -1.421875 
Q 20.796875 -1.421875 13.15625 6.1875 
Q 5.515625 13.8125 5.515625 26.8125 
Q 5.515625 40.234375 12.765625 48.109375 
Q 20.015625 56 32.328125 56 
Q 43.359375 56 49.78125 48.890625 
Q 56.203125 41.796875 56.203125 29.59375 
z
M 47.21875 32.234375 
Q 47.125 39.59375 43.09375 43.984375 
Q 39.0625 48.390625 32.421875 48.390625 
Q 24.90625 48.390625 20.390625 44.140625 
Q 15.875 39.890625 15.1875 32.171875 
z
" id="DejaVuSans-101"/>
       <path d="M 18.109375 8.203125 
L 18.109375 -20.796875 
L 9.078125 -20.796875 
L 9.078125 54.6875 
L 18.109375 54.6875 
L 18.109375 46.390625 
Q 20.953125 51.265625 25.265625 53.625 
Q 29.59375 56 35.59375 56 
Q 45.5625 56 51.78125 48.09375 
Q 58.015625 40.1875 58.015625 27.296875 
Q 58.015625 14.40625 51.78125 6.484375 
Q 45.5625 -1.421875 35.59375 -1.421875 
Q 29.59375 -1.421875 25.265625 0.953125 
Q 20.953125 3.328125 18.109375 8.203125 
z
M 48.6875 27.296875 
Q 48.6875 37.203125 44.609375 42.84375 
Q 40.53125 48.484375 33.40625 48.484375 
Q 26.265625 48.484375 22.1875 42.84375 
Q 18.109375 37.203125 18.109375 27.296875 
Q 18.109375 17.390625 22.1875 11.75 
Q 26.265625 6.109375 33.40625 6.109375 
Q 40.53125 6.109375 44.609375 11.75 
Q 48.6875 17.390625 48.6875 27.296875 
z
" id="DejaVuSans-112"/>
      </defs>
      <use xlink:href="#DejaVuSans-115"/>
      <use x="52.099609" xlink:href="#DejaVuSans-116"/>
      <use x="91.308594" xlink:href="#DejaVuSans-101"/>
      <use x="152.832031" xlink:href="#DejaVuSans-112"/>
      <use x="216.308594" xlink:href="#DejaVuSans-115"/>
     </g>
    </g>
   </g>
   <g id="matplotlib.axis_2">
    <g id="ytick_1">
     <g id="line2d_7">
      <defs>
       <path d="M 0 0 
L -12 0 
" id="madcc9c362d" style="stroke:#262626;stroke-width:2.5;"/>
      </defs>
      <g>
       <use style="fill:#262626;stroke:#262626;stroke-width:2.5;" x="108" xlink:href="#madcc9c362d" y="484.23324"/>
      </g>
     </g>
     <g id="text_8">
      <!-- 0.000 -->
      <g style="fill:#262626;" transform="translate(29.518125 492.591521)scale(0.22 -0.22)">
       <defs>
        <path d="M 10.6875 12.40625 
L 21 12.40625 
L 21 0 
L 10.6875 0 
z
" id="DejaVuSans-46"/>
       </defs>
       <use xlink:href="#DejaVuSans-48"/>
       <use x="63.623047" xlink:href="#DejaVuSans-46"/>
       <use x="95.410156" xlink:href="#DejaVuSans-48"/>
       <use x="159.033203" xlink:href="#DejaVuSans-48"/>
       <use x="222.65625" xlink:href="#DejaVuSans-48"/>
      </g>
     </g>
    </g>
    <g id="ytick_2">
     <g id="line2d_8">
      <g>
       <use style="fill:#262626;stroke:#262626;stroke-width:2.5;" x="108" xlink:href="#madcc9c362d" y="433.615836"/>
      </g>
     </g>
     <g id="text_9">
      <!-- 0.025 -->
      <g style="fill:#262626;" transform="translate(29.518125 441.974117)scale(0.22 -0.22)">
       <use xlink:href="#DejaVuSans-48"/>
       <use x="63.623047" xlink:href="#DejaVuSans-46"/>
       <use x="95.410156" xlink:href="#DejaVuSans-48"/>
       <use x="159.033203" xlink:href="#DejaVuSans-50"/>
       <use x="222.65625" xlink:href="#DejaVuSans-53"/>
      </g>
     </g>
    </g>
    <g id="ytick_3">
     <g id="line2d_9">
      <g>
       <use style="fill:#262626;stroke:#262626;stroke-width:2.5;" x="108" xlink:href="#madcc9c362d" y="382.998432"/>
      </g>
     </g>
     <g id="text_10">
      <!-- 0.050 -->
      <g style="fill:#262626;" transform="translate(29.518125 391.356714)scale(0.22 -0.22)">
       <use xlink:href="#DejaVuSans-48"/>
       <use x="63.623047" xlink:href="#DejaVuSans-46"/>
       <use x="95.410156" xlink:href="#DejaVuSans-48"/>
       <use x="159.033203" xlink:href="#DejaVuSans-53"/>
       <use x="222.65625" xlink:href="#DejaVuSans-48"/>
      </g>
     </g>
    </g>
    <g id="ytick_4">
     <g id="line2d_10">
      <g>
       <use style="fill:#262626;stroke:#262626;stroke-width:2.5;" x="108" xlink:href="#madcc9c362d" y="332.381029"/>
      </g>
     </g>
     <g id="text_11">
      <!-- 0.075 -->
      <g style="fill:#262626;" transform="translate(29.518125 340.73931)scale(0.22 -0.22)">
       <defs>
        <path d="M 8.203125 72.90625 
L 55.078125 72.90625 
L 55.078125 68.703125 
L 28.609375 0 
L 18.3125 0 
L 43.21875 64.59375 
L 8.203125 64.59375 
z
" id="DejaVuSans-55"/>
       </defs>
       <use xlink:href="#DejaVuSans-48"/>
       <use x="63.623047" xlink:href="#DejaVuSans-46"/>
       <use x="95.410156" xlink:href="#DejaVuSans-48"/>
       <use x="159.033203" xlink:href="#DejaVuSans-55"/>
       <use x="222.65625" xlink:href="#DejaVuSans-53"/>
      </g>
     </g>
    </g>
    <g id="ytick_5">
     <g id="line2d_11">
      <g>
       <use style="fill:#262626;stroke:#262626;stroke-width:2.5;" x="108" xlink:href="#madcc9c362d" y="281.763625"/>
      </g>
     </g>
     <g id="text_12">
      <!-- 0.100 -->
      <g style="fill:#262626;" transform="translate(29.518125 290.121906)scale(0.22 -0.22)">
       <use xlink:href="#DejaVuSans-48"/>
       <use x="63.623047" xlink:href="#DejaVuSans-46"/>
       <use x="95.410156" xlink:href="#DejaVuSans-49"/>
       <use x="159.033203" xlink:href="#DejaVuSans-48"/>
       <use x="222.65625" xlink:href="#DejaVuSans-48"/>
      </g>
     </g>
    </g>
    <g id="ytick_6">
     <g id="line2d_12">
      <g>
       <use style="fill:#262626;stroke:#262626;stroke-width:2.5;" x="108" xlink:href="#madcc9c362d" y="231.146221"/>
      </g>
     </g>
     <g id="text_13">
      <!-- 0.125 -->
      <g style="fill:#262626;" transform="translate(29.518125 239.504502)scale(0.22 -0.22)">
       <use xlink:href="#DejaVuSans-48"/>
       <use x="63.623047" xlink:href="#DejaVuSans-46"/>
       <use x="95.410156" xlink:href="#DejaVuSans-49"/>
       <use x="159.033203" xlink:href="#DejaVuSans-50"/>
       <use x="222.65625" xlink:href="#DejaVuSans-53"/>
      </g>
     </g>
    </g>
    <g id="ytick_7">
     <g id="line2d_13">
      <g>
       <use style="fill:#262626;stroke:#262626;stroke-width:2.5;" x="108" xlink:href="#madcc9c362d" y="180.528817"/>
      </g>
     </g>
     <g id="text_14">
      <!-- 0.150 -->
      <g style="fill:#262626;" transform="translate(29.518125 188.887098)scale(0.22 -0.22)">
       <use xlink:href="#DejaVuSans-48"/>
       <use x="63.623047" xlink:href="#DejaVuSans-46"/>
       <use x="95.410156" xlink:href="#DejaVuSans-49"/>
       <use x="159.033203" xlink:href="#DejaVuSans-53"/>
       <use x="222.65625" xlink:href="#DejaVuSans-48"/>
      </g>
     </g>
    </g>
    <g id="ytick_8">
     <g id="line2d_14">
      <g>
       <use style="fill:#262626;stroke:#262626;stroke-width:2.5;" x="108" xlink:href="#madcc9c362d" y="129.911413"/>
      </g>
     </g>
     <g id="text_15">
      <!-- 0.175 -->
      <g style="fill:#262626;" transform="translate(29.518125 138.269695)scale(0.22 -0.22)">
       <use xlink:href="#DejaVuSans-48"/>
       <use x="63.623047" xlink:href="#DejaVuSans-46"/>
       <use x="95.410156" xlink:href="#DejaVuSans-49"/>
       <use x="159.033203" xlink:href="#DejaVuSans-55"/>
       <use x="222.65625" xlink:href="#DejaVuSans-53"/>
      </g>
     </g>
    </g>
    <g id="ytick_9">
     <g id="line2d_15">
      <g>
       <use style="fill:#262626;stroke:#262626;stroke-width:2.5;" x="108" xlink:href="#madcc9c362d" y="79.29401"/>
      </g>
     </g>
     <g id="text_16">
      <!-- 0.200 -->
      <g style="fill:#262626;" transform="translate(29.518125 87.652291)scale(0.22 -0.22)">
       <use xlink:href="#DejaVuSans-48"/>
       <use x="63.623047" xlink:href="#DejaVuSans-46"/>
       <use x="95.410156" xlink:href="#DejaVuSans-50"/>
       <use x="159.033203" xlink:href="#DejaVuSans-48"/>
       <use x="222.65625" xlink:href="#DejaVuSans-48"/>
      </g>
     </g>
    </g>
    <g id="text_17">
     <!-- probability of success -->
     <g style="fill:#262626;" transform="translate(20.526875 416.715)rotate(-90)scale(0.24 -0.24)">
      <defs>
       <path d="M 41.109375 46.296875 
Q 39.59375 47.171875 37.8125 47.578125 
Q 36.03125 48 33.890625 48 
Q 26.265625 48 22.1875 43.046875 
Q 18.109375 38.09375 18.109375 28.8125 
L 18.109375 0 
L 9.078125 0 
L 9.078125 54.6875 
L 18.109375 54.6875 
L 18.109375 46.1875 
Q 20.953125 51.171875 25.484375 53.578125 
Q 30.03125 56 36.53125 56 
Q 37.453125 56 38.578125 55.875 
Q 39.703125 55.765625 41.0625 55.515625 
z
" id="DejaVuSans-114"/>
       <path d="M 30.609375 48.390625 
Q 23.390625 48.390625 19.1875 42.75 
Q 14.984375 37.109375 14.984375 27.296875 
Q 14.984375 17.484375 19.15625 11.84375 
Q 23.34375 6.203125 30.609375 6.203125 
Q 37.796875 6.203125 41.984375 11.859375 
Q 46.1875 17.53125 46.1875 27.296875 
Q 46.1875 37.015625 41.984375 42.703125 
Q 37.796875 48.390625 30.609375 48.390625 
z
M 30.609375 56 
Q 42.328125 56 49.015625 48.375 
Q 55.71875 40.765625 55.71875 27.296875 
Q 55.71875 13.875 49.015625 6.21875 
Q 42.328125 -1.421875 30.609375 -1.421875 
Q 18.84375 -1.421875 12.171875 6.21875 
Q 5.515625 13.875 5.515625 27.296875 
Q 5.515625 40.765625 12.171875 48.375 
Q 18.84375 56 30.609375 56 
z
" id="DejaVuSans-111"/>
       <path d="M 48.6875 27.296875 
Q 48.6875 37.203125 44.609375 42.84375 
Q 40.53125 48.484375 33.40625 48.484375 
Q 26.265625 48.484375 22.1875 42.84375 
Q 18.109375 37.203125 18.109375 27.296875 
Q 18.109375 17.390625 22.1875 11.75 
Q 26.265625 6.109375 33.40625 6.109375 
Q 40.53125 6.109375 44.609375 11.75 
Q 48.6875 17.390625 48.6875 27.296875 
z
M 18.109375 46.390625 
Q 20.953125 51.265625 25.265625 53.625 
Q 29.59375 56 35.59375 56 
Q 45.5625 56 51.78125 48.09375 
Q 58.015625 40.1875 58.015625 27.296875 
Q 58.015625 14.40625 51.78125 6.484375 
Q 45.5625 -1.421875 35.59375 -1.421875 
Q 29.59375 -1.421875 25.265625 0.953125 
Q 20.953125 3.328125 18.109375 8.203125 
L 18.109375 0 
L 9.078125 0 
L 9.078125 75.984375 
L 18.109375 75.984375 
z
" id="DejaVuSans-98"/>
       <path d="M 34.28125 27.484375 
Q 23.390625 27.484375 19.1875 25 
Q 14.984375 22.515625 14.984375 16.5 
Q 14.984375 11.71875 18.140625 8.90625 
Q 21.296875 6.109375 26.703125 6.109375 
Q 34.1875 6.109375 38.703125 11.40625 
Q 43.21875 16.703125 43.21875 25.484375 
L 43.21875 27.484375 
z
M 52.203125 31.203125 
L 52.203125 0 
L 43.21875 0 
L 43.21875 8.296875 
Q 40.140625 3.328125 35.546875 0.953125 
Q 30.953125 -1.421875 24.3125 -1.421875 
Q 15.921875 -1.421875 10.953125 3.296875 
Q 6 8.015625 6 15.921875 
Q 6 25.140625 12.171875 29.828125 
Q 18.359375 34.515625 30.609375 34.515625 
L 43.21875 34.515625 
L 43.21875 35.40625 
Q 43.21875 41.609375 39.140625 45 
Q 35.0625 48.390625 27.6875 48.390625 
Q 23 48.390625 18.546875 47.265625 
Q 14.109375 46.140625 10.015625 43.890625 
L 10.015625 52.203125 
Q 14.9375 54.109375 19.578125 55.046875 
Q 24.21875 56 28.609375 56 
Q 40.484375 56 46.34375 49.84375 
Q 52.203125 43.703125 52.203125 31.203125 
z
" id="DejaVuSans-97"/>
       <path d="M 9.421875 54.6875 
L 18.40625 54.6875 
L 18.40625 0 
L 9.421875 0 
z
M 9.421875 75.984375 
L 18.40625 75.984375 
L 18.40625 64.59375 
L 9.421875 64.59375 
z
" id="DejaVuSans-105"/>
       <path d="M 9.421875 75.984375 
L 18.40625 75.984375 
L 18.40625 0 
L 9.421875 0 
z
" id="DejaVuSans-108"/>
       <path d="M 32.171875 -5.078125 
Q 28.375 -14.84375 24.75 -17.8125 
Q 21.140625 -20.796875 15.09375 -20.796875 
L 7.90625 -20.796875 
L 7.90625 -13.28125 
L 13.1875 -13.28125 
Q 16.890625 -13.28125 18.9375 -11.515625 
Q 21 -9.765625 23.484375 -3.21875 
L 25.09375 0.875 
L 2.984375 54.6875 
L 12.5 54.6875 
L 29.59375 11.921875 
L 46.6875 54.6875 
L 56.203125 54.6875 
z
" id="DejaVuSans-121"/>
       <path id="DejaVuSans-32"/>
       <path d="M 37.109375 75.984375 
L 37.109375 68.5 
L 28.515625 68.5 
Q 23.6875 68.5 21.796875 66.546875 
Q 19.921875 64.59375 19.921875 59.515625 
L 19.921875 54.6875 
L 34.71875 54.6875 
L 34.71875 47.703125 
L 19.921875 47.703125 
L 19.921875 0 
L 10.890625 0 
L 10.890625 47.703125 
L 2.296875 47.703125 
L 2.296875 54.6875 
L 10.890625 54.6875 
L 10.890625 58.5 
Q 10.890625 67.625 15.140625 71.796875 
Q 19.390625 75.984375 28.609375 75.984375 
z
" id="DejaVuSans-102"/>
       <path d="M 8.5 21.578125 
L 8.5 54.6875 
L 17.484375 54.6875 
L 17.484375 21.921875 
Q 17.484375 14.15625 20.5 10.265625 
Q 23.53125 6.390625 29.59375 6.390625 
Q 36.859375 6.390625 41.078125 11.03125 
Q 45.3125 15.671875 45.3125 23.6875 
L 45.3125 54.6875 
L 54.296875 54.6875 
L 54.296875 0 
L 45.3125 0 
L 45.3125 8.40625 
Q 42.046875 3.421875 37.71875 1 
Q 33.40625 -1.421875 27.6875 -1.421875 
Q 18.265625 -1.421875 13.375 4.4375 
Q 8.5 10.296875 8.5 21.578125 
z
M 31.109375 56 
z
" id="DejaVuSans-117"/>
       <path d="M 48.78125 52.59375 
L 48.78125 44.1875 
Q 44.96875 46.296875 41.140625 47.34375 
Q 37.3125 48.390625 33.40625 48.390625 
Q 24.65625 48.390625 19.8125 42.84375 
Q 14.984375 37.3125 14.984375 27.296875 
Q 14.984375 17.28125 19.8125 11.734375 
Q 24.65625 6.203125 33.40625 6.203125 
Q 37.3125 6.203125 41.140625 7.25 
Q 44.96875 8.296875 48.78125 10.40625 
L 48.78125 2.09375 
Q 45.015625 0.34375 40.984375 -0.53125 
Q 36.96875 -1.421875 32.421875 -1.421875 
Q 20.0625 -1.421875 12.78125 6.34375 
Q 5.515625 14.109375 5.515625 27.296875 
Q 5.515625 40.671875 12.859375 48.328125 
Q 20.21875 56 33.015625 56 
Q 37.15625 56 41.109375 55.140625 
Q 45.0625 54.296875 48.78125 52.59375 
z
" id="DejaVuSans-99"/>
      </defs>
      <use xlink:href="#DejaVuSans-112"/>
      <use x="63.476562" xlink:href="#DejaVuSans-114"/>
      <use x="102.339844" xlink:href="#DejaVuSans-111"/>
      <use x="163.521484" xlink:href="#DejaVuSans-98"/>
      <use x="226.998047" xlink:href="#DejaVuSans-97"/>
      <use x="288.277344" xlink:href="#DejaVuSans-98"/>
      <use x="351.753906" xlink:href="#DejaVuSans-105"/>
      <use x="379.537109" xlink:href="#DejaVuSans-108"/>
      <use x="407.320312" xlink:href="#DejaVuSans-105"/>
      <use x="435.103516" xlink:href="#DejaVuSans-116"/>
      <use x="474.3125" xlink:href="#DejaVuSans-121"/>
      <use x="533.492188" xlink:href="#DejaVuSans-32"/>
      <use x="565.279297" xlink:href="#DejaVuSans-111"/>
      <use x="626.460938" xlink:href="#DejaVuSans-102"/>
      <use x="661.666016" xlink:href="#DejaVuSans-32"/>
      <use x="693.453125" xlink:href="#DejaVuSans-115"/>
      <use x="745.552734" xlink:href="#DejaVuSans-117"/>
      <use x="808.931641" xlink:href="#DejaVuSans-99"/>
      <use x="863.912109" xlink:href="#DejaVuSans-99"/>
      <use x="918.892578" xlink:href="#DejaVuSans-101"/>
      <use x="980.416016" xlink:href="#DejaVuSans-115"/>
      <use x="1032.515625" xlink:href="#DejaVuSans-115"/>
     </g>
    </g>
   </g>
   <g id="line2d_16">
    <path clip-path="url(#p5d175f2d3e)" d="M 138.436364 420.961485 
L 150.610909 420.961485 
L 162.785455 326.053853 
L 174.96 326.053853 
L 187.134545 191.601374 
L 199.309091 191.601374 
L 211.483636 148.102043 
L 223.658182 148.102043 
L 235.832727 162.93136 
L 248.007273 162.93136 
L 260.181818 182.703784 
L 272.356364 182.703784 
L 284.530909 98.053096 
L 296.705455 98.053096 
L 308.88 284.902497 
L 321.054545 284.902497 
L 333.229091 424.838734 
L 345.403636 424.838734 
L 357.578182 483.731206 
L 369.752727 483.731206 
L 381.927273 316.281565 
L 394.101818 316.281565 
L 406.276364 242.425578 
L 418.450909 242.425578 
L 430.625455 113.039541 
L 442.8 113.039541 
L 454.974545 196.123302 
L 467.149091 196.123302 
L 479.323636 172.48591 
L 491.498182 172.48591 
L 503.672727 179.4863 
L 515.847273 179.4863 
L 528.021818 107.440151 
L 540.196364 107.440151 
L 552.370909 411.976738 
L 564.545455 411.976738 
L 576.72 479.564107 
L 588.894545 479.564107 
L 601.069091 443.082542 
L 613.243636 443.082542 
L 625.418182 197.957388 
L 637.592727 197.957388 
L 649.767273 163.495326 
L 661.941818 163.495326 
L 674.116364 156.44693 
L 686.290909 156.44693 
L 698.465455 199.104083 
L 710.64 199.104083 
L 722.814545 140.933499 
L 734.989091 140.933499 
L 747.163636 203.270313 
" style="fill:none;stroke:#4c72b0;stroke-dasharray:11.1,4.8;stroke-dashoffset:0;stroke-width:3;"/>
    <defs>
     <path d="M 0 6 
C 1.591219 6 3.117479 5.367802 4.242641 4.242641 
C 5.367802 3.117479 6 1.591219 6 0 
C 6 -1.591219 5.367802 -3.117479 4.242641 -4.242641 
C 3.117479 -5.367802 1.591219 -6 0 -6 
C -1.591219 -6 -3.117479 -5.367802 -4.242641 -4.242641 
C -5.367802 -3.117479 -6 -1.591219 -6 0 
C -6 1.591219 -5.367802 3.117479 -4.242641 4.242641 
C -3.117479 5.367802 -1.591219 6 0 6 
z
" id="mcc929ae184" style="stroke:#4c72b0;"/>
    </defs>
    <g clip-path="url(#p5d175f2d3e)">
     <use style="fill:#4c72b0;stroke:#4c72b0;" x="138.436364" xlink:href="#mcc929ae184" y="420.961485"/>
     <use style="fill:#4c72b0;stroke:#4c72b0;" x="150.610909" xlink:href="#mcc929ae184" y="420.961485"/>
     <use style="fill:#4c72b0;stroke:#4c72b0;" x="162.785455" xlink:href="#mcc929ae184" y="326.053853"/>
     <use style="fill:#4c72b0;stroke:#4c72b0;" x="174.96" xlink:href="#mcc929ae184" y="326.053853"/>
     <use style="fill:#4c72b0;stroke:#4c72b0;" x="187.134545" xlink:href="#mcc929ae184" y="191.601374"/>
     <use style="fill:#4c72b0;stroke:#4c72b0;" x="199.309091" xlink:href="#mcc929ae184" y="191.601374"/>
     <use style="fill:#4c72b0;stroke:#4c72b0;" x="211.483636" xlink:href="#mcc929ae184" y="148.102043"/>
     <use style="fill:#4c72b0;stroke:#4c72b0;" x="223.658182" xlink:href="#mcc929ae184" y="148.102043"/>
     <use style="fill:#4c72b0;stroke:#4c72b0;" x="235.832727" xlink:href="#mcc929ae184" y="162.93136"/>
     <use style="fill:#4c72b0;stroke:#4c72b0;" x="248.007273" xlink:href="#mcc929ae184" y="162.93136"/>
     <use style="fill:#4c72b0;stroke:#4c72b0;" x="260.181818" xlink:href="#mcc929ae184" y="182.703784"/>
     <use style="fill:#4c72b0;stroke:#4c72b0;" x="272.356364" xlink:href="#mcc929ae184" y="182.703784"/>
     <use style="fill:#4c72b0;stroke:#4c72b0;" x="284.530909" xlink:href="#mcc929ae184" y="98.053096"/>
     <use style="fill:#4c72b0;stroke:#4c72b0;" x="296.705455" xlink:href="#mcc929ae184" y="98.053096"/>
     <use style="fill:#4c72b0;stroke:#4c72b0;" x="308.88" xlink:href="#mcc929ae184" y="284.902497"/>
     <use style="fill:#4c72b0;stroke:#4c72b0;" x="321.054545" xlink:href="#mcc929ae184" y="284.902497"/>
     <use style="fill:#4c72b0;stroke:#4c72b0;" x="333.229091" xlink:href="#mcc929ae184" y="424.838734"/>
     <use style="fill:#4c72b0;stroke:#4c72b0;" x="345.403636" xlink:href="#mcc929ae184" y="424.838734"/>
     <use style="fill:#4c72b0;stroke:#4c72b0;" x="357.578182" xlink:href="#mcc929ae184" y="483.731206"/>
     <use style="fill:#4c72b0;stroke:#4c72b0;" x="369.752727" xlink:href="#mcc929ae184" y="483.731206"/>
     <use style="fill:#4c72b0;stroke:#4c72b0;" x="381.927273" xlink:href="#mcc929ae184" y="316.281565"/>
     <use style="fill:#4c72b0;stroke:#4c72b0;" x="394.101818" xlink:href="#mcc929ae184" y="316.281565"/>
     <use style="fill:#4c72b0;stroke:#4c72b0;" x="406.276364" xlink:href="#mcc929ae184" y="242.425578"/>
     <use style="fill:#4c72b0;stroke:#4c72b0;" x="418.450909" xlink:href="#mcc929ae184" y="242.425578"/>
     <use style="fill:#4c72b0;stroke:#4c72b0;" x="430.625455" xlink:href="#mcc929ae184" y="113.039541"/>
     <use style="fill:#4c72b0;stroke:#4c72b0;" x="442.8" xlink:href="#mcc929ae184" y="113.039541"/>
     <use style="fill:#4c72b0;stroke:#4c72b0;" x="454.974545" xlink:href="#mcc929ae184" y="196.123302"/>
     <use style="fill:#4c72b0;stroke:#4c72b0;" x="467.149091" xlink:href="#mcc929ae184" y="196.123302"/>
     <use style="fill:#4c72b0;stroke:#4c72b0;" x="479.323636" xlink:href="#mcc929ae184" y="172.48591"/>
     <use style="fill:#4c72b0;stroke:#4c72b0;" x="491.498182" xlink:href="#mcc929ae184" y="172.48591"/>
     <use style="fill:#4c72b0;stroke:#4c72b0;" x="503.672727" xlink:href="#mcc929ae184" y="179.4863"/>
     <use style="fill:#4c72b0;stroke:#4c72b0;" x="515.847273" xlink:href="#mcc929ae184" y="179.4863"/>
     <use style="fill:#4c72b0;stroke:#4c72b0;" x="528.021818" xlink:href="#mcc929ae184" y="107.440151"/>
     <use style="fill:#4c72b0;stroke:#4c72b0;" x="540.196364" xlink:href="#mcc929ae184" y="107.440151"/>
     <use style="fill:#4c72b0;stroke:#4c72b0;" x="552.370909" xlink:href="#mcc929ae184" y="411.976738"/>
     <use style="fill:#4c72b0;stroke:#4c72b0;" x="564.545455" xlink:href="#mcc929ae184" y="411.976738"/>
     <use style="fill:#4c72b0;stroke:#4c72b0;" x="576.72" xlink:href="#mcc929ae184" y="479.564107"/>
     <use style="fill:#4c72b0;stroke:#4c72b0;" x="588.894545" xlink:href="#mcc929ae184" y="479.564107"/>
     <use style="fill:#4c72b0;stroke:#4c72b0;" x="601.069091" xlink:href="#mcc929ae184" y="443.082542"/>
     <use style="fill:#4c72b0;stroke:#4c72b0;" x="613.243636" xlink:href="#mcc929ae184" y="443.082542"/>
     <use style="fill:#4c72b0;stroke:#4c72b0;" x="625.418182" xlink:href="#mcc929ae184" y="197.957388"/>
     <use style="fill:#4c72b0;stroke:#4c72b0;" x="637.592727" xlink:href="#mcc929ae184" y="197.957388"/>
     <use style="fill:#4c72b0;stroke:#4c72b0;" x="649.767273" xlink:href="#mcc929ae184" y="163.495326"/>
     <use style="fill:#4c72b0;stroke:#4c72b0;" x="661.941818" xlink:href="#mcc929ae184" y="163.495326"/>
     <use style="fill:#4c72b0;stroke:#4c72b0;" x="674.116364" xlink:href="#mcc929ae184" y="156.44693"/>
     <use style="fill:#4c72b0;stroke:#4c72b0;" x="686.290909" xlink:href="#mcc929ae184" y="156.44693"/>
     <use style="fill:#4c72b0;stroke:#4c72b0;" x="698.465455" xlink:href="#mcc929ae184" y="199.104083"/>
     <use style="fill:#4c72b0;stroke:#4c72b0;" x="710.64" xlink:href="#mcc929ae184" y="199.104083"/>
     <use style="fill:#4c72b0;stroke:#4c72b0;" x="722.814545" xlink:href="#mcc929ae184" y="140.933499"/>
     <use style="fill:#4c72b0;stroke:#4c72b0;" x="734.989091" xlink:href="#mcc929ae184" y="140.933499"/>
     <use style="fill:#4c72b0;stroke:#4c72b0;" x="747.163636" xlink:href="#mcc929ae184" y="203.270313"/>
    </g>
   </g>
   <g id="line2d_17">
    <path clip-path="url(#p5d175f2d3e)" d="M 138.436364 474.575276 
L 139.655037 470.264199 
L 140.87371 465.196866 
L 142.092383 459.396264 
L 143.920393 449.378928 
L 145.748403 437.873902 
L 147.576413 424.998566 
L 150.013759 405.928751 
L 152.451106 385.003476 
L 155.497789 356.818113 
L 159.763145 315.014196 
L 167.075184 243.17942 
L 170.121867 215.490938 
L 172.559214 195.099153 
L 174.99656 176.673377 
L 176.82457 164.346663 
L 178.65258 153.440316 
L 180.48059 144.065606 
L 181.699263 138.714617 
L 182.917936 134.111482 
L 184.136609 130.277084 
L 185.355283 127.228819 
L 186.573956 124.980515 
L 187.183292 124.15968 
L 187.792629 123.542373 
L 188.401966 123.129295 
L 189.011302 122.920916 
L 189.620639 122.91747 
L 190.229975 123.118963 
L 190.839312 123.525166 
L 191.448649 124.135617 
L 192.057985 124.949625 
L 193.276658 127.184385 
L 194.495332 130.219308 
L 195.714005 134.040625 
L 196.932678 138.631002 
L 198.151351 143.969613 
L 199.979361 153.326587 
L 201.807371 164.21636 
L 203.635381 176.527827 
L 205.463391 190.135382 
L 207.900737 210.053237 
L 210.94742 237.288751 
L 214.60344 272.375093 
L 224.962162 373.773983 
L 228.008845 400.684645 
L 230.446192 420.268505 
L 232.274201 433.586209 
L 234.102211 445.577348 
L 235.930221 456.119583 
L 237.758231 465.105356 
L 238.976904 470.185214 
L 240.195577 474.509174 
L 241.414251 478.057619 
L 242.632924 480.814451 
L 243.851597 482.767164 
L 244.460934 483.439064 
L 245.07027 483.9069 
L 245.679607 484.17014 
L 246.288943 484.228487 
L 246.89828 484.081874 
L 247.507617 483.730467 
L 248.116953 483.174665 
L 248.72629 482.415099 
L 249.944963 480.28835 
L 251.163636 477.359869 
L 252.38231 473.64294 
L 253.600983 469.154427 
L 254.819656 463.914692 
L 256.647666 454.699451 
L 258.475676 443.942238 
L 260.303686 431.752802 
L 262.131695 418.255507 
L 264.569042 398.464426 
L 267.615725 371.351702 
L 271.271744 336.355947 
L 282.239803 229.269184 
L 285.286486 202.714994 
L 287.723833 183.492837 
L 289.551843 170.486843 
L 291.379853 158.83857 
L 293.207862 148.666859 
L 295.035872 140.075488 
L 296.254545 135.269851 
L 297.473219 131.227696 
L 298.691892 127.967362 
L 299.910565 125.503639 
L 300.519902 124.574141 
L 301.129238 123.847703 
L 301.738575 123.325147 
L 302.347912 123.007067 
L 302.957248 122.893824 
L 303.566585 122.985546 
L 304.175921 123.282129 
L 304.785258 123.783236 
L 305.394595 124.488299 
L 306.003931 125.396518 
L 307.222604 127.818075 
L 308.441278 131.036919 
L 309.659951 135.03845 
L 310.878624 139.804512 
L 312.097297 145.313485 
L 313.925307 154.914336 
L 315.753317 166.031788 
L 317.581327 178.552412 
L 320.018673 197.206601 
L 322.45602 217.788599 
L 325.502703 245.655949 
L 329.768059 287.237148 
L 337.689435 365.072825 
L 340.736118 392.67778 
L 343.173464 412.981373 
L 345.610811 431.30167 
L 347.438821 443.539068 
L 349.26683 454.348357 
L 351.09484 463.619254 
L 352.313514 468.897805 
L 353.532187 473.426298 
L 354.75086 477.18419 
L 355.969533 480.154431 
L 357.188206 482.323547 
L 357.797543 483.104465 
L 358.40688 483.681698 
L 359.016216 484.054591 
L 359.625553 484.222722 
L 360.234889 484.185899 
L 360.844226 483.944165 
L 361.453563 483.497793 
L 362.062899 482.84729 
L 362.672236 481.993394 
L 363.890909 479.679528 
L 365.109582 476.566691 
L 366.328256 472.669006 
L 367.546929 468.004154 
L 368.765602 462.593299 
L 370.593612 453.132853 
L 372.421622 442.146417 
L 374.249631 429.746081 
L 376.686978 411.233486 
L 379.124324 390.769277 
L 382.171007 363.01248 
L 386.436364 321.512297 
L 394.35774 243.589084 
L 397.404423 215.870548 
L 399.841769 195.446934 
L 402.279115 176.983025 
L 404.107125 164.623987 
L 405.935135 153.682485 
L 407.763145 144.270151 
L 408.981818 138.892894 
L 410.200491 134.262683 
L 411.419165 130.400523 
L 412.637838 127.323936 
L 413.856511 125.046879 
L 414.465848 124.211545 
L 415.075184 123.579682 
L 415.684521 123.152005 
L 416.293857 122.929001 
L 416.903194 122.910922 
L 417.512531 123.097788 
L 418.121867 123.489388 
L 418.731204 124.085277 
L 419.340541 124.88478 
L 420.559214 127.090768 
L 421.777887 130.097343 
L 422.99656 133.890866 
L 424.215233 138.454128 
L 425.433907 143.766426 
L 427.261916 153.085695 
L 429.089926 163.940221 
L 430.917936 176.219259 
L 432.745946 189.797533 
L 435.183292 209.681755 
L 438.229975 236.884755 
L 441.885995 271.947231 
L 452.244717 373.373454 
L 455.2914 400.318005 
L 457.728747 419.936501 
L 460.166093 437.445635 
L 461.994103 449.000694 
L 463.822113 459.071922 
L 465.650123 467.556567 
L 466.868796 472.288119 
L 468.087469 476.254233 
L 469.306143 479.436915 
L 470.524816 481.821728 
L 471.134152 482.711409 
L 471.743489 483.397852 
L 472.352826 483.880276 
L 472.962162 484.158136 
L 473.571499 484.231116 
L 474.180835 484.099133 
L 474.790172 483.762337 
L 475.399509 483.221109 
L 476.008845 482.476065 
L 477.227518 480.378135 
L 478.446192 477.478066 
L 479.664865 473.789014 
L 480.883538 469.327714 
L 482.102211 464.114406 
L 483.930221 454.937071 
L 485.758231 444.215339 
L 487.586241 432.058598 
L 489.414251 418.590878 
L 491.851597 398.833861 
L 494.288943 377.349984 
L 497.335627 348.662404 
L 502.819656 294.377941 
L 507.694349 246.67386 
L 510.741032 218.734938 
L 513.178378 198.076279 
L 515.615725 179.329665 
L 517.443735 166.730374 
L 519.271744 155.52713 
L 521.099754 145.834233 
L 522.318428 140.260885 
L 523.537101 135.428377 
L 524.755774 131.358632 
L 525.974447 128.070113 
L 527.19312 125.577739 
L 528.411794 123.892816 
L 529.02113 123.355682 
L 529.630467 123.022989 
L 530.239803 122.895115 
L 530.84914 122.972204 
L 531.458477 123.254169 
L 532.067813 123.740691 
L 532.67715 124.431217 
L 533.286486 125.324963 
L 534.50516 127.717834 
L 535.723833 130.908448 
L 536.942506 134.88233 
L 538.161179 139.621453 
L 539.379853 145.104316 
L 541.207862 154.667819 
L 543.035872 165.750437 
L 544.863882 178.239098 
L 547.301229 196.855694 
L 549.738575 217.406459 
L 552.785258 245.244563 
L 557.050614 286.804498 
L 564.97199 364.664127 
L 568.018673 392.299577 
L 570.45602 412.635323 
L 572.893366 430.994045 
L 574.721376 443.263964 
L 576.549386 454.10858 
L 578.377396 463.417251 
L 579.596069 468.722154 
L 580.814742 473.277796 
L 582.033415 477.06351 
L 583.252088 480.062121 
L 584.470762 482.260026 
L 585.080098 483.055454 
L 585.689435 483.647254 
L 586.298771 484.034752 
L 586.908108 484.217511 
L 587.517445 484.195322 
L 588.126781 483.968211 
L 588.736118 483.536435 
L 589.345455 482.900484 
L 589.954791 482.06108 
L 591.173464 479.77595 
L 592.392138 476.691413 
L 593.610811 472.821461 
L 594.829484 468.183651 
L 596.048157 462.799023 
L 597.876167 453.376132 
L 599.704177 442.42477 
L 601.532187 430.056667 
L 603.969533 411.582067 
L 606.40688 391.149536 
L 609.453563 363.422588 
L 613.718919 321.944571 
L 621.640295 243.999096 
L 624.686978 216.250665 
L 627.124324 195.79534 
L 629.561671 177.293405 
L 631.389681 164.902113 
L 633.21769 153.925521 
L 635.0457 144.475616 
L 636.264373 139.072123 
L 637.483047 134.414863 
L 638.70172 130.524963 
L 639.920393 127.420072 
L 641.139066 125.114275 
L 641.748403 124.264448 
L 642.35774 123.618032 
L 642.967076 123.175759 
L 643.576413 122.938131 
L 644.185749 122.905418 
L 644.795086 123.077656 
L 645.404423 123.454652 
L 646.013759 124.035976 
L 646.623096 124.820969 
L 647.841769 126.998171 
L 649.060442 129.976381 
L 650.279115 133.742088 
L 651.497789 138.278208 
L 652.716462 143.564163 
L 654.544472 152.845674 
L 656.372482 163.66489 
L 658.200491 175.911428 
L 660.028501 189.460341 
L 662.465848 209.310815 
L 665.512531 236.481146 
L 669.16855 271.519552 
L 680.136609 378.55068 
L 683.183292 405.042359 
L 685.620639 424.201558 
L 687.448649 437.153511 
L 689.276658 448.742505 
L 691.104668 458.850301 
L 692.932678 467.373774 
L 694.151351 472.132274 
L 695.370025 476.126042 
L 696.588698 479.33696 
L 697.807371 481.750462 
L 698.416708 482.654618 
L 699.026044 483.355599 
L 699.635381 483.85261 
L 700.244717 484.145088 
L 700.854054 484.2327 
L 701.463391 484.115348 
L 702.072727 483.793164 
L 702.682064 483.266514 
L 703.2914 482.535996 
L 704.510074 480.466898 
L 705.728747 477.595258 
L 706.94742 473.934103 
L 708.166093 469.500042 
L 709.384767 464.313192 
L 711.212776 455.173815 
L 713.040786 444.487626 
L 714.868796 432.36365 
L 716.696806 418.925583 
L 719.134152 399.202745 
L 721.571499 377.74636 
L 724.618182 349.082994 
L 730.102211 294.811881 
L 734.976904 247.086398 
L 738.023587 219.118791 
L 740.460934 198.429312 
L 742.89828 179.64548 
L 744.72629 167.014479 
L 746.5543 155.776624 
L 747.163636 152.360511 
L 747.163636 152.360511 
" style="fill:none;stroke:#dd8452;stroke-linecap:round;stroke-width:3;"/>
   </g>
   <g id="line2d_18">
    <path clip-path="url(#p5d175f2d3e)" d="M 138.436364 476.397039 
L 140.264373 473.388506 
L 142.092383 469.908021 
L 143.920393 465.964374 
L 145.748403 461.56753 
L 148.185749 455.019453 
L 150.623096 447.714967 
L 153.060442 439.686868 
L 155.497789 430.971204 
L 158.544472 419.169634 
L 161.591155 406.437885 
L 165.247174 390.058112 
L 168.903194 372.633196 
L 173.16855 351.218431 
L 178.65258 322.422329 
L 188.401966 269.649367 
L 195.714005 230.656915 
L 200.588698 205.819299 
L 204.854054 185.259962 
L 208.510074 168.735283 
L 211.556757 155.866848 
L 214.60344 143.915128 
L 217.650123 132.963956 
L 220.087469 124.975283 
L 222.524816 117.712138 
L 224.962162 111.207132 
L 226.790172 106.84361 
L 228.618182 102.934067 
L 230.446192 99.488379 
L 232.274201 96.515249 
L 234.102211 94.022189 
L 235.930221 92.015496 
L 237.148894 90.950459 
L 238.367568 90.105059 
L 239.586241 89.480246 
L 240.804914 89.076721 
L 242.023587 88.894938 
L 243.24226 88.9351 
L 244.460934 89.197163 
L 245.679607 89.680832 
L 246.89828 90.385564 
L 248.116953 91.310568 
L 249.335627 92.454805 
L 251.163636 94.579345 
L 252.991646 97.188845 
L 254.819656 100.276712 
L 256.647666 103.835147 
L 258.475676 107.855161 
L 260.303686 112.326598 
L 262.741032 118.971045 
L 265.178378 126.367979 
L 267.615725 134.484188 
L 270.053071 143.283229 
L 273.099754 155.181795 
L 276.146437 168.001881 
L 279.802457 184.475359 
L 283.458477 201.979677 
L 287.723833 223.467935 
L 293.207862 252.326733 
L 313.315971 359.673175 
L 317.581327 380.661907 
L 321.237346 397.633586 
L 324.893366 413.483623 
L 327.940049 425.719328 
L 330.986732 436.978912 
L 333.424079 445.230453 
L 335.861425 452.769538 
L 338.298771 459.562315 
L 340.736118 465.578284 
L 342.564128 469.564096 
L 344.392138 473.087617 
L 346.220147 476.139944 
L 348.048157 478.713369 
L 349.876167 480.80139 
L 351.09484 481.921079 
L 352.313514 482.821406 
L 353.532187 483.501361 
L 354.75086 483.960179 
L 355.969533 484.197345 
L 357.188206 484.212594 
L 358.40688 484.005907 
L 359.625553 483.577518 
L 360.844226 482.927906 
L 362.062899 482.057802 
L 363.281572 480.968183 
L 364.500246 479.660271 
L 366.328256 477.292385 
L 368.156265 474.442685 
L 369.984275 471.118369 
L 371.812285 467.327835 
L 373.640295 463.080659 
L 376.077641 456.72613 
L 378.514988 449.607528 
L 380.952334 441.756815 
L 383.389681 433.209243 
L 386.436364 421.603573 
L 389.483047 409.050651 
L 393.139066 392.861179 
L 396.795086 375.598256 
L 401.060442 354.334544 
L 406.544472 325.669516 
L 415.075184 279.561556 
L 423.605897 233.836834 
L 428.48059 208.849255 
L 432.745946 188.113993 
L 436.401966 171.407203 
L 439.448649 158.366312 
L 442.495332 146.224604 
L 445.542015 135.067244 
L 447.979361 126.902925 
L 450.416708 119.455478 
L 452.854054 112.758344 
L 455.2914 106.841594 
L 457.11941 102.932274 
L 458.94742 99.486814 
L 460.77543 96.513917 
L 462.60344 94.021092 
L 464.43145 92.014637 
L 465.650123 90.94976 
L 466.868796 90.104521 
L 468.087469 89.47987 
L 469.306143 89.076507 
L 470.524816 88.894886 
L 471.743489 88.935211 
L 472.962162 89.197435 
L 474.180835 89.681266 
L 475.399509 90.38616 
L 476.618182 91.311324 
L 477.836855 92.455721 
L 479.664865 94.580499 
L 481.492875 97.190233 
L 483.320885 100.278332 
L 485.148894 103.836994 
L 486.976904 107.857231 
L 488.804914 112.328885 
L 491.24226 118.973613 
L 493.679607 126.370816 
L 496.116953 134.487282 
L 498.5543 143.286565 
L 501.600983 155.185413 
L 504.647666 168.005756 
L 508.303686 184.479506 
L 511.959705 201.984053 
L 516.225061 223.472524 
L 521.709091 252.331502 
L 541.817199 359.677673 
L 546.082555 380.666165 
L 549.738575 397.637591 
L 553.394595 413.487335 
L 556.441278 425.722767 
L 559.487961 436.982053 
L 561.925307 445.233341 
L 564.362654 452.772159 
L 566.8 459.564658 
L 569.237346 465.580338 
L 571.065356 469.565927 
L 572.893366 473.089219 
L 574.721376 476.141315 
L 576.549386 478.714505 
L 578.377396 480.802288 
L 579.596069 481.921817 
L 580.814742 482.821984 
L 582.033415 483.501777 
L 583.252088 483.960433 
L 584.470762 484.197437 
L 585.689435 484.212524 
L 586.908108 484.005675 
L 588.126781 483.577124 
L 589.345455 482.927351 
L 590.564128 482.057086 
L 591.782801 480.967306 
L 593.001474 479.659235 
L 594.829484 477.291113 
L 596.657494 474.44118 
L 598.485504 471.116635 
L 600.313514 467.325876 
L 602.141523 463.078479 
L 604.57887 456.723666 
L 607.016216 449.60479 
L 609.453563 441.753816 
L 611.890909 433.205997 
L 614.937592 421.600037 
L 617.984275 409.046851 
L 621.640295 392.857096 
L 625.296314 375.593933 
L 629.561671 354.329996 
L 635.0457 325.664769 
L 643.576413 279.556717 
L 652.107125 233.832168 
L 656.981818 208.844803 
L 661.247174 188.109795 
L 664.903194 171.403268 
L 667.949877 158.362626 
L 670.99656 146.221194 
L 674.043243 135.064133 
L 676.48059 126.90007 
L 678.917936 119.452892 
L 681.355283 112.756038 
L 683.792629 106.839578 
L 685.620639 102.930482 
L 687.448649 99.48525 
L 689.276658 96.512585 
L 691.104668 94.019996 
L 692.932678 92.013779 
L 694.151351 90.949062 
L 695.370025 90.103984 
L 696.588698 89.479494 
L 697.807371 89.076293 
L 699.026044 88.894835 
L 700.244717 88.935321 
L 701.463391 89.197708 
L 702.682064 89.681701 
L 703.900737 90.386755 
L 705.11941 91.312081 
L 706.338084 92.456637 
L 708.166093 94.581653 
L 709.994103 97.191622 
L 711.822113 100.279952 
L 713.650123 103.838842 
L 715.478133 107.859301 
L 717.306143 112.331172 
L 719.743489 118.97618 
L 722.180835 126.373653 
L 724.618182 134.490375 
L 727.055528 143.289901 
L 730.102211 155.189031 
L 733.148894 168.00963 
L 736.804914 184.483652 
L 740.460934 201.98843 
L 744.72629 223.477113 
L 747.163636 236.164996 
L 747.163636 236.164996 
" style="fill:none;stroke:#55a868;stroke-linecap:round;stroke-width:3;"/>
   </g>
   <g id="patch_3">
    <path d="M 108 504 
L 108 69.12 
" style="fill:none;stroke:#262626;stroke-linecap:square;stroke-linejoin:miter;stroke-width:2.5;"/>
   </g>
   <g id="patch_4">
    <path d="M 777.6 504 
L 777.6 69.12 
" style="fill:none;stroke:#262626;stroke-linecap:square;stroke-linejoin:miter;stroke-width:2.5;"/>
   </g>
   <g id="patch_5">
    <path d="M 108 504 
L 777.6 504 
" style="fill:none;stroke:#262626;stroke-linecap:square;stroke-linejoin:miter;stroke-width:2.5;"/>
   </g>
   <g id="patch_6">
    <path d="M 108 69.12 
L 777.6 69.12 
" style="fill:none;stroke:#262626;stroke-linecap:square;stroke-linejoin:miter;stroke-width:2.5;"/>
   </g>
   <g id="legend_1">
    <g id="patch_7">
     <path d="M 470.115625 338.297813 
L 762.2 338.297813 
Q 766.6 338.297813 766.6 333.897812 
L 766.6 239.222188 
Q 766.6 234.822188 762.2 234.822188 
L 470.115625 234.822188 
Q 465.715625 234.822188 465.715625 239.222188 
L 465.715625 333.897812 
Q 465.715625 338.297813 470.115625 338.297813 
z
" style="fill:#ffffff;opacity:0.8;stroke:#cccccc;stroke-linejoin:miter;stroke-width:2;"/>
    </g>
    <g id="line2d_19">
     <path d="M 474.515625 252.63875 
L 518.515625 252.63875 
" style="fill:none;stroke:#4c72b0;stroke-dasharray:11.1,4.8;stroke-dashoffset:0;stroke-width:3;"/>
    </g>
    <g id="line2d_20">
     <g>
      <use style="fill:#4c72b0;stroke:#4c72b0;" x="496.515625" xlink:href="#mcc929ae184" y="252.63875"/>
     </g>
    </g>
    <g id="text_18">
     <!-- search -->
     <g style="fill:#262626;" transform="translate(536.115625 260.33875)scale(0.22 -0.22)">
      <defs>
       <path d="M 54.890625 33.015625 
L 54.890625 0 
L 45.90625 0 
L 45.90625 32.71875 
Q 45.90625 40.484375 42.875 44.328125 
Q 39.84375 48.1875 33.796875 48.1875 
Q 26.515625 48.1875 22.3125 43.546875 
Q 18.109375 38.921875 18.109375 30.90625 
L 18.109375 0 
L 9.078125 0 
L 9.078125 75.984375 
L 18.109375 75.984375 
L 18.109375 46.1875 
Q 21.34375 51.125 25.703125 53.5625 
Q 30.078125 56 35.796875 56 
Q 45.21875 56 50.046875 50.171875 
Q 54.890625 44.34375 54.890625 33.015625 
z
" id="DejaVuSans-104"/>
      </defs>
      <use xlink:href="#DejaVuSans-115"/>
      <use x="52.099609" xlink:href="#DejaVuSans-101"/>
      <use x="113.623047" xlink:href="#DejaVuSans-97"/>
      <use x="174.902344" xlink:href="#DejaVuSans-114"/>
      <use x="213.765625" xlink:href="#DejaVuSans-99"/>
      <use x="268.746094" xlink:href="#DejaVuSans-104"/>
     </g>
    </g>
    <g id="line2d_21">
     <path d="M 474.515625 284.930625 
L 518.515625 284.930625 
" style="fill:none;stroke:#dd8452;stroke-linecap:round;stroke-width:3;"/>
    </g>
    <g id="line2d_22"/>
    <g id="text_19">
     <!-- predicted frequency -->
     <g style="fill:#262626;" transform="translate(536.115625 292.630625)scale(0.22 -0.22)">
      <defs>
       <path d="M 45.40625 46.390625 
L 45.40625 75.984375 
L 54.390625 75.984375 
L 54.390625 0 
L 45.40625 0 
L 45.40625 8.203125 
Q 42.578125 3.328125 38.25 0.953125 
Q 33.9375 -1.421875 27.875 -1.421875 
Q 17.96875 -1.421875 11.734375 6.484375 
Q 5.515625 14.40625 5.515625 27.296875 
Q 5.515625 40.1875 11.734375 48.09375 
Q 17.96875 56 27.875 56 
Q 33.9375 56 38.25 53.625 
Q 42.578125 51.265625 45.40625 46.390625 
z
M 14.796875 27.296875 
Q 14.796875 17.390625 18.875 11.75 
Q 22.953125 6.109375 30.078125 6.109375 
Q 37.203125 6.109375 41.296875 11.75 
Q 45.40625 17.390625 45.40625 27.296875 
Q 45.40625 37.203125 41.296875 42.84375 
Q 37.203125 48.484375 30.078125 48.484375 
Q 22.953125 48.484375 18.875 42.84375 
Q 14.796875 37.203125 14.796875 27.296875 
z
" id="DejaVuSans-100"/>
       <path d="M 14.796875 27.296875 
Q 14.796875 17.390625 18.875 11.75 
Q 22.953125 6.109375 30.078125 6.109375 
Q 37.203125 6.109375 41.296875 11.75 
Q 45.40625 17.390625 45.40625 27.296875 
Q 45.40625 37.203125 41.296875 42.84375 
Q 37.203125 48.484375 30.078125 48.484375 
Q 22.953125 48.484375 18.875 42.84375 
Q 14.796875 37.203125 14.796875 27.296875 
z
M 45.40625 8.203125 
Q 42.578125 3.328125 38.25 0.953125 
Q 33.9375 -1.421875 27.875 -1.421875 
Q 17.96875 -1.421875 11.734375 6.484375 
Q 5.515625 14.40625 5.515625 27.296875 
Q 5.515625 40.1875 11.734375 48.09375 
Q 17.96875 56 27.875 56 
Q 33.9375 56 38.25 53.625 
Q 42.578125 51.265625 45.40625 46.390625 
L 45.40625 54.6875 
L 54.390625 54.6875 
L 54.390625 -20.796875 
L 45.40625 -20.796875 
z
" id="DejaVuSans-113"/>
       <path d="M 54.890625 33.015625 
L 54.890625 0 
L 45.90625 0 
L 45.90625 32.71875 
Q 45.90625 40.484375 42.875 44.328125 
Q 39.84375 48.1875 33.796875 48.1875 
Q 26.515625 48.1875 22.3125 43.546875 
Q 18.109375 38.921875 18.109375 30.90625 
L 18.109375 0 
L 9.078125 0 
L 9.078125 54.6875 
L 18.109375 54.6875 
L 18.109375 46.1875 
Q 21.34375 51.125 25.703125 53.5625 
Q 30.078125 56 35.796875 56 
Q 45.21875 56 50.046875 50.171875 
Q 54.890625 44.34375 54.890625 33.015625 
z
" id="DejaVuSans-110"/>
      </defs>
      <use xlink:href="#DejaVuSans-112"/>
      <use x="63.476562" xlink:href="#DejaVuSans-114"/>
      <use x="102.339844" xlink:href="#DejaVuSans-101"/>
      <use x="163.863281" xlink:href="#DejaVuSans-100"/>
      <use x="227.339844" xlink:href="#DejaVuSans-105"/>
      <use x="255.123047" xlink:href="#DejaVuSans-99"/>
      <use x="310.103516" xlink:href="#DejaVuSans-116"/>
      <use x="349.3125" xlink:href="#DejaVuSans-101"/>
      <use x="410.835938" xlink:href="#DejaVuSans-100"/>
      <use x="474.3125" xlink:href="#DejaVuSans-32"/>
      <use x="506.099609" xlink:href="#DejaVuSans-102"/>
      <use x="541.304688" xlink:href="#DejaVuSans-114"/>
      <use x="580.167969" xlink:href="#DejaVuSans-101"/>
      <use x="641.691406" xlink:href="#DejaVuSans-113"/>
      <use x="705.167969" xlink:href="#DejaVuSans-117"/>
      <use x="768.546875" xlink:href="#DejaVuSans-101"/>
      <use x="830.070312" xlink:href="#DejaVuSans-110"/>
      <use x="893.449219" xlink:href="#DejaVuSans-99"/>
      <use x="948.429688" xlink:href="#DejaVuSans-121"/>
     </g>
    </g>
    <g id="line2d_23">
     <path d="M 474.515625 317.2225 
L 518.515625 317.2225 
" style="fill:none;stroke:#55a868;stroke-linecap:round;stroke-width:3;"/>
    </g>
    <g id="line2d_24"/>
    <g id="text_20">
     <!-- fit -->
     <g style="fill:#262626;" transform="translate(536.115625 324.9225)scale(0.22 -0.22)">
      <use xlink:href="#DejaVuSans-102"/>
      <use x="35.205078" xlink:href="#DejaVuSans-105"/>
      <use x="62.988281" xlink:href="#DejaVuSans-116"/>
     </g>
    </g>
   </g>
  </g>
 </g>
 <defs>
  <clipPath id="p5d175f2d3e">
   <rect height="434.88" width="669.6" x="108" y="69.12"/>
  </clipPath>
 </defs>
</svg>
