<?xml version="1.0" encoding="utf-8" standalone="no"?>
<!DOCTYPE svg PUBLIC "-//W3C//DTD SVG 1.1//EN"
  "http://www.w3.org/Graphics/SVG/1.1/DTD/svg11.dtd">
<!-- Created with matplotlib (https://matplotlib.org/) -->
<svg height="576pt" version="1.1" viewBox="0 0 864 576" width="864pt" xmlns="http://www.w3.org/2000/svg" xmlns:xlink="http://www.w3.org/1999/xlink">
 <metadata>
  <rdf:RDF xmlns:cc="http://creativecommons.org/ns#" xmlns:dc="http://purl.org/dc/elements/1.1/" xmlns:rdf="http://www.w3.org/1999/02/22-rdf-syntax-ns#">
   <cc:Work>
    <dc:type rdf:resource="http://purl.org/dc/dcmitype/StillImage"/>
    <dc:date>2022-01-30T19:32:44.555741</dc:date>
    <dc:format>image/svg+xml</dc:format>
    <dc:creator>
     <cc:Agent>
      <dc:title>Matplotlib v3.3.2, https://matplotlib.org/</dc:title>
     </cc:Agent>
    </dc:creator>
   </cc:Work>
  </rdf:RDF>
 </metadata>
 <defs>
  <style type="text/css">*{stroke-linecap:butt;stroke-linejoin:round;}</style>
 </defs>
 <g id="figure_1">
  <g id="patch_1">
   <path d="M 0 576 
L 864 576 
L 864 0 
L 0 0 
z
" style="fill:#ffffff;"/>
  </g>
  <g id="axes_1">
   <g id="patch_2">
    <path d="M 108 504 
L 777.6 504 
L 777.6 69.12 
L 108 69.12 
z
" style="fill:#ffffff;"/>
   </g>
   <g id="matplotlib.axis_1">
    <g id="xtick_1">
     <g id="line2d_1">
      <defs>
       <path d="M 0 0 
L 0 12 
" id="md5ec376026" style="stroke:#262626;stroke-width:2.5;"/>
      </defs>
      <g>
       <use style="fill:#262626;stroke:#262626;stroke-width:2.5;" x="138.436364" xlink:href="#md5ec376026" y="504"/>
      </g>
     </g>
     <g id="text_1">
      <!-- 0 -->
      <g style="fill:#262626;" transform="translate(131.437614 536.216563)scale(0.22 -0.22)">
       <defs>
        <path d="M 31.78125 66.40625 
Q 24.171875 66.40625 20.328125 58.90625 
Q 16.5 51.421875 16.5 36.375 
Q 16.5 21.390625 20.328125 13.890625 
Q 24.171875 6.390625 31.78125 6.390625 
Q 39.453125 6.390625 43.28125 13.890625 
Q 47.125 21.390625 47.125 36.375 
Q 47.125 51.421875 43.28125 58.90625 
Q 39.453125 66.40625 31.78125 66.40625 
z
M 31.78125 74.21875 
Q 44.046875 74.21875 50.515625 64.515625 
Q 56.984375 54.828125 56.984375 36.375 
Q 56.984375 17.96875 50.515625 8.265625 
Q 44.046875 -1.421875 31.78125 -1.421875 
Q 19.53125 -1.421875 13.0625 8.265625 
Q 6.59375 17.96875 6.59375 36.375 
Q 6.59375 54.828125 13.0625 64.515625 
Q 19.53125 74.21875 31.78125 74.21875 
z
" id="DejaVuSans-48"/>
       </defs>
       <use xlink:href="#DejaVuSans-48"/>
      </g>
     </g>
    </g>
    <g id="xtick_2">
     <g id="line2d_2">
      <g>
       <use style="fill:#262626;stroke:#262626;stroke-width:2.5;" x="260.181818" xlink:href="#md5ec376026" y="504"/>
      </g>
     </g>
     <g id="text_2">
      <!-- 10 -->
      <g style="fill:#262626;" transform="translate(246.184318 536.216563)scale(0.22 -0.22)">
       <defs>
        <path d="M 12.40625 8.296875 
L 28.515625 8.296875 
L 28.515625 63.921875 
L 10.984375 60.40625 
L 10.984375 69.390625 
L 28.421875 72.90625 
L 38.28125 72.90625 
L 38.28125 8.296875 
L 54.390625 8.296875 
L 54.390625 0 
L 12.40625 0 
z
" id="DejaVuSans-49"/>
       </defs>
       <use xlink:href="#DejaVuSans-49"/>
       <use x="63.623047" xlink:href="#DejaVuSans-48"/>
      </g>
     </g>
    </g>
    <g id="xtick_3">
     <g id="line2d_3">
      <g>
       <use style="fill:#262626;stroke:#262626;stroke-width:2.5;" x="381.927273" xlink:href="#md5ec376026" y="504"/>
      </g>
     </g>
     <g id="text_3">
      <!-- 20 -->
      <g style="fill:#262626;" transform="translate(367.929773 536.216563)scale(0.22 -0.22)">
       <defs>
        <path d="M 19.1875 8.296875 
L 53.609375 8.296875 
L 53.609375 0 
L 7.328125 0 
L 7.328125 8.296875 
Q 12.9375 14.109375 22.625 23.890625 
Q 32.328125 33.6875 34.8125 36.53125 
Q 39.546875 41.84375 41.421875 45.53125 
Q 43.3125 49.21875 43.3125 52.78125 
Q 43.3125 58.59375 39.234375 62.25 
Q 35.15625 65.921875 28.609375 65.921875 
Q 23.96875 65.921875 18.8125 64.3125 
Q 13.671875 62.703125 7.8125 59.421875 
L 7.8125 69.390625 
Q 13.765625 71.78125 18.9375 73 
Q 24.125 74.21875 28.421875 74.21875 
Q 39.75 74.21875 46.484375 68.546875 
Q 53.21875 62.890625 53.21875 53.421875 
Q 53.21875 48.921875 51.53125 44.890625 
Q 49.859375 40.875 45.40625 35.40625 
Q 44.1875 33.984375 37.640625 27.21875 
Q 31.109375 20.453125 19.1875 8.296875 
z
" id="DejaVuSans-50"/>
       </defs>
       <use xlink:href="#DejaVuSans-50"/>
       <use x="63.623047" xlink:href="#DejaVuSans-48"/>
      </g>
     </g>
    </g>
    <g id="xtick_4">
     <g id="line2d_4">
      <g>
       <use style="fill:#262626;stroke:#262626;stroke-width:2.5;" x="503.672727" xlink:href="#md5ec376026" y="504"/>
      </g>
     </g>
     <g id="text_4">
      <!-- 30 -->
      <g style="fill:#262626;" transform="translate(489.675227 536.216563)scale(0.22 -0.22)">
       <defs>
        <path d="M 40.578125 39.3125 
Q 47.65625 37.796875 51.625 33 
Q 55.609375 28.21875 55.609375 21.1875 
Q 55.609375 10.40625 48.1875 4.484375 
Q 40.765625 -1.421875 27.09375 -1.421875 
Q 22.515625 -1.421875 17.65625 -0.515625 
Q 12.796875 0.390625 7.625 2.203125 
L 7.625 11.71875 
Q 11.71875 9.328125 16.59375 8.109375 
Q 21.484375 6.890625 26.8125 6.890625 
Q 36.078125 6.890625 40.9375 10.546875 
Q 45.796875 14.203125 45.796875 21.1875 
Q 45.796875 27.640625 41.28125 31.265625 
Q 36.765625 34.90625 28.71875 34.90625 
L 20.21875 34.90625 
L 20.21875 43.015625 
L 29.109375 43.015625 
Q 36.375 43.015625 40.234375 45.921875 
Q 44.09375 48.828125 44.09375 54.296875 
Q 44.09375 59.90625 40.109375 62.90625 
Q 36.140625 65.921875 28.71875 65.921875 
Q 24.65625 65.921875 20.015625 65.03125 
Q 15.375 64.15625 9.8125 62.3125 
L 9.8125 71.09375 
Q 15.4375 72.65625 20.34375 73.4375 
Q 25.25 74.21875 29.59375 74.21875 
Q 40.828125 74.21875 47.359375 69.109375 
Q 53.90625 64.015625 53.90625 55.328125 
Q 53.90625 49.265625 50.4375 45.09375 
Q 46.96875 40.921875 40.578125 39.3125 
z
" id="DejaVuSans-51"/>
       </defs>
       <use xlink:href="#DejaVuSans-51"/>
       <use x="63.623047" xlink:href="#DejaVuSans-48"/>
      </g>
     </g>
    </g>
    <g id="xtick_5">
     <g id="line2d_5">
      <g>
       <use style="fill:#262626;stroke:#262626;stroke-width:2.5;" x="625.418182" xlink:href="#md5ec376026" y="504"/>
      </g>
     </g>
     <g id="text_5">
      <!-- 40 -->
      <g style="fill:#262626;" transform="translate(611.420682 536.216563)scale(0.22 -0.22)">
       <defs>
        <path d="M 37.796875 64.3125 
L 12.890625 25.390625 
L 37.796875 25.390625 
z
M 35.203125 72.90625 
L 47.609375 72.90625 
L 47.609375 25.390625 
L 58.015625 25.390625 
L 58.015625 17.1875 
L 47.609375 17.1875 
L 47.609375 0 
L 37.796875 0 
L 37.796875 17.1875 
L 4.890625 17.1875 
L 4.890625 26.703125 
z
" id="DejaVuSans-52"/>
       </defs>
       <use xlink:href="#DejaVuSans-52"/>
       <use x="63.623047" xlink:href="#DejaVuSans-48"/>
      </g>
     </g>
    </g>
    <g id="xtick_6">
     <g id="line2d_6">
      <g>
       <use style="fill:#262626;stroke:#262626;stroke-width:2.5;" x="747.163636" xlink:href="#md5ec376026" y="504"/>
      </g>
     </g>
     <g id="text_6">
      <!-- 50 -->
      <g style="fill:#262626;" transform="translate(733.166136 536.216563)scale(0.22 -0.22)">
       <defs>
        <path d="M 10.796875 72.90625 
L 49.515625 72.90625 
L 49.515625 64.59375 
L 19.828125 64.59375 
L 19.828125 46.734375 
Q 21.96875 47.46875 24.109375 47.828125 
Q 26.265625 48.1875 28.421875 48.1875 
Q 40.625 48.1875 47.75 41.5 
Q 54.890625 34.8125 54.890625 23.390625 
Q 54.890625 11.625 47.5625 5.09375 
Q 40.234375 -1.421875 26.90625 -1.421875 
Q 22.3125 -1.421875 17.546875 -0.640625 
Q 12.796875 0.140625 7.71875 1.703125 
L 7.71875 11.625 
Q 12.109375 9.234375 16.796875 8.0625 
Q 21.484375 6.890625 26.703125 6.890625 
Q 35.15625 6.890625 40.078125 11.328125 
Q 45.015625 15.765625 45.015625 23.390625 
Q 45.015625 31 40.078125 35.4375 
Q 35.15625 39.890625 26.703125 39.890625 
Q 22.75 39.890625 18.8125 39.015625 
Q 14.890625 38.140625 10.796875 36.28125 
z
" id="DejaVuSans-53"/>
       </defs>
       <use xlink:href="#DejaVuSans-53"/>
       <use x="63.623047" xlink:href="#DejaVuSans-48"/>
      </g>
     </g>
    </g>
    <g id="text_7">
     <!-- steps -->
     <g style="fill:#262626;" transform="translate(410.59125 563.028125)scale(0.24 -0.24)">
      <defs>
       <path d="M 44.28125 53.078125 
L 44.28125 44.578125 
Q 40.484375 46.53125 36.375 47.5 
Q 32.28125 48.484375 27.875 48.484375 
Q 21.1875 48.484375 17.84375 46.4375 
Q 14.5 44.390625 14.5 40.28125 
Q 14.5 37.15625 16.890625 35.375 
Q 19.28125 33.59375 26.515625 31.984375 
L 29.59375 31.296875 
Q 39.15625 29.25 43.1875 25.515625 
Q 47.21875 21.78125 47.21875 15.09375 
Q 47.21875 7.46875 41.1875 3.015625 
Q 35.15625 -1.421875 24.609375 -1.421875 
Q 20.21875 -1.421875 15.453125 -0.5625 
Q 10.6875 0.296875 5.421875 2 
L 5.421875 11.28125 
Q 10.40625 8.6875 15.234375 7.390625 
Q 20.0625 6.109375 24.8125 6.109375 
Q 31.15625 6.109375 34.5625 8.28125 
Q 37.984375 10.453125 37.984375 14.40625 
Q 37.984375 18.0625 35.515625 20.015625 
Q 33.0625 21.96875 24.703125 23.78125 
L 21.578125 24.515625 
Q 13.234375 26.265625 9.515625 29.90625 
Q 5.8125 33.546875 5.8125 39.890625 
Q 5.8125 47.609375 11.28125 51.796875 
Q 16.75 56 26.8125 56 
Q 31.78125 56 36.171875 55.265625 
Q 40.578125 54.546875 44.28125 53.078125 
z
" id="DejaVuSans-115"/>
       <path d="M 18.3125 70.21875 
L 18.3125 54.6875 
L 36.8125 54.6875 
L 36.8125 47.703125 
L 18.3125 47.703125 
L 18.3125 18.015625 
Q 18.3125 11.328125 20.140625 9.421875 
Q 21.96875 7.515625 27.59375 7.515625 
L 36.8125 7.515625 
L 36.8125 0 
L 27.59375 0 
Q 17.1875 0 13.234375 3.875 
Q 9.28125 7.765625 9.28125 18.015625 
L 9.28125 47.703125 
L 2.6875 47.703125 
L 2.6875 54.6875 
L 9.28125 54.6875 
L 9.28125 70.21875 
z
" id="DejaVuSans-116"/>
       <path d="M 56.203125 29.59375 
L 56.203125 25.203125 
L 14.890625 25.203125 
Q 15.484375 15.921875 20.484375 11.0625 
Q 25.484375 6.203125 34.421875 6.203125 
Q 39.59375 6.203125 44.453125 7.46875 
Q 49.3125 8.734375 54.109375 11.28125 
L 54.109375 2.78125 
Q 49.265625 0.734375 44.1875 -0.34375 
Q 39.109375 -1.421875 33.890625 -1.421875 
Q 20.796875 -1.421875 13.15625 6.1875 
Q 5.515625 13.8125 5.515625 26.8125 
Q 5.515625 40.234375 12.765625 48.109375 
Q 20.015625 56 32.328125 56 
Q 43.359375 56 49.78125 48.890625 
Q 56.203125 41.796875 56.203125 29.59375 
z
M 47.21875 32.234375 
Q 47.125 39.59375 43.09375 43.984375 
Q 39.0625 48.390625 32.421875 48.390625 
Q 24.90625 48.390625 20.390625 44.140625 
Q 15.875 39.890625 15.1875 32.171875 
z
" id="DejaVuSans-101"/>
       <path d="M 18.109375 8.203125 
L 18.109375 -20.796875 
L 9.078125 -20.796875 
L 9.078125 54.6875 
L 18.109375 54.6875 
L 18.109375 46.390625 
Q 20.953125 51.265625 25.265625 53.625 
Q 29.59375 56 35.59375 56 
Q 45.5625 56 51.78125 48.09375 
Q 58.015625 40.1875 58.015625 27.296875 
Q 58.015625 14.40625 51.78125 6.484375 
Q 45.5625 -1.421875 35.59375 -1.421875 
Q 29.59375 -1.421875 25.265625 0.953125 
Q 20.953125 3.328125 18.109375 8.203125 
z
M 48.6875 27.296875 
Q 48.6875 37.203125 44.609375 42.84375 
Q 40.53125 48.484375 33.40625 48.484375 
Q 26.265625 48.484375 22.1875 42.84375 
Q 18.109375 37.203125 18.109375 27.296875 
Q 18.109375 17.390625 22.1875 11.75 
Q 26.265625 6.109375 33.40625 6.109375 
Q 40.53125 6.109375 44.609375 11.75 
Q 48.6875 17.390625 48.6875 27.296875 
z
" id="DejaVuSans-112"/>
      </defs>
      <use xlink:href="#DejaVuSans-115"/>
      <use x="52.099609" xlink:href="#DejaVuSans-116"/>
      <use x="91.308594" xlink:href="#DejaVuSans-101"/>
      <use x="152.832031" xlink:href="#DejaVuSans-112"/>
      <use x="216.308594" xlink:href="#DejaVuSans-115"/>
     </g>
    </g>
   </g>
   <g id="matplotlib.axis_2">
    <g id="ytick_1">
     <g id="line2d_7">
      <defs>
       <path d="M 0 0 
L -12 0 
" id="mc8ead80ac6" style="stroke:#262626;stroke-width:2.5;"/>
      </defs>
      <g>
       <use style="fill:#262626;stroke:#262626;stroke-width:2.5;" x="108" xlink:href="#mc8ead80ac6" y="484.233687"/>
      </g>
     </g>
     <g id="text_8">
      <!-- 0.00 -->
      <g style="fill:#262626;" transform="translate(43.515625 492.591968)scale(0.22 -0.22)">
       <defs>
        <path d="M 10.6875 12.40625 
L 21 12.40625 
L 21 0 
L 10.6875 0 
z
" id="DejaVuSans-46"/>
       </defs>
       <use xlink:href="#DejaVuSans-48"/>
       <use x="63.623047" xlink:href="#DejaVuSans-46"/>
       <use x="95.410156" xlink:href="#DejaVuSans-48"/>
       <use x="159.033203" xlink:href="#DejaVuSans-48"/>
      </g>
     </g>
    </g>
    <g id="ytick_2">
     <g id="line2d_8">
      <g>
       <use style="fill:#262626;stroke:#262626;stroke-width:2.5;" x="108" xlink:href="#mc8ead80ac6" y="388.263444"/>
      </g>
     </g>
     <g id="text_9">
      <!-- 0.02 -->
      <g style="fill:#262626;" transform="translate(43.515625 396.621725)scale(0.22 -0.22)">
       <use xlink:href="#DejaVuSans-48"/>
       <use x="63.623047" xlink:href="#DejaVuSans-46"/>
       <use x="95.410156" xlink:href="#DejaVuSans-48"/>
       <use x="159.033203" xlink:href="#DejaVuSans-50"/>
      </g>
     </g>
    </g>
    <g id="ytick_3">
     <g id="line2d_9">
      <g>
       <use style="fill:#262626;stroke:#262626;stroke-width:2.5;" x="108" xlink:href="#mc8ead80ac6" y="292.293201"/>
      </g>
     </g>
     <g id="text_10">
      <!-- 0.04 -->
      <g style="fill:#262626;" transform="translate(43.515625 300.651482)scale(0.22 -0.22)">
       <use xlink:href="#DejaVuSans-48"/>
       <use x="63.623047" xlink:href="#DejaVuSans-46"/>
       <use x="95.410156" xlink:href="#DejaVuSans-48"/>
       <use x="159.033203" xlink:href="#DejaVuSans-52"/>
      </g>
     </g>
    </g>
    <g id="ytick_4">
     <g id="line2d_10">
      <g>
       <use style="fill:#262626;stroke:#262626;stroke-width:2.5;" x="108" xlink:href="#mc8ead80ac6" y="196.322958"/>
      </g>
     </g>
     <g id="text_11">
      <!-- 0.06 -->
      <g style="fill:#262626;" transform="translate(43.515625 204.681239)scale(0.22 -0.22)">
       <defs>
        <path d="M 33.015625 40.375 
Q 26.375 40.375 22.484375 35.828125 
Q 18.609375 31.296875 18.609375 23.390625 
Q 18.609375 15.53125 22.484375 10.953125 
Q 26.375 6.390625 33.015625 6.390625 
Q 39.65625 6.390625 43.53125 10.953125 
Q 47.40625 15.53125 47.40625 23.390625 
Q 47.40625 31.296875 43.53125 35.828125 
Q 39.65625 40.375 33.015625 40.375 
z
M 52.59375 71.296875 
L 52.59375 62.3125 
Q 48.875 64.0625 45.09375 64.984375 
Q 41.3125 65.921875 37.59375 65.921875 
Q 27.828125 65.921875 22.671875 59.328125 
Q 17.53125 52.734375 16.796875 39.40625 
Q 19.671875 43.65625 24.015625 45.921875 
Q 28.375 48.1875 33.59375 48.1875 
Q 44.578125 48.1875 50.953125 41.515625 
Q 57.328125 34.859375 57.328125 23.390625 
Q 57.328125 12.15625 50.6875 5.359375 
Q 44.046875 -1.421875 33.015625 -1.421875 
Q 20.359375 -1.421875 13.671875 8.265625 
Q 6.984375 17.96875 6.984375 36.375 
Q 6.984375 53.65625 15.1875 63.9375 
Q 23.390625 74.21875 37.203125 74.21875 
Q 40.921875 74.21875 44.703125 73.484375 
Q 48.484375 72.75 52.59375 71.296875 
z
" id="DejaVuSans-54"/>
       </defs>
       <use xlink:href="#DejaVuSans-48"/>
       <use x="63.623047" xlink:href="#DejaVuSans-46"/>
       <use x="95.410156" xlink:href="#DejaVuSans-48"/>
       <use x="159.033203" xlink:href="#DejaVuSans-54"/>
      </g>
     </g>
    </g>
    <g id="ytick_5">
     <g id="line2d_11">
      <g>
       <use style="fill:#262626;stroke:#262626;stroke-width:2.5;" x="108" xlink:href="#mc8ead80ac6" y="100.352715"/>
      </g>
     </g>
     <g id="text_12">
      <!-- 0.08 -->
      <g style="fill:#262626;" transform="translate(43.515625 108.710996)scale(0.22 -0.22)">
       <defs>
        <path d="M 31.78125 34.625 
Q 24.75 34.625 20.71875 30.859375 
Q 16.703125 27.09375 16.703125 20.515625 
Q 16.703125 13.921875 20.71875 10.15625 
Q 24.75 6.390625 31.78125 6.390625 
Q 38.8125 6.390625 42.859375 10.171875 
Q 46.921875 13.96875 46.921875 20.515625 
Q 46.921875 27.09375 42.890625 30.859375 
Q 38.875 34.625 31.78125 34.625 
z
M 21.921875 38.8125 
Q 15.578125 40.375 12.03125 44.71875 
Q 8.5 49.078125 8.5 55.328125 
Q 8.5 64.0625 14.71875 69.140625 
Q 20.953125 74.21875 31.78125 74.21875 
Q 42.671875 74.21875 48.875 69.140625 
Q 55.078125 64.0625 55.078125 55.328125 
Q 55.078125 49.078125 51.53125 44.71875 
Q 48 40.375 41.703125 38.8125 
Q 48.828125 37.15625 52.796875 32.3125 
Q 56.78125 27.484375 56.78125 20.515625 
Q 56.78125 9.90625 50.3125 4.234375 
Q 43.84375 -1.421875 31.78125 -1.421875 
Q 19.734375 -1.421875 13.25 4.234375 
Q 6.78125 9.90625 6.78125 20.515625 
Q 6.78125 27.484375 10.78125 32.3125 
Q 14.796875 37.15625 21.921875 38.8125 
z
M 18.3125 54.390625 
Q 18.3125 48.734375 21.84375 45.5625 
Q 25.390625 42.390625 31.78125 42.390625 
Q 38.140625 42.390625 41.71875 45.5625 
Q 45.3125 48.734375 45.3125 54.390625 
Q 45.3125 60.0625 41.71875 63.234375 
Q 38.140625 66.40625 31.78125 66.40625 
Q 25.390625 66.40625 21.84375 63.234375 
Q 18.3125 60.0625 18.3125 54.390625 
z
" id="DejaVuSans-56"/>
       </defs>
       <use xlink:href="#DejaVuSans-48"/>
       <use x="63.623047" xlink:href="#DejaVuSans-46"/>
       <use x="95.410156" xlink:href="#DejaVuSans-48"/>
       <use x="159.033203" xlink:href="#DejaVuSans-56"/>
      </g>
     </g>
    </g>
    <g id="text_13">
     <!-- probability of success -->
     <g style="fill:#262626;" transform="translate(34.524375 416.715)rotate(-90)scale(0.24 -0.24)">
      <defs>
       <path d="M 41.109375 46.296875 
Q 39.59375 47.171875 37.8125 47.578125 
Q 36.03125 48 33.890625 48 
Q 26.265625 48 22.1875 43.046875 
Q 18.109375 38.09375 18.109375 28.8125 
L 18.109375 0 
L 9.078125 0 
L 9.078125 54.6875 
L 18.109375 54.6875 
L 18.109375 46.1875 
Q 20.953125 51.171875 25.484375 53.578125 
Q 30.03125 56 36.53125 56 
Q 37.453125 56 38.578125 55.875 
Q 39.703125 55.765625 41.0625 55.515625 
z
" id="DejaVuSans-114"/>
       <path d="M 30.609375 48.390625 
Q 23.390625 48.390625 19.1875 42.75 
Q 14.984375 37.109375 14.984375 27.296875 
Q 14.984375 17.484375 19.15625 11.84375 
Q 23.34375 6.203125 30.609375 6.203125 
Q 37.796875 6.203125 41.984375 11.859375 
Q 46.1875 17.53125 46.1875 27.296875 
Q 46.1875 37.015625 41.984375 42.703125 
Q 37.796875 48.390625 30.609375 48.390625 
z
M 30.609375 56 
Q 42.328125 56 49.015625 48.375 
Q 55.71875 40.765625 55.71875 27.296875 
Q 55.71875 13.875 49.015625 6.21875 
Q 42.328125 -1.421875 30.609375 -1.421875 
Q 18.84375 -1.421875 12.171875 6.21875 
Q 5.515625 13.875 5.515625 27.296875 
Q 5.515625 40.765625 12.171875 48.375 
Q 18.84375 56 30.609375 56 
z
" id="DejaVuSans-111"/>
       <path d="M 48.6875 27.296875 
Q 48.6875 37.203125 44.609375 42.84375 
Q 40.53125 48.484375 33.40625 48.484375 
Q 26.265625 48.484375 22.1875 42.84375 
Q 18.109375 37.203125 18.109375 27.296875 
Q 18.109375 17.390625 22.1875 11.75 
Q 26.265625 6.109375 33.40625 6.109375 
Q 40.53125 6.109375 44.609375 11.75 
Q 48.6875 17.390625 48.6875 27.296875 
z
M 18.109375 46.390625 
Q 20.953125 51.265625 25.265625 53.625 
Q 29.59375 56 35.59375 56 
Q 45.5625 56 51.78125 48.09375 
Q 58.015625 40.1875 58.015625 27.296875 
Q 58.015625 14.40625 51.78125 6.484375 
Q 45.5625 -1.421875 35.59375 -1.421875 
Q 29.59375 -1.421875 25.265625 0.953125 
Q 20.953125 3.328125 18.109375 8.203125 
L 18.109375 0 
L 9.078125 0 
L 9.078125 75.984375 
L 18.109375 75.984375 
z
" id="DejaVuSans-98"/>
       <path d="M 34.28125 27.484375 
Q 23.390625 27.484375 19.1875 25 
Q 14.984375 22.515625 14.984375 16.5 
Q 14.984375 11.71875 18.140625 8.90625 
Q 21.296875 6.109375 26.703125 6.109375 
Q 34.1875 6.109375 38.703125 11.40625 
Q 43.21875 16.703125 43.21875 25.484375 
L 43.21875 27.484375 
z
M 52.203125 31.203125 
L 52.203125 0 
L 43.21875 0 
L 43.21875 8.296875 
Q 40.140625 3.328125 35.546875 0.953125 
Q 30.953125 -1.421875 24.3125 -1.421875 
Q 15.921875 -1.421875 10.953125 3.296875 
Q 6 8.015625 6 15.921875 
Q 6 25.140625 12.171875 29.828125 
Q 18.359375 34.515625 30.609375 34.515625 
L 43.21875 34.515625 
L 43.21875 35.40625 
Q 43.21875 41.609375 39.140625 45 
Q 35.0625 48.390625 27.6875 48.390625 
Q 23 48.390625 18.546875 47.265625 
Q 14.109375 46.140625 10.015625 43.890625 
L 10.015625 52.203125 
Q 14.9375 54.109375 19.578125 55.046875 
Q 24.21875 56 28.609375 56 
Q 40.484375 56 46.34375 49.84375 
Q 52.203125 43.703125 52.203125 31.203125 
z
" id="DejaVuSans-97"/>
       <path d="M 9.421875 54.6875 
L 18.40625 54.6875 
L 18.40625 0 
L 9.421875 0 
z
M 9.421875 75.984375 
L 18.40625 75.984375 
L 18.40625 64.59375 
L 9.421875 64.59375 
z
" id="DejaVuSans-105"/>
       <path d="M 9.421875 75.984375 
L 18.40625 75.984375 
L 18.40625 0 
L 9.421875 0 
z
" id="DejaVuSans-108"/>
       <path d="M 32.171875 -5.078125 
Q 28.375 -14.84375 24.75 -17.8125 
Q 21.140625 -20.796875 15.09375 -20.796875 
L 7.90625 -20.796875 
L 7.90625 -13.28125 
L 13.1875 -13.28125 
Q 16.890625 -13.28125 18.9375 -11.515625 
Q 21 -9.765625 23.484375 -3.21875 
L 25.09375 0.875 
L 2.984375 54.6875 
L 12.5 54.6875 
L 29.59375 11.921875 
L 46.6875 54.6875 
L 56.203125 54.6875 
z
" id="DejaVuSans-121"/>
       <path id="DejaVuSans-32"/>
       <path d="M 37.109375 75.984375 
L 37.109375 68.5 
L 28.515625 68.5 
Q 23.6875 68.5 21.796875 66.546875 
Q 19.921875 64.59375 19.921875 59.515625 
L 19.921875 54.6875 
L 34.71875 54.6875 
L 34.71875 47.703125 
L 19.921875 47.703125 
L 19.921875 0 
L 10.890625 0 
L 10.890625 47.703125 
L 2.296875 47.703125 
L 2.296875 54.6875 
L 10.890625 54.6875 
L 10.890625 58.5 
Q 10.890625 67.625 15.140625 71.796875 
Q 19.390625 75.984375 28.609375 75.984375 
z
" id="DejaVuSans-102"/>
       <path d="M 8.5 21.578125 
L 8.5 54.6875 
L 17.484375 54.6875 
L 17.484375 21.921875 
Q 17.484375 14.15625 20.5 10.265625 
Q 23.53125 6.390625 29.59375 6.390625 
Q 36.859375 6.390625 41.078125 11.03125 
Q 45.3125 15.671875 45.3125 23.6875 
L 45.3125 54.6875 
L 54.296875 54.6875 
L 54.296875 0 
L 45.3125 0 
L 45.3125 8.40625 
Q 42.046875 3.421875 37.71875 1 
Q 33.40625 -1.421875 27.6875 -1.421875 
Q 18.265625 -1.421875 13.375 4.4375 
Q 8.5 10.296875 8.5 21.578125 
z
M 31.109375 56 
z
" id="DejaVuSans-117"/>
       <path d="M 48.78125 52.59375 
L 48.78125 44.1875 
Q 44.96875 46.296875 41.140625 47.34375 
Q 37.3125 48.390625 33.40625 48.390625 
Q 24.65625 48.390625 19.8125 42.84375 
Q 14.984375 37.3125 14.984375 27.296875 
Q 14.984375 17.28125 19.8125 11.734375 
Q 24.65625 6.203125 33.40625 6.203125 
Q 37.3125 6.203125 41.140625 7.25 
Q 44.96875 8.296875 48.78125 10.40625 
L 48.78125 2.09375 
Q 45.015625 0.34375 40.984375 -0.53125 
Q 36.96875 -1.421875 32.421875 -1.421875 
Q 20.0625 -1.421875 12.78125 6.34375 
Q 5.515625 14.109375 5.515625 27.296875 
Q 5.515625 40.671875 12.859375 48.328125 
Q 20.21875 56 33.015625 56 
Q 37.15625 56 41.109375 55.140625 
Q 45.0625 54.296875 48.78125 52.59375 
z
" id="DejaVuSans-99"/>
      </defs>
      <use xlink:href="#DejaVuSans-112"/>
      <use x="63.476562" xlink:href="#DejaVuSans-114"/>
      <use x="102.339844" xlink:href="#DejaVuSans-111"/>
      <use x="163.521484" xlink:href="#DejaVuSans-98"/>
      <use x="226.998047" xlink:href="#DejaVuSans-97"/>
      <use x="288.277344" xlink:href="#DejaVuSans-98"/>
      <use x="351.753906" xlink:href="#DejaVuSans-105"/>
      <use x="379.537109" xlink:href="#DejaVuSans-108"/>
      <use x="407.320312" xlink:href="#DejaVuSans-105"/>
      <use x="435.103516" xlink:href="#DejaVuSans-116"/>
      <use x="474.3125" xlink:href="#DejaVuSans-121"/>
      <use x="533.492188" xlink:href="#DejaVuSans-32"/>
      <use x="565.279297" xlink:href="#DejaVuSans-111"/>
      <use x="626.460938" xlink:href="#DejaVuSans-102"/>
      <use x="661.666016" xlink:href="#DejaVuSans-32"/>
      <use x="693.453125" xlink:href="#DejaVuSans-115"/>
      <use x="745.552734" xlink:href="#DejaVuSans-117"/>
      <use x="808.931641" xlink:href="#DejaVuSans-99"/>
      <use x="863.912109" xlink:href="#DejaVuSans-99"/>
      <use x="918.892578" xlink:href="#DejaVuSans-101"/>
      <use x="980.416016" xlink:href="#DejaVuSans-115"/>
      <use x="1032.515625" xlink:href="#DejaVuSans-115"/>
     </g>
    </g>
   </g>
   <g id="line2d_12">
    <path clip-path="url(#p18838692a7)" d="M 138.436364 184.326677 
L 150.610909 184.326677 
L 162.785455 184.326677 
L 174.96 184.326677 
L 187.134545 184.326677 
L 199.309091 184.326677 
L 211.483636 184.326677 
L 223.658182 184.326677 
L 235.832727 184.326677 
L 248.007273 184.326677 
L 260.181818 184.326677 
L 272.356364 184.326677 
L 284.530909 184.326677 
L 296.705455 184.326677 
L 308.88 184.326677 
L 321.054545 184.326677 
L 333.229091 184.326677 
L 345.403636 184.326677 
L 357.578182 184.326677 
L 369.752727 184.326677 
L 381.927273 184.326677 
L 394.101818 184.326677 
L 406.276364 184.326677 
L 418.450909 184.326677 
L 430.625455 184.326677 
L 442.8 184.326677 
L 454.974545 184.326677 
L 467.149091 184.326677 
L 479.323636 184.326677 
L 491.498182 184.326677 
L 503.672727 184.326677 
L 515.847273 184.326677 
L 528.021818 184.326677 
L 540.196364 184.326677 
L 552.370909 184.326677 
L 564.545455 184.326677 
L 576.72 184.326677 
L 588.894545 184.326677 
L 601.069091 184.326677 
L 613.243636 184.326677 
L 625.418182 184.326677 
L 637.592727 184.326677 
L 649.767273 184.326677 
L 661.941818 184.326677 
L 674.116364 184.326677 
L 686.290909 184.326677 
L 698.465455 184.326677 
L 710.64 184.326677 
L 722.814545 184.326677 
L 734.989091 184.326677 
L 747.163636 184.326677 
" style="fill:none;stroke:#4c72b0;stroke-dasharray:11.1,4.8;stroke-dashoffset:0;stroke-width:3;"/>
    <defs>
     <path d="M 0 6 
C 1.591219 6 3.117479 5.367802 4.242641 4.242641 
C 5.367802 3.117479 6 1.591219 6 0 
C 6 -1.591219 5.367802 -3.117479 4.242641 -4.242641 
C 3.117479 -5.367802 1.591219 -6 0 -6 
C -1.591219 -6 -3.117479 -5.367802 -4.242641 -4.242641 
C -5.367802 -3.117479 -6 -1.591219 -6 0 
C -6 1.591219 -5.367802 3.117479 -4.242641 4.242641 
C -3.117479 5.367802 -1.591219 6 0 6 
z
" id="m053fe4c08f" style="stroke:#4c72b0;"/>
    </defs>
    <g clip-path="url(#p18838692a7)">
     <use style="fill:#4c72b0;stroke:#4c72b0;" x="138.436364" xlink:href="#m053fe4c08f" y="184.326677"/>
     <use style="fill:#4c72b0;stroke:#4c72b0;" x="150.610909" xlink:href="#m053fe4c08f" y="184.326677"/>
     <use style="fill:#4c72b0;stroke:#4c72b0;" x="162.785455" xlink:href="#m053fe4c08f" y="184.326677"/>
     <use style="fill:#4c72b0;stroke:#4c72b0;" x="174.96" xlink:href="#m053fe4c08f" y="184.326677"/>
     <use style="fill:#4c72b0;stroke:#4c72b0;" x="187.134545" xlink:href="#m053fe4c08f" y="184.326677"/>
     <use style="fill:#4c72b0;stroke:#4c72b0;" x="199.309091" xlink:href="#m053fe4c08f" y="184.326677"/>
     <use style="fill:#4c72b0;stroke:#4c72b0;" x="211.483636" xlink:href="#m053fe4c08f" y="184.326677"/>
     <use style="fill:#4c72b0;stroke:#4c72b0;" x="223.658182" xlink:href="#m053fe4c08f" y="184.326677"/>
     <use style="fill:#4c72b0;stroke:#4c72b0;" x="235.832727" xlink:href="#m053fe4c08f" y="184.326677"/>
     <use style="fill:#4c72b0;stroke:#4c72b0;" x="248.007273" xlink:href="#m053fe4c08f" y="184.326677"/>
     <use style="fill:#4c72b0;stroke:#4c72b0;" x="260.181818" xlink:href="#m053fe4c08f" y="184.326677"/>
     <use style="fill:#4c72b0;stroke:#4c72b0;" x="272.356364" xlink:href="#m053fe4c08f" y="184.326677"/>
     <use style="fill:#4c72b0;stroke:#4c72b0;" x="284.530909" xlink:href="#m053fe4c08f" y="184.326677"/>
     <use style="fill:#4c72b0;stroke:#4c72b0;" x="296.705455" xlink:href="#m053fe4c08f" y="184.326677"/>
     <use style="fill:#4c72b0;stroke:#4c72b0;" x="308.88" xlink:href="#m053fe4c08f" y="184.326677"/>
     <use style="fill:#4c72b0;stroke:#4c72b0;" x="321.054545" xlink:href="#m053fe4c08f" y="184.326677"/>
     <use style="fill:#4c72b0;stroke:#4c72b0;" x="333.229091" xlink:href="#m053fe4c08f" y="184.326677"/>
     <use style="fill:#4c72b0;stroke:#4c72b0;" x="345.403636" xlink:href="#m053fe4c08f" y="184.326677"/>
     <use style="fill:#4c72b0;stroke:#4c72b0;" x="357.578182" xlink:href="#m053fe4c08f" y="184.326677"/>
     <use style="fill:#4c72b0;stroke:#4c72b0;" x="369.752727" xlink:href="#m053fe4c08f" y="184.326677"/>
     <use style="fill:#4c72b0;stroke:#4c72b0;" x="381.927273" xlink:href="#m053fe4c08f" y="184.326677"/>
     <use style="fill:#4c72b0;stroke:#4c72b0;" x="394.101818" xlink:href="#m053fe4c08f" y="184.326677"/>
     <use style="fill:#4c72b0;stroke:#4c72b0;" x="406.276364" xlink:href="#m053fe4c08f" y="184.326677"/>
     <use style="fill:#4c72b0;stroke:#4c72b0;" x="418.450909" xlink:href="#m053fe4c08f" y="184.326677"/>
     <use style="fill:#4c72b0;stroke:#4c72b0;" x="430.625455" xlink:href="#m053fe4c08f" y="184.326677"/>
     <use style="fill:#4c72b0;stroke:#4c72b0;" x="442.8" xlink:href="#m053fe4c08f" y="184.326677"/>
     <use style="fill:#4c72b0;stroke:#4c72b0;" x="454.974545" xlink:href="#m053fe4c08f" y="184.326677"/>
     <use style="fill:#4c72b0;stroke:#4c72b0;" x="467.149091" xlink:href="#m053fe4c08f" y="184.326677"/>
     <use style="fill:#4c72b0;stroke:#4c72b0;" x="479.323636" xlink:href="#m053fe4c08f" y="184.326677"/>
     <use style="fill:#4c72b0;stroke:#4c72b0;" x="491.498182" xlink:href="#m053fe4c08f" y="184.326677"/>
     <use style="fill:#4c72b0;stroke:#4c72b0;" x="503.672727" xlink:href="#m053fe4c08f" y="184.326677"/>
     <use style="fill:#4c72b0;stroke:#4c72b0;" x="515.847273" xlink:href="#m053fe4c08f" y="184.326677"/>
     <use style="fill:#4c72b0;stroke:#4c72b0;" x="528.021818" xlink:href="#m053fe4c08f" y="184.326677"/>
     <use style="fill:#4c72b0;stroke:#4c72b0;" x="540.196364" xlink:href="#m053fe4c08f" y="184.326677"/>
     <use style="fill:#4c72b0;stroke:#4c72b0;" x="552.370909" xlink:href="#m053fe4c08f" y="184.326677"/>
     <use style="fill:#4c72b0;stroke:#4c72b0;" x="564.545455" xlink:href="#m053fe4c08f" y="184.326677"/>
     <use style="fill:#4c72b0;stroke:#4c72b0;" x="576.72" xlink:href="#m053fe4c08f" y="184.326677"/>
     <use style="fill:#4c72b0;stroke:#4c72b0;" x="588.894545" xlink:href="#m053fe4c08f" y="184.326677"/>
     <use style="fill:#4c72b0;stroke:#4c72b0;" x="601.069091" xlink:href="#m053fe4c08f" y="184.326677"/>
     <use style="fill:#4c72b0;stroke:#4c72b0;" x="613.243636" xlink:href="#m053fe4c08f" y="184.326677"/>
     <use style="fill:#4c72b0;stroke:#4c72b0;" x="625.418182" xlink:href="#m053fe4c08f" y="184.326677"/>
     <use style="fill:#4c72b0;stroke:#4c72b0;" x="637.592727" xlink:href="#m053fe4c08f" y="184.326677"/>
     <use style="fill:#4c72b0;stroke:#4c72b0;" x="649.767273" xlink:href="#m053fe4c08f" y="184.326677"/>
     <use style="fill:#4c72b0;stroke:#4c72b0;" x="661.941818" xlink:href="#m053fe4c08f" y="184.326677"/>
     <use style="fill:#4c72b0;stroke:#4c72b0;" x="674.116364" xlink:href="#m053fe4c08f" y="184.326677"/>
     <use style="fill:#4c72b0;stroke:#4c72b0;" x="686.290909" xlink:href="#m053fe4c08f" y="184.326677"/>
     <use style="fill:#4c72b0;stroke:#4c72b0;" x="698.465455" xlink:href="#m053fe4c08f" y="184.326677"/>
     <use style="fill:#4c72b0;stroke:#4c72b0;" x="710.64" xlink:href="#m053fe4c08f" y="184.326677"/>
     <use style="fill:#4c72b0;stroke:#4c72b0;" x="722.814545" xlink:href="#m053fe4c08f" y="184.326677"/>
     <use style="fill:#4c72b0;stroke:#4c72b0;" x="734.989091" xlink:href="#m053fe4c08f" y="184.326677"/>
     <use style="fill:#4c72b0;stroke:#4c72b0;" x="747.163636" xlink:href="#m053fe4c08f" y="184.326677"/>
    </g>
   </g>
   <g id="line2d_13">
    <path clip-path="url(#p18838692a7)" d="M 138.436364 226.023478 
L 141.483047 196.407017 
L 143.920393 174.385075 
L 146.35774 154.252235 
L 148.185749 140.597649 
L 150.013759 128.326597 
L 151.841769 117.555393 
L 153.669779 108.386134 
L 154.888452 103.206834 
L 156.107125 98.800296 
L 157.325799 95.185091 
L 158.544472 92.376456 
L 159.763145 90.386229 
L 160.372482 89.700776 
L 160.981818 89.222798 
L 161.591155 88.952799 
L 162.200491 88.891065 
L 162.809828 89.03766 
L 163.419165 89.392429 
L 164.028501 89.954999 
L 164.637838 90.724777 
L 165.856511 92.882494 
L 167.075184 95.856485 
L 168.293857 99.634217 
L 169.512531 104.199768 
L 170.731204 109.533895 
L 172.559214 118.926128 
L 174.387224 129.907312 
L 176.215233 142.373362 
L 178.043243 156.206113 
L 180.48059 176.547432 
L 182.917936 198.741436 
L 185.964619 228.517415 
L 190.229975 272.58414 
L 197.542015 348.521423 
L 200.588698 378.044131 
L 203.026044 399.96573 
L 205.463391 419.977506 
L 207.2914 433.528911 
L 209.11941 445.687245 
L 210.94742 456.337263 
L 212.77543 465.378016 
L 213.994103 470.468178 
L 215.212776 474.783241 
L 216.43145 478.305018 
L 217.650123 481.018667 
L 218.868796 482.912751 
L 219.478133 483.549825 
L 220.087469 483.979287 
L 220.696806 484.200683 
L 221.306143 484.21378 
L 221.915479 484.018564 
L 222.524816 483.615242 
L 223.134152 483.004237 
L 223.743489 482.186195 
L 224.962162 479.932662 
L 226.180835 476.864141 
L 227.399509 472.993565 
L 228.618182 468.337246 
L 229.836855 462.914809 
L 231.664865 453.395534 
L 233.492875 442.294878 
L 235.320885 429.718061 
L 237.148894 415.784296 
L 239.586241 395.325105 
L 242.023587 373.034243 
L 245.07027 343.169195 
L 249.944963 292.631191 
L 256.647666 223.178095 
L 259.694349 193.750835 
L 262.131695 171.930839 
L 264.569042 152.041276 
L 266.397052 138.59383 
L 268.225061 126.548913 
L 270.053071 116.020693 
L 271.881081 107.108965 
L 273.099754 102.108234 
L 274.318428 97.884895 
L 275.537101 94.456747 
L 276.755774 91.838239 
L 277.974447 90.040407 
L 278.583784 89.451748 
L 279.19312 89.070828 
L 279.802457 88.898047 
L 280.411794 88.933588 
L 281.02113 89.177413 
L 281.630467 89.629266 
L 282.239803 90.28867 
L 282.84914 91.15493 
L 284.067813 93.504149 
L 285.286486 96.667023 
L 286.50516 100.630222 
L 287.723833 105.377041 
L 288.942506 110.887476 
L 290.770516 120.533247 
L 292.598526 131.752736 
L 294.426536 144.439598 
L 296.254545 158.473578 
L 298.691892 179.049466 
L 301.129238 201.435904 
L 304.175921 231.388307 
L 309.050614 281.9869 
L 315.14398 345.263532 
L 318.190663 374.997832 
L 320.62801 397.146711 
L 323.065356 417.433243 
L 324.893366 431.219114 
L 326.721376 443.633807 
L 328.549386 454.559649 
L 330.377396 463.893075 
L 331.596069 469.186349 
L 332.814742 473.709926 
L 334.033415 477.444741 
L 335.252088 480.375054 
L 336.470762 482.488514 
L 337.080098 483.236005 
L 337.689435 483.776214 
L 338.298771 484.108572 
L 338.908108 484.232727 
L 339.517445 484.14855 
L 340.126781 483.856129 
L 340.736118 483.355773 
L 341.345455 482.648007 
L 341.954791 481.73358 
L 343.173464 479.288809 
L 344.392138 476.031763 
L 345.610811 471.97617 
L 346.829484 467.139123 
L 348.048157 461.541007 
L 349.876167 451.769294 
L 351.704177 440.431616 
L 353.532187 427.635437 
L 355.360197 413.50205 
L 357.797543 392.810647 
L 360.844226 364.473946 
L 364.500246 327.835391 
L 376.686978 202.549131 
L 379.733661 174.735085 
L 382.171007 154.568131 
L 383.999017 140.884434 
L 385.827027 128.581552 
L 387.655037 117.776102 
L 389.483047 108.570504 
L 390.70172 103.365986 
L 391.920393 98.933559 
L 393.139066 95.291903 
L 394.35774 92.456368 
L 395.576413 90.438903 
L 396.185749 89.73974 
L 396.795086 89.248011 
L 397.404423 88.964236 
L 398.013759 88.888712 
L 398.623096 89.021521 
L 399.232432 89.36252 
L 399.841769 89.911353 
L 400.451106 90.667438 
L 401.669779 92.797967 
L 402.888452 95.745126 
L 404.107125 99.496495 
L 405.325799 104.036263 
L 406.544472 109.345297 
L 407.763145 115.401222 
L 409.591155 125.828862 
L 411.419165 137.780025 
L 413.247174 151.14143 
L 415.684521 170.929669 
L 418.121867 192.665202 
L 421.16855 222.012731 
L 425.433907 265.768622 
L 433.964619 354.182898 
L 437.011302 383.313694 
L 439.448649 404.821385 
L 441.885995 424.337482 
L 443.714005 437.468438 
L 445.542015 449.168981 
L 447.370025 459.328206 
L 449.198034 467.849816 
L 450.416708 472.580553 
L 451.635381 476.527287 
L 452.854054 479.673386 
L 454.072727 482.00559 
L 454.682064 482.863274 
L 455.2914 483.514068 
L 455.900737 483.957288 
L 456.510074 484.192465 
L 457.11941 484.219352 
L 457.728747 484.03792 
L 458.338084 483.648361 
L 458.94742 483.051085 
L 459.556757 482.246722 
L 460.77543 480.020342 
L 461.994103 476.978604 
L 463.212776 473.134329 
L 464.43145 468.503717 
L 465.650123 463.106286 
L 467.478133 453.622975 
L 469.306143 442.556127 
L 471.134152 430.010642 
L 472.962162 416.105434 
L 475.399509 395.679544 
L 477.836855 373.416013 
L 480.883538 343.576043 
L 485.758231 293.055747 
L 492.460934 223.580584 
L 495.507617 194.12609 
L 497.944963 172.27716 
L 500.38231 152.352831 
L 502.210319 138.875833 
L 504.038329 126.798689 
L 505.866339 116.235875 
L 507.694349 107.287514 
L 508.913022 102.261398 
L 510.131695 98.012029 
L 511.350369 94.557315 
L 512.569042 91.911817 
L 513.787715 90.086685 
L 514.397052 89.484296 
L 515.006388 89.089611 
L 515.615725 88.903046 
L 516.225061 88.924797 
L 516.834398 89.154842 
L 517.443735 89.592938 
L 518.053071 90.238624 
L 518.662408 91.091218 
L 519.881081 93.413322 
L 521.099754 96.549463 
L 522.318428 100.486424 
L 523.537101 105.207613 
L 524.755774 110.69313 
L 526.583784 120.303093 
L 528.411794 131.488956 
L 530.239803 144.144692 
L 532.067813 158.150341 
L 534.50516 178.693263 
L 536.942506 201.052734 
L 539.989189 230.980544 
L 544.863882 281.562254 
L 550.957248 344.857789 
L 554.003931 374.61774 
L 556.441278 396.794377 
L 558.878624 417.114599 
L 560.706634 430.929294 
L 562.534644 443.375559 
L 564.362654 454.335419 
L 566.190663 463.70499 
L 567.409337 469.023373 
L 568.62801 473.572745 
L 569.846683 477.333934 
L 571.065356 480.291088 
L 572.284029 482.431743 
L 572.893366 483.192928 
L 573.502703 483.746877 
L 574.112039 484.093005 
L 574.721376 484.230948 
L 575.330713 484.160559 
L 575.940049 483.881915 
L 576.549386 483.395307 
L 577.158722 482.701249 
L 577.768059 481.800473 
L 578.986732 479.382778 
L 580.205405 476.152413 
L 581.424079 472.122993 
L 582.642752 467.311499 
L 583.861425 461.73821 
L 585.689435 452.002147 
L 587.517445 440.697911 
L 589.345455 427.932652 
L 591.173464 413.827367 
L 593.610811 393.168594 
L 596.048157 370.714467 
L 599.09484 340.700534 
L 603.969533 290.060316 
L 610.062899 226.832757 
L 613.109582 197.16389 
L 615.546929 175.085611 
L 617.984275 154.884637 
L 619.812285 141.171892 
L 621.640295 128.837237 
L 623.468305 117.99759 
L 625.296314 108.755697 
L 626.514988 103.525984 
L 627.733661 99.067688 
L 628.952334 95.399599 
L 630.171007 92.537175 
L 631.389681 90.492482 
L 631.999017 89.779613 
L 632.608354 89.274136 
L 633.21769 88.976585 
L 633.827027 88.887273 
L 634.436364 89.006294 
L 635.0457 89.333522 
L 635.655037 89.868614 
L 636.264373 90.611004 
L 637.483047 92.714334 
L 638.70172 95.634648 
L 639.920393 99.359636 
L 641.139066 103.873601 
L 642.35774 109.157518 
L 643.576413 115.189116 
L 645.404423 125.581973 
L 647.232432 137.500694 
L 649.060442 150.832304 
L 651.497789 170.58542 
L 653.935135 192.291627 
L 656.981818 221.611394 
L 661.247174 265.346256 
L 669.777887 353.7836 
L 672.82457 382.94306 
L 675.261916 404.480745 
L 677.699263 424.032571 
L 679.527273 437.19373 
L 681.355283 448.927081 
L 683.183292 459.121406 
L 685.011302 467.680076 
L 686.229975 472.436436 
L 687.448649 476.409401 
L 688.667322 479.582227 
L 689.885995 481.941542 
L 690.495332 482.81289 
L 691.104668 483.477402 
L 691.714005 483.934377 
L 692.323342 484.183334 
L 692.932678 484.224011 
L 693.542015 484.056364 
L 694.151351 483.68057 
L 694.760688 483.097026 
L 695.370025 482.306345 
L 696.588698 480.107128 
L 697.807371 477.092188 
L 699.026044 473.274231 
L 700.244717 468.669349 
L 701.463391 463.296949 
L 703.2914 453.849645 
L 705.11941 442.816656 
L 706.94742 430.30256 
L 708.77543 416.425975 
L 711.212776 396.033479 
L 713.650123 373.797382 
L 716.696806 343.982629 
L 720.962162 299.889171 
L 728.274201 223.983364 
L 731.320885 194.501773 
L 733.758231 172.62401 
L 736.195577 152.665007 
L 738.023587 139.158517 
L 739.851597 127.049203 
L 741.679607 116.451844 
L 743.507617 107.466891 
L 744.72629 102.415414 
L 745.944963 98.140034 
L 747.163636 94.65877 
L 747.163636 94.65877 
" style="fill:none;stroke:#dd8452;stroke-linecap:round;stroke-width:3;"/>
   </g>
   <g id="line2d_14">
    <path clip-path="url(#p18838692a7)" d="M 138.436364 304.797123 
L 149.404423 227.387296 
L 153.669779 199.211753 
L 156.716462 180.354598 
L 159.763145 162.818554 
L 162.200491 149.886382 
L 164.637838 138.039808 
L 167.075184 127.372059 
L 168.903194 120.195722 
L 170.731204 113.761676 
L 172.559214 108.098413 
L 174.387224 103.231008 
L 176.215233 99.181015 
L 177.433907 96.944144 
L 178.65258 95.083016 
L 179.871253 93.601295 
L 181.089926 92.501898 
L 182.3086 91.786987 
L 183.527273 91.457971 
L 184.745946 91.515498 
L 185.964619 91.959453 
L 187.183292 92.788963 
L 188.401966 94.002396 
L 189.620639 95.597362 
L 190.839312 97.570723 
L 192.057985 99.918593 
L 193.276658 102.636352 
L 195.104668 107.394633 
L 196.932678 112.951888 
L 198.760688 119.283511 
L 200.588698 126.361466 
L 203.026044 136.905071 
L 205.463391 148.636432 
L 207.900737 161.463226 
L 210.94742 178.882637 
L 213.994103 197.641252 
L 217.650123 221.593695 
L 222.524816 255.276912 
L 237.758231 362.155354 
L 241.414251 385.625181 
L 244.460934 403.878487 
L 247.507617 420.705399 
L 249.944963 433.000278 
L 252.38231 444.152751 
L 254.819656 454.075051 
L 256.647666 460.66212 
L 258.475676 466.483915 
L 260.303686 471.514659 
L 262.131695 475.732074 
L 263.350369 478.082463 
L 264.569042 480.05837 
L 265.787715 481.655907 
L 267.006388 482.871929 
L 268.225061 483.704043 
L 269.443735 484.150609 
L 270.662408 484.210751 
L 271.881081 483.884348 
L 273.099754 483.172044 
L 274.318428 482.07524 
L 275.537101 480.596096 
L 276.755774 478.737523 
L 277.974447 476.503179 
L 279.19312 473.897463 
L 281.02113 469.303983 
L 282.84914 463.906963 
L 284.67715 457.730302 
L 286.50516 450.801349 
L 288.33317 443.150785 
L 290.770516 431.886522 
L 293.207862 419.488617 
L 295.645209 406.054636 
L 298.691892 387.966948 
L 302.347912 364.657712 
L 306.613268 335.776115 
L 312.706634 292.693642 
L 321.237346 232.45564 
L 325.502703 203.977167 
L 329.158722 181.14867 
L 332.205405 163.550574 
L 334.642752 150.562242 
L 337.080098 138.654188 
L 339.517445 127.920125 
L 341.345455 120.691191 
L 343.173464 114.202356 
L 345.001474 108.482351 
L 346.829484 103.556505 
L 348.657494 99.446629 
L 349.876167 97.169166 
L 351.09484 95.267004 
L 352.313514 93.743886 
L 353.532187 92.602811 
L 354.75086 91.846024 
L 355.969533 91.475016 
L 357.188206 91.490516 
L 358.40688 91.892495 
L 359.625553 92.68016 
L 360.844226 93.851962 
L 362.062899 95.405593 
L 363.281572 97.337997 
L 364.500246 99.645368 
L 365.718919 102.323166 
L 367.546929 107.022685 
L 369.374939 112.522825 
L 371.202948 118.799234 
L 373.030958 125.824118 
L 375.468305 136.300702 
L 377.905651 147.969799 
L 380.342998 160.739575 
L 383.389681 178.09577 
L 386.436364 196.800841 
L 390.092383 220.702716 
L 394.967076 254.343145 
L 410.200491 361.27768 
L 413.856511 384.802564 
L 416.903194 403.112918 
L 419.949877 420.006288 
L 422.387224 432.360564 
L 424.82457 443.577467 
L 427.261916 453.568725 
L 429.089926 460.210158 
L 430.917936 466.088319 
L 432.745946 471.177179 
L 434.573956 475.454206 
L 435.792629 477.845036 
L 437.011302 479.861852 
L 438.229975 481.500684 
L 439.448649 482.758307 
L 440.667322 483.632245 
L 441.885995 484.120777 
L 443.104668 484.222943 
L 444.323342 483.93854 
L 445.542015 483.26813 
L 446.760688 482.213031 
L 447.979361 480.77532 
L 449.198034 478.957828 
L 450.416708 476.764131 
L 451.635381 474.198549 
L 453.463391 469.664133 
L 455.2914 464.324583 
L 457.11941 458.203542 
L 458.94742 451.328114 
L 460.77543 443.728743 
L 463.212776 432.528718 
L 465.650123 420.189997 
L 468.087469 406.809681 
L 471.134152 388.780673 
L 474.790172 365.528596 
L 479.055528 336.694154 
L 485.148894 293.640547 
L 493.679607 233.3651 
L 497.944963 204.83471 
L 501.600983 181.945224 
L 504.647666 164.285485 
L 507.085012 151.241294 
L 509.522359 139.272038 
L 511.959705 128.47191 
L 513.787715 121.190548 
L 515.615725 114.647074 
L 517.443735 108.870461 
L 519.271744 103.886288 
L 521.099754 99.716625 
L 522.318428 97.398624 
L 523.537101 95.455471 
L 524.755774 93.890991 
L 525.974447 92.708265 
L 527.19312 91.90962 
L 528.411794 91.496628 
L 529.630467 91.470102 
L 530.84914 91.830095 
L 532.067813 92.575897 
L 533.286486 93.70604 
L 534.50516 95.218301 
L 535.723833 97.109702 
L 536.942506 99.376521 
L 538.161179 102.014295 
L 539.989189 106.654943 
L 541.817199 112.097841 
L 543.645209 118.318888 
L 545.473219 125.290538 
L 547.301229 132.981921 
L 549.738575 144.297378 
L 552.175921 156.742416 
L 554.613268 170.219097 
L 557.659951 188.353419 
L 561.315971 211.707984 
L 565.581327 240.626815 
L 571.674693 283.731656 
L 580.205405 343.938698 
L 584.470762 372.375167 
L 588.126781 395.154498 
L 591.173464 412.702993 
L 593.610811 425.646428 
L 596.048157 437.505328 
L 598.485504 448.186369 
L 600.313514 455.373245 
L 602.141523 461.818268 
L 603.969533 467.492897 
L 605.797543 472.372006 
L 607.625553 476.433992 
L 608.844226 478.67899 
L 610.062899 480.548334 
L 611.281572 482.038342 
L 612.500246 483.146083 
L 613.718919 483.869375 
L 614.937592 484.206796 
L 616.156265 484.15768 
L 617.374939 483.722124 
L 618.593612 482.900987 
L 619.812285 481.695884 
L 621.030958 480.109187 
L 622.249631 478.144019 
L 623.468305 475.804249 
L 624.686978 473.094482 
L 626.514988 468.347953 
L 628.342998 462.802117 
L 630.171007 456.481533 
L 631.999017 449.414186 
L 634.436364 438.883973 
L 636.87371 427.165052 
L 639.311057 414.349644 
L 642.35774 396.942852 
L 645.404423 378.194918 
L 649.060442 354.252551 
L 653.935135 320.577834 
L 669.16855 213.687968 
L 672.82457 190.207078 
L 675.871253 171.942322 
L 678.917936 155.102078 
L 681.355283 142.795289 
L 683.792629 131.629901 
L 686.229975 121.693782 
L 688.057985 115.095821 
L 689.885995 109.262734 
L 691.714005 104.220351 
L 693.542015 99.990997 
L 694.760688 97.632511 
L 695.979361 95.648413 
L 697.198034 94.042609 
L 698.416708 92.818259 
L 699.635381 91.977774 
L 700.854054 91.522808 
L 702.072727 91.454256 
L 703.2914 91.772254 
L 704.510074 92.476175 
L 705.728747 93.564635 
L 706.94742 95.03549 
L 708.166093 96.885845 
L 709.384767 99.112058 
L 710.60344 101.709747 
L 712.43145 106.291416 
L 714.259459 111.676944 
L 716.087469 117.842485 
L 717.915479 124.760739 
L 719.743489 132.401072 
L 722.180835 143.6525 
L 724.618182 156.038584 
L 727.055528 169.46185 
L 730.102211 187.537828 
L 733.758231 210.835669 
L 738.023587 239.707882 
L 744.116953 282.784659 
L 747.163636 304.549526 
L 747.163636 304.549526 
" style="fill:none;stroke:#55a868;stroke-linecap:round;stroke-width:3;"/>
   </g>
   <g id="patch_3">
    <path d="M 108 504 
L 108 69.12 
" style="fill:none;stroke:#262626;stroke-linecap:square;stroke-linejoin:miter;stroke-width:2.5;"/>
   </g>
   <g id="patch_4">
    <path d="M 777.6 504 
L 777.6 69.12 
" style="fill:none;stroke:#262626;stroke-linecap:square;stroke-linejoin:miter;stroke-width:2.5;"/>
   </g>
   <g id="patch_5">
    <path d="M 108 504 
L 777.6 504 
" style="fill:none;stroke:#262626;stroke-linecap:square;stroke-linejoin:miter;stroke-width:2.5;"/>
   </g>
   <g id="patch_6">
    <path d="M 108 69.12 
L 777.6 69.12 
" style="fill:none;stroke:#262626;stroke-linecap:square;stroke-linejoin:miter;stroke-width:2.5;"/>
   </g>
   <g id="legend_1">
    <g id="patch_7">
     <path d="M 123.4 338.297813 
L 415.484375 338.297813 
Q 419.884375 338.297813 419.884375 333.897812 
L 419.884375 239.222188 
Q 419.884375 234.822188 415.484375 234.822188 
L 123.4 234.822188 
Q 119 234.822188 119 239.222188 
L 119 333.897812 
Q 119 338.297813 123.4 338.297813 
z
" style="fill:#ffffff;opacity:0.8;stroke:#cccccc;stroke-linejoin:miter;stroke-width:2;"/>
    </g>
    <g id="line2d_15">
     <path d="M 127.8 252.63875 
L 171.8 252.63875 
" style="fill:none;stroke:#4c72b0;stroke-dasharray:11.1,4.8;stroke-dashoffset:0;stroke-width:3;"/>
    </g>
    <g id="line2d_16">
     <g>
      <use style="fill:#4c72b0;stroke:#4c72b0;" x="149.8" xlink:href="#m053fe4c08f" y="252.63875"/>
     </g>
    </g>
    <g id="text_14">
     <!-- search -->
     <g style="fill:#262626;" transform="translate(189.4 260.33875)scale(0.22 -0.22)">
      <defs>
       <path d="M 54.890625 33.015625 
L 54.890625 0 
L 45.90625 0 
L 45.90625 32.71875 
Q 45.90625 40.484375 42.875 44.328125 
Q 39.84375 48.1875 33.796875 48.1875 
Q 26.515625 48.1875 22.3125 43.546875 
Q 18.109375 38.921875 18.109375 30.90625 
L 18.109375 0 
L 9.078125 0 
L 9.078125 75.984375 
L 18.109375 75.984375 
L 18.109375 46.1875 
Q 21.34375 51.125 25.703125 53.5625 
Q 30.078125 56 35.796875 56 
Q 45.21875 56 50.046875 50.171875 
Q 54.890625 44.34375 54.890625 33.015625 
z
" id="DejaVuSans-104"/>
      </defs>
      <use xlink:href="#DejaVuSans-115"/>
      <use x="52.099609" xlink:href="#DejaVuSans-101"/>
      <use x="113.623047" xlink:href="#DejaVuSans-97"/>
      <use x="174.902344" xlink:href="#DejaVuSans-114"/>
      <use x="213.765625" xlink:href="#DejaVuSans-99"/>
      <use x="268.746094" xlink:href="#DejaVuSans-104"/>
     </g>
    </g>
    <g id="line2d_17">
     <path d="M 127.8 284.930625 
L 171.8 284.930625 
" style="fill:none;stroke:#dd8452;stroke-linecap:round;stroke-width:3;"/>
    </g>
    <g id="line2d_18"/>
    <g id="text_15">
     <!-- predicted frequency -->
     <g style="fill:#262626;" transform="translate(189.4 292.630625)scale(0.22 -0.22)">
      <defs>
       <path d="M 45.40625 46.390625 
L 45.40625 75.984375 
L 54.390625 75.984375 
L 54.390625 0 
L 45.40625 0 
L 45.40625 8.203125 
Q 42.578125 3.328125 38.25 0.953125 
Q 33.9375 -1.421875 27.875 -1.421875 
Q 17.96875 -1.421875 11.734375 6.484375 
Q 5.515625 14.40625 5.515625 27.296875 
Q 5.515625 40.1875 11.734375 48.09375 
Q 17.96875 56 27.875 56 
Q 33.9375 56 38.25 53.625 
Q 42.578125 51.265625 45.40625 46.390625 
z
M 14.796875 27.296875 
Q 14.796875 17.390625 18.875 11.75 
Q 22.953125 6.109375 30.078125 6.109375 
Q 37.203125 6.109375 41.296875 11.75 
Q 45.40625 17.390625 45.40625 27.296875 
Q 45.40625 37.203125 41.296875 42.84375 
Q 37.203125 48.484375 30.078125 48.484375 
Q 22.953125 48.484375 18.875 42.84375 
Q 14.796875 37.203125 14.796875 27.296875 
z
" id="DejaVuSans-100"/>
       <path d="M 14.796875 27.296875 
Q 14.796875 17.390625 18.875 11.75 
Q 22.953125 6.109375 30.078125 6.109375 
Q 37.203125 6.109375 41.296875 11.75 
Q 45.40625 17.390625 45.40625 27.296875 
Q 45.40625 37.203125 41.296875 42.84375 
Q 37.203125 48.484375 30.078125 48.484375 
Q 22.953125 48.484375 18.875 42.84375 
Q 14.796875 37.203125 14.796875 27.296875 
z
M 45.40625 8.203125 
Q 42.578125 3.328125 38.25 0.953125 
Q 33.9375 -1.421875 27.875 -1.421875 
Q 17.96875 -1.421875 11.734375 6.484375 
Q 5.515625 14.40625 5.515625 27.296875 
Q 5.515625 40.1875 11.734375 48.09375 
Q 17.96875 56 27.875 56 
Q 33.9375 56 38.25 53.625 
Q 42.578125 51.265625 45.40625 46.390625 
L 45.40625 54.6875 
L 54.390625 54.6875 
L 54.390625 -20.796875 
L 45.40625 -20.796875 
z
" id="DejaVuSans-113"/>
       <path d="M 54.890625 33.015625 
L 54.890625 0 
L 45.90625 0 
L 45.90625 32.71875 
Q 45.90625 40.484375 42.875 44.328125 
Q 39.84375 48.1875 33.796875 48.1875 
Q 26.515625 48.1875 22.3125 43.546875 
Q 18.109375 38.921875 18.109375 30.90625 
L 18.109375 0 
L 9.078125 0 
L 9.078125 54.6875 
L 18.109375 54.6875 
L 18.109375 46.1875 
Q 21.34375 51.125 25.703125 53.5625 
Q 30.078125 56 35.796875 56 
Q 45.21875 56 50.046875 50.171875 
Q 54.890625 44.34375 54.890625 33.015625 
z
" id="DejaVuSans-110"/>
      </defs>
      <use xlink:href="#DejaVuSans-112"/>
      <use x="63.476562" xlink:href="#DejaVuSans-114"/>
      <use x="102.339844" xlink:href="#DejaVuSans-101"/>
      <use x="163.863281" xlink:href="#DejaVuSans-100"/>
      <use x="227.339844" xlink:href="#DejaVuSans-105"/>
      <use x="255.123047" xlink:href="#DejaVuSans-99"/>
      <use x="310.103516" xlink:href="#DejaVuSans-116"/>
      <use x="349.3125" xlink:href="#DejaVuSans-101"/>
      <use x="410.835938" xlink:href="#DejaVuSans-100"/>
      <use x="474.3125" xlink:href="#DejaVuSans-32"/>
      <use x="506.099609" xlink:href="#DejaVuSans-102"/>
      <use x="541.304688" xlink:href="#DejaVuSans-114"/>
      <use x="580.167969" xlink:href="#DejaVuSans-101"/>
      <use x="641.691406" xlink:href="#DejaVuSans-113"/>
      <use x="705.167969" xlink:href="#DejaVuSans-117"/>
      <use x="768.546875" xlink:href="#DejaVuSans-101"/>
      <use x="830.070312" xlink:href="#DejaVuSans-110"/>
      <use x="893.449219" xlink:href="#DejaVuSans-99"/>
      <use x="948.429688" xlink:href="#DejaVuSans-121"/>
     </g>
    </g>
    <g id="line2d_19">
     <path d="M 127.8 317.2225 
L 171.8 317.2225 
" style="fill:none;stroke:#55a868;stroke-linecap:round;stroke-width:3;"/>
    </g>
    <g id="line2d_20"/>
    <g id="text_16">
     <!-- fit -->
     <g style="fill:#262626;" transform="translate(189.4 324.9225)scale(0.22 -0.22)">
      <use xlink:href="#DejaVuSans-102"/>
      <use x="35.205078" xlink:href="#DejaVuSans-105"/>
      <use x="62.988281" xlink:href="#DejaVuSans-116"/>
     </g>
    </g>
   </g>
  </g>
 </g>
 <defs>
  <clipPath id="p18838692a7">
   <rect height="434.88" width="669.6" x="108" y="69.12"/>
  </clipPath>
 </defs>
</svg>
