<?xml version="1.0" encoding="utf-8" standalone="no"?>
<!DOCTYPE svg PUBLIC "-//W3C//DTD SVG 1.1//EN"
  "http://www.w3.org/Graphics/SVG/1.1/DTD/svg11.dtd">
<!-- Created with matplotlib (https://matplotlib.org/) -->
<svg height="576pt" version="1.1" viewBox="0 0 864 576" width="864pt" xmlns="http://www.w3.org/2000/svg" xmlns:xlink="http://www.w3.org/1999/xlink">
 <metadata>
  <rdf:RDF xmlns:cc="http://creativecommons.org/ns#" xmlns:dc="http://purl.org/dc/elements/1.1/" xmlns:rdf="http://www.w3.org/1999/02/22-rdf-syntax-ns#">
   <cc:Work>
    <dc:type rdf:resource="http://purl.org/dc/dcmitype/StillImage"/>
    <dc:date>2022-01-30T19:32:45.206439</dc:date>
    <dc:format>image/svg+xml</dc:format>
    <dc:creator>
     <cc:Agent>
      <dc:title>Matplotlib v3.3.2, https://matplotlib.org/</dc:title>
     </cc:Agent>
    </dc:creator>
   </cc:Work>
  </rdf:RDF>
 </metadata>
 <defs>
  <style type="text/css">*{stroke-linecap:butt;stroke-linejoin:round;}</style>
 </defs>
 <g id="figure_1">
  <g id="patch_1">
   <path d="M 0 576 
L 864 576 
L 864 0 
L 0 0 
z
" style="fill:#ffffff;"/>
  </g>
  <g id="axes_1">
   <g id="patch_2">
    <path d="M 108 504 
L 777.6 504 
L 777.6 69.12 
L 108 69.12 
z
" style="fill:#ffffff;"/>
   </g>
   <g id="matplotlib.axis_1">
    <g id="xtick_1">
     <g id="line2d_1">
      <defs>
       <path d="M 0 0 
L 0 12 
" id="mfc209fcc65" style="stroke:#262626;stroke-width:2.5;"/>
      </defs>
      <g>
       <use style="fill:#262626;stroke:#262626;stroke-width:2.5;" x="138.436364" xlink:href="#mfc209fcc65" y="504"/>
      </g>
     </g>
     <g id="text_1">
      <!-- 0 -->
      <g style="fill:#262626;" transform="translate(131.437614 536.216563)scale(0.22 -0.22)">
       <defs>
        <path d="M 31.78125 66.40625 
Q 24.171875 66.40625 20.328125 58.90625 
Q 16.5 51.421875 16.5 36.375 
Q 16.5 21.390625 20.328125 13.890625 
Q 24.171875 6.390625 31.78125 6.390625 
Q 39.453125 6.390625 43.28125 13.890625 
Q 47.125 21.390625 47.125 36.375 
Q 47.125 51.421875 43.28125 58.90625 
Q 39.453125 66.40625 31.78125 66.40625 
z
M 31.78125 74.21875 
Q 44.046875 74.21875 50.515625 64.515625 
Q 56.984375 54.828125 56.984375 36.375 
Q 56.984375 17.96875 50.515625 8.265625 
Q 44.046875 -1.421875 31.78125 -1.421875 
Q 19.53125 -1.421875 13.0625 8.265625 
Q 6.59375 17.96875 6.59375 36.375 
Q 6.59375 54.828125 13.0625 64.515625 
Q 19.53125 74.21875 31.78125 74.21875 
z
" id="DejaVuSans-48"/>
       </defs>
       <use xlink:href="#DejaVuSans-48"/>
      </g>
     </g>
    </g>
    <g id="xtick_2">
     <g id="line2d_2">
      <g>
       <use style="fill:#262626;stroke:#262626;stroke-width:2.5;" x="260.181818" xlink:href="#mfc209fcc65" y="504"/>
      </g>
     </g>
     <g id="text_2">
      <!-- 10 -->
      <g style="fill:#262626;" transform="translate(246.184318 536.216563)scale(0.22 -0.22)">
       <defs>
        <path d="M 12.40625 8.296875 
L 28.515625 8.296875 
L 28.515625 63.921875 
L 10.984375 60.40625 
L 10.984375 69.390625 
L 28.421875 72.90625 
L 38.28125 72.90625 
L 38.28125 8.296875 
L 54.390625 8.296875 
L 54.390625 0 
L 12.40625 0 
z
" id="DejaVuSans-49"/>
       </defs>
       <use xlink:href="#DejaVuSans-49"/>
       <use x="63.623047" xlink:href="#DejaVuSans-48"/>
      </g>
     </g>
    </g>
    <g id="xtick_3">
     <g id="line2d_3">
      <g>
       <use style="fill:#262626;stroke:#262626;stroke-width:2.5;" x="381.927273" xlink:href="#mfc209fcc65" y="504"/>
      </g>
     </g>
     <g id="text_3">
      <!-- 20 -->
      <g style="fill:#262626;" transform="translate(367.929773 536.216563)scale(0.22 -0.22)">
       <defs>
        <path d="M 19.1875 8.296875 
L 53.609375 8.296875 
L 53.609375 0 
L 7.328125 0 
L 7.328125 8.296875 
Q 12.9375 14.109375 22.625 23.890625 
Q 32.328125 33.6875 34.8125 36.53125 
Q 39.546875 41.84375 41.421875 45.53125 
Q 43.3125 49.21875 43.3125 52.78125 
Q 43.3125 58.59375 39.234375 62.25 
Q 35.15625 65.921875 28.609375 65.921875 
Q 23.96875 65.921875 18.8125 64.3125 
Q 13.671875 62.703125 7.8125 59.421875 
L 7.8125 69.390625 
Q 13.765625 71.78125 18.9375 73 
Q 24.125 74.21875 28.421875 74.21875 
Q 39.75 74.21875 46.484375 68.546875 
Q 53.21875 62.890625 53.21875 53.421875 
Q 53.21875 48.921875 51.53125 44.890625 
Q 49.859375 40.875 45.40625 35.40625 
Q 44.1875 33.984375 37.640625 27.21875 
Q 31.109375 20.453125 19.1875 8.296875 
z
" id="DejaVuSans-50"/>
       </defs>
       <use xlink:href="#DejaVuSans-50"/>
       <use x="63.623047" xlink:href="#DejaVuSans-48"/>
      </g>
     </g>
    </g>
    <g id="xtick_4">
     <g id="line2d_4">
      <g>
       <use style="fill:#262626;stroke:#262626;stroke-width:2.5;" x="503.672727" xlink:href="#mfc209fcc65" y="504"/>
      </g>
     </g>
     <g id="text_4">
      <!-- 30 -->
      <g style="fill:#262626;" transform="translate(489.675227 536.216563)scale(0.22 -0.22)">
       <defs>
        <path d="M 40.578125 39.3125 
Q 47.65625 37.796875 51.625 33 
Q 55.609375 28.21875 55.609375 21.1875 
Q 55.609375 10.40625 48.1875 4.484375 
Q 40.765625 -1.421875 27.09375 -1.421875 
Q 22.515625 -1.421875 17.65625 -0.515625 
Q 12.796875 0.390625 7.625 2.203125 
L 7.625 11.71875 
Q 11.71875 9.328125 16.59375 8.109375 
Q 21.484375 6.890625 26.8125 6.890625 
Q 36.078125 6.890625 40.9375 10.546875 
Q 45.796875 14.203125 45.796875 21.1875 
Q 45.796875 27.640625 41.28125 31.265625 
Q 36.765625 34.90625 28.71875 34.90625 
L 20.21875 34.90625 
L 20.21875 43.015625 
L 29.109375 43.015625 
Q 36.375 43.015625 40.234375 45.921875 
Q 44.09375 48.828125 44.09375 54.296875 
Q 44.09375 59.90625 40.109375 62.90625 
Q 36.140625 65.921875 28.71875 65.921875 
Q 24.65625 65.921875 20.015625 65.03125 
Q 15.375 64.15625 9.8125 62.3125 
L 9.8125 71.09375 
Q 15.4375 72.65625 20.34375 73.4375 
Q 25.25 74.21875 29.59375 74.21875 
Q 40.828125 74.21875 47.359375 69.109375 
Q 53.90625 64.015625 53.90625 55.328125 
Q 53.90625 49.265625 50.4375 45.09375 
Q 46.96875 40.921875 40.578125 39.3125 
z
" id="DejaVuSans-51"/>
       </defs>
       <use xlink:href="#DejaVuSans-51"/>
       <use x="63.623047" xlink:href="#DejaVuSans-48"/>
      </g>
     </g>
    </g>
    <g id="xtick_5">
     <g id="line2d_5">
      <g>
       <use style="fill:#262626;stroke:#262626;stroke-width:2.5;" x="625.418182" xlink:href="#mfc209fcc65" y="504"/>
      </g>
     </g>
     <g id="text_5">
      <!-- 40 -->
      <g style="fill:#262626;" transform="translate(611.420682 536.216563)scale(0.22 -0.22)">
       <defs>
        <path d="M 37.796875 64.3125 
L 12.890625 25.390625 
L 37.796875 25.390625 
z
M 35.203125 72.90625 
L 47.609375 72.90625 
L 47.609375 25.390625 
L 58.015625 25.390625 
L 58.015625 17.1875 
L 47.609375 17.1875 
L 47.609375 0 
L 37.796875 0 
L 37.796875 17.1875 
L 4.890625 17.1875 
L 4.890625 26.703125 
z
" id="DejaVuSans-52"/>
       </defs>
       <use xlink:href="#DejaVuSans-52"/>
       <use x="63.623047" xlink:href="#DejaVuSans-48"/>
      </g>
     </g>
    </g>
    <g id="xtick_6">
     <g id="line2d_6">
      <g>
       <use style="fill:#262626;stroke:#262626;stroke-width:2.5;" x="747.163636" xlink:href="#mfc209fcc65" y="504"/>
      </g>
     </g>
     <g id="text_6">
      <!-- 50 -->
      <g style="fill:#262626;" transform="translate(733.166136 536.216563)scale(0.22 -0.22)">
       <defs>
        <path d="M 10.796875 72.90625 
L 49.515625 72.90625 
L 49.515625 64.59375 
L 19.828125 64.59375 
L 19.828125 46.734375 
Q 21.96875 47.46875 24.109375 47.828125 
Q 26.265625 48.1875 28.421875 48.1875 
Q 40.625 48.1875 47.75 41.5 
Q 54.890625 34.8125 54.890625 23.390625 
Q 54.890625 11.625 47.5625 5.09375 
Q 40.234375 -1.421875 26.90625 -1.421875 
Q 22.3125 -1.421875 17.546875 -0.640625 
Q 12.796875 0.140625 7.71875 1.703125 
L 7.71875 11.625 
Q 12.109375 9.234375 16.796875 8.0625 
Q 21.484375 6.890625 26.703125 6.890625 
Q 35.15625 6.890625 40.078125 11.328125 
Q 45.015625 15.765625 45.015625 23.390625 
Q 45.015625 31 40.078125 35.4375 
Q 35.15625 39.890625 26.703125 39.890625 
Q 22.75 39.890625 18.8125 39.015625 
Q 14.890625 38.140625 10.796875 36.28125 
z
" id="DejaVuSans-53"/>
       </defs>
       <use xlink:href="#DejaVuSans-53"/>
       <use x="63.623047" xlink:href="#DejaVuSans-48"/>
      </g>
     </g>
    </g>
    <g id="text_7">
     <!-- steps -->
     <g style="fill:#262626;" transform="translate(410.59125 563.028125)scale(0.24 -0.24)">
      <defs>
       <path d="M 44.28125 53.078125 
L 44.28125 44.578125 
Q 40.484375 46.53125 36.375 47.5 
Q 32.28125 48.484375 27.875 48.484375 
Q 21.1875 48.484375 17.84375 46.4375 
Q 14.5 44.390625 14.5 40.28125 
Q 14.5 37.15625 16.890625 35.375 
Q 19.28125 33.59375 26.515625 31.984375 
L 29.59375 31.296875 
Q 39.15625 29.25 43.1875 25.515625 
Q 47.21875 21.78125 47.21875 15.09375 
Q 47.21875 7.46875 41.1875 3.015625 
Q 35.15625 -1.421875 24.609375 -1.421875 
Q 20.21875 -1.421875 15.453125 -0.5625 
Q 10.6875 0.296875 5.421875 2 
L 5.421875 11.28125 
Q 10.40625 8.6875 15.234375 7.390625 
Q 20.0625 6.109375 24.8125 6.109375 
Q 31.15625 6.109375 34.5625 8.28125 
Q 37.984375 10.453125 37.984375 14.40625 
Q 37.984375 18.0625 35.515625 20.015625 
Q 33.0625 21.96875 24.703125 23.78125 
L 21.578125 24.515625 
Q 13.234375 26.265625 9.515625 29.90625 
Q 5.8125 33.546875 5.8125 39.890625 
Q 5.8125 47.609375 11.28125 51.796875 
Q 16.75 56 26.8125 56 
Q 31.78125 56 36.171875 55.265625 
Q 40.578125 54.546875 44.28125 53.078125 
z
" id="DejaVuSans-115"/>
       <path d="M 18.3125 70.21875 
L 18.3125 54.6875 
L 36.8125 54.6875 
L 36.8125 47.703125 
L 18.3125 47.703125 
L 18.3125 18.015625 
Q 18.3125 11.328125 20.140625 9.421875 
Q 21.96875 7.515625 27.59375 7.515625 
L 36.8125 7.515625 
L 36.8125 0 
L 27.59375 0 
Q 17.1875 0 13.234375 3.875 
Q 9.28125 7.765625 9.28125 18.015625 
L 9.28125 47.703125 
L 2.6875 47.703125 
L 2.6875 54.6875 
L 9.28125 54.6875 
L 9.28125 70.21875 
z
" id="DejaVuSans-116"/>
       <path d="M 56.203125 29.59375 
L 56.203125 25.203125 
L 14.890625 25.203125 
Q 15.484375 15.921875 20.484375 11.0625 
Q 25.484375 6.203125 34.421875 6.203125 
Q 39.59375 6.203125 44.453125 7.46875 
Q 49.3125 8.734375 54.109375 11.28125 
L 54.109375 2.78125 
Q 49.265625 0.734375 44.1875 -0.34375 
Q 39.109375 -1.421875 33.890625 -1.421875 
Q 20.796875 -1.421875 13.15625 6.1875 
Q 5.515625 13.8125 5.515625 26.8125 
Q 5.515625 40.234375 12.765625 48.109375 
Q 20.015625 56 32.328125 56 
Q 43.359375 56 49.78125 48.890625 
Q 56.203125 41.796875 56.203125 29.59375 
z
M 47.21875 32.234375 
Q 47.125 39.59375 43.09375 43.984375 
Q 39.0625 48.390625 32.421875 48.390625 
Q 24.90625 48.390625 20.390625 44.140625 
Q 15.875 39.890625 15.1875 32.171875 
z
" id="DejaVuSans-101"/>
       <path d="M 18.109375 8.203125 
L 18.109375 -20.796875 
L 9.078125 -20.796875 
L 9.078125 54.6875 
L 18.109375 54.6875 
L 18.109375 46.390625 
Q 20.953125 51.265625 25.265625 53.625 
Q 29.59375 56 35.59375 56 
Q 45.5625 56 51.78125 48.09375 
Q 58.015625 40.1875 58.015625 27.296875 
Q 58.015625 14.40625 51.78125 6.484375 
Q 45.5625 -1.421875 35.59375 -1.421875 
Q 29.59375 -1.421875 25.265625 0.953125 
Q 20.953125 3.328125 18.109375 8.203125 
z
M 48.6875 27.296875 
Q 48.6875 37.203125 44.609375 42.84375 
Q 40.53125 48.484375 33.40625 48.484375 
Q 26.265625 48.484375 22.1875 42.84375 
Q 18.109375 37.203125 18.109375 27.296875 
Q 18.109375 17.390625 22.1875 11.75 
Q 26.265625 6.109375 33.40625 6.109375 
Q 40.53125 6.109375 44.609375 11.75 
Q 48.6875 17.390625 48.6875 27.296875 
z
" id="DejaVuSans-112"/>
      </defs>
      <use xlink:href="#DejaVuSans-115"/>
      <use x="52.099609" xlink:href="#DejaVuSans-116"/>
      <use x="91.308594" xlink:href="#DejaVuSans-101"/>
      <use x="152.832031" xlink:href="#DejaVuSans-112"/>
      <use x="216.308594" xlink:href="#DejaVuSans-115"/>
     </g>
    </g>
   </g>
   <g id="matplotlib.axis_2">
    <g id="ytick_1">
     <g id="line2d_7">
      <defs>
       <path d="M 0 0 
L -12 0 
" id="meb648dc50c" style="stroke:#262626;stroke-width:2.5;"/>
      </defs>
      <g>
       <use style="fill:#262626;stroke:#262626;stroke-width:2.5;" x="108" xlink:href="#meb648dc50c" y="484.232803"/>
      </g>
     </g>
     <g id="text_8">
      <!-- 0.000 -->
      <g style="fill:#262626;" transform="translate(29.518125 492.591084)scale(0.22 -0.22)">
       <defs>
        <path d="M 10.6875 12.40625 
L 21 12.40625 
L 21 0 
L 10.6875 0 
z
" id="DejaVuSans-46"/>
       </defs>
       <use xlink:href="#DejaVuSans-48"/>
       <use x="63.623047" xlink:href="#DejaVuSans-46"/>
       <use x="95.410156" xlink:href="#DejaVuSans-48"/>
       <use x="159.033203" xlink:href="#DejaVuSans-48"/>
       <use x="222.65625" xlink:href="#DejaVuSans-48"/>
      </g>
     </g>
    </g>
    <g id="ytick_2">
     <g id="line2d_8">
      <g>
       <use style="fill:#262626;stroke:#262626;stroke-width:2.5;" x="108" xlink:href="#meb648dc50c" y="434.284151"/>
      </g>
     </g>
     <g id="text_9">
      <!-- 0.025 -->
      <g style="fill:#262626;" transform="translate(29.518125 442.642432)scale(0.22 -0.22)">
       <use xlink:href="#DejaVuSans-48"/>
       <use x="63.623047" xlink:href="#DejaVuSans-46"/>
       <use x="95.410156" xlink:href="#DejaVuSans-48"/>
       <use x="159.033203" xlink:href="#DejaVuSans-50"/>
       <use x="222.65625" xlink:href="#DejaVuSans-53"/>
      </g>
     </g>
    </g>
    <g id="ytick_3">
     <g id="line2d_9">
      <g>
       <use style="fill:#262626;stroke:#262626;stroke-width:2.5;" x="108" xlink:href="#meb648dc50c" y="384.335499"/>
      </g>
     </g>
     <g id="text_10">
      <!-- 0.050 -->
      <g style="fill:#262626;" transform="translate(29.518125 392.69378)scale(0.22 -0.22)">
       <use xlink:href="#DejaVuSans-48"/>
       <use x="63.623047" xlink:href="#DejaVuSans-46"/>
       <use x="95.410156" xlink:href="#DejaVuSans-48"/>
       <use x="159.033203" xlink:href="#DejaVuSans-53"/>
       <use x="222.65625" xlink:href="#DejaVuSans-48"/>
      </g>
     </g>
    </g>
    <g id="ytick_4">
     <g id="line2d_10">
      <g>
       <use style="fill:#262626;stroke:#262626;stroke-width:2.5;" x="108" xlink:href="#meb648dc50c" y="334.386847"/>
      </g>
     </g>
     <g id="text_11">
      <!-- 0.075 -->
      <g style="fill:#262626;" transform="translate(29.518125 342.745128)scale(0.22 -0.22)">
       <defs>
        <path d="M 8.203125 72.90625 
L 55.078125 72.90625 
L 55.078125 68.703125 
L 28.609375 0 
L 18.3125 0 
L 43.21875 64.59375 
L 8.203125 64.59375 
z
" id="DejaVuSans-55"/>
       </defs>
       <use xlink:href="#DejaVuSans-48"/>
       <use x="63.623047" xlink:href="#DejaVuSans-46"/>
       <use x="95.410156" xlink:href="#DejaVuSans-48"/>
       <use x="159.033203" xlink:href="#DejaVuSans-55"/>
       <use x="222.65625" xlink:href="#DejaVuSans-53"/>
      </g>
     </g>
    </g>
    <g id="ytick_5">
     <g id="line2d_11">
      <g>
       <use style="fill:#262626;stroke:#262626;stroke-width:2.5;" x="108" xlink:href="#meb648dc50c" y="284.438195"/>
      </g>
     </g>
     <g id="text_12">
      <!-- 0.100 -->
      <g style="fill:#262626;" transform="translate(29.518125 292.796477)scale(0.22 -0.22)">
       <use xlink:href="#DejaVuSans-48"/>
       <use x="63.623047" xlink:href="#DejaVuSans-46"/>
       <use x="95.410156" xlink:href="#DejaVuSans-49"/>
       <use x="159.033203" xlink:href="#DejaVuSans-48"/>
       <use x="222.65625" xlink:href="#DejaVuSans-48"/>
      </g>
     </g>
    </g>
    <g id="ytick_6">
     <g id="line2d_12">
      <g>
       <use style="fill:#262626;stroke:#262626;stroke-width:2.5;" x="108" xlink:href="#meb648dc50c" y="234.489544"/>
      </g>
     </g>
     <g id="text_13">
      <!-- 0.125 -->
      <g style="fill:#262626;" transform="translate(29.518125 242.847825)scale(0.22 -0.22)">
       <use xlink:href="#DejaVuSans-48"/>
       <use x="63.623047" xlink:href="#DejaVuSans-46"/>
       <use x="95.410156" xlink:href="#DejaVuSans-49"/>
       <use x="159.033203" xlink:href="#DejaVuSans-50"/>
       <use x="222.65625" xlink:href="#DejaVuSans-53"/>
      </g>
     </g>
    </g>
    <g id="ytick_7">
     <g id="line2d_13">
      <g>
       <use style="fill:#262626;stroke:#262626;stroke-width:2.5;" x="108" xlink:href="#meb648dc50c" y="184.540892"/>
      </g>
     </g>
     <g id="text_14">
      <!-- 0.150 -->
      <g style="fill:#262626;" transform="translate(29.518125 192.899173)scale(0.22 -0.22)">
       <use xlink:href="#DejaVuSans-48"/>
       <use x="63.623047" xlink:href="#DejaVuSans-46"/>
       <use x="95.410156" xlink:href="#DejaVuSans-49"/>
       <use x="159.033203" xlink:href="#DejaVuSans-53"/>
       <use x="222.65625" xlink:href="#DejaVuSans-48"/>
      </g>
     </g>
    </g>
    <g id="ytick_8">
     <g id="line2d_14">
      <g>
       <use style="fill:#262626;stroke:#262626;stroke-width:2.5;" x="108" xlink:href="#meb648dc50c" y="134.59224"/>
      </g>
     </g>
     <g id="text_15">
      <!-- 0.175 -->
      <g style="fill:#262626;" transform="translate(29.518125 142.950521)scale(0.22 -0.22)">
       <use xlink:href="#DejaVuSans-48"/>
       <use x="63.623047" xlink:href="#DejaVuSans-46"/>
       <use x="95.410156" xlink:href="#DejaVuSans-49"/>
       <use x="159.033203" xlink:href="#DejaVuSans-55"/>
       <use x="222.65625" xlink:href="#DejaVuSans-53"/>
      </g>
     </g>
    </g>
    <g id="ytick_9">
     <g id="line2d_15">
      <g>
       <use style="fill:#262626;stroke:#262626;stroke-width:2.5;" x="108" xlink:href="#meb648dc50c" y="84.643588"/>
      </g>
     </g>
     <g id="text_16">
      <!-- 0.200 -->
      <g style="fill:#262626;" transform="translate(29.518125 93.00187)scale(0.22 -0.22)">
       <use xlink:href="#DejaVuSans-48"/>
       <use x="63.623047" xlink:href="#DejaVuSans-46"/>
       <use x="95.410156" xlink:href="#DejaVuSans-50"/>
       <use x="159.033203" xlink:href="#DejaVuSans-48"/>
       <use x="222.65625" xlink:href="#DejaVuSans-48"/>
      </g>
     </g>
    </g>
    <g id="text_17">
     <!-- probability of success -->
     <g style="fill:#262626;" transform="translate(20.526875 416.715)rotate(-90)scale(0.24 -0.24)">
      <defs>
       <path d="M 41.109375 46.296875 
Q 39.59375 47.171875 37.8125 47.578125 
Q 36.03125 48 33.890625 48 
Q 26.265625 48 22.1875 43.046875 
Q 18.109375 38.09375 18.109375 28.8125 
L 18.109375 0 
L 9.078125 0 
L 9.078125 54.6875 
L 18.109375 54.6875 
L 18.109375 46.1875 
Q 20.953125 51.171875 25.484375 53.578125 
Q 30.03125 56 36.53125 56 
Q 37.453125 56 38.578125 55.875 
Q 39.703125 55.765625 41.0625 55.515625 
z
" id="DejaVuSans-114"/>
       <path d="M 30.609375 48.390625 
Q 23.390625 48.390625 19.1875 42.75 
Q 14.984375 37.109375 14.984375 27.296875 
Q 14.984375 17.484375 19.15625 11.84375 
Q 23.34375 6.203125 30.609375 6.203125 
Q 37.796875 6.203125 41.984375 11.859375 
Q 46.1875 17.53125 46.1875 27.296875 
Q 46.1875 37.015625 41.984375 42.703125 
Q 37.796875 48.390625 30.609375 48.390625 
z
M 30.609375 56 
Q 42.328125 56 49.015625 48.375 
Q 55.71875 40.765625 55.71875 27.296875 
Q 55.71875 13.875 49.015625 6.21875 
Q 42.328125 -1.421875 30.609375 -1.421875 
Q 18.84375 -1.421875 12.171875 6.21875 
Q 5.515625 13.875 5.515625 27.296875 
Q 5.515625 40.765625 12.171875 48.375 
Q 18.84375 56 30.609375 56 
z
" id="DejaVuSans-111"/>
       <path d="M 48.6875 27.296875 
Q 48.6875 37.203125 44.609375 42.84375 
Q 40.53125 48.484375 33.40625 48.484375 
Q 26.265625 48.484375 22.1875 42.84375 
Q 18.109375 37.203125 18.109375 27.296875 
Q 18.109375 17.390625 22.1875 11.75 
Q 26.265625 6.109375 33.40625 6.109375 
Q 40.53125 6.109375 44.609375 11.75 
Q 48.6875 17.390625 48.6875 27.296875 
z
M 18.109375 46.390625 
Q 20.953125 51.265625 25.265625 53.625 
Q 29.59375 56 35.59375 56 
Q 45.5625 56 51.78125 48.09375 
Q 58.015625 40.1875 58.015625 27.296875 
Q 58.015625 14.40625 51.78125 6.484375 
Q 45.5625 -1.421875 35.59375 -1.421875 
Q 29.59375 -1.421875 25.265625 0.953125 
Q 20.953125 3.328125 18.109375 8.203125 
L 18.109375 0 
L 9.078125 0 
L 9.078125 75.984375 
L 18.109375 75.984375 
z
" id="DejaVuSans-98"/>
       <path d="M 34.28125 27.484375 
Q 23.390625 27.484375 19.1875 25 
Q 14.984375 22.515625 14.984375 16.5 
Q 14.984375 11.71875 18.140625 8.90625 
Q 21.296875 6.109375 26.703125 6.109375 
Q 34.1875 6.109375 38.703125 11.40625 
Q 43.21875 16.703125 43.21875 25.484375 
L 43.21875 27.484375 
z
M 52.203125 31.203125 
L 52.203125 0 
L 43.21875 0 
L 43.21875 8.296875 
Q 40.140625 3.328125 35.546875 0.953125 
Q 30.953125 -1.421875 24.3125 -1.421875 
Q 15.921875 -1.421875 10.953125 3.296875 
Q 6 8.015625 6 15.921875 
Q 6 25.140625 12.171875 29.828125 
Q 18.359375 34.515625 30.609375 34.515625 
L 43.21875 34.515625 
L 43.21875 35.40625 
Q 43.21875 41.609375 39.140625 45 
Q 35.0625 48.390625 27.6875 48.390625 
Q 23 48.390625 18.546875 47.265625 
Q 14.109375 46.140625 10.015625 43.890625 
L 10.015625 52.203125 
Q 14.9375 54.109375 19.578125 55.046875 
Q 24.21875 56 28.609375 56 
Q 40.484375 56 46.34375 49.84375 
Q 52.203125 43.703125 52.203125 31.203125 
z
" id="DejaVuSans-97"/>
       <path d="M 9.421875 54.6875 
L 18.40625 54.6875 
L 18.40625 0 
L 9.421875 0 
z
M 9.421875 75.984375 
L 18.40625 75.984375 
L 18.40625 64.59375 
L 9.421875 64.59375 
z
" id="DejaVuSans-105"/>
       <path d="M 9.421875 75.984375 
L 18.40625 75.984375 
L 18.40625 0 
L 9.421875 0 
z
" id="DejaVuSans-108"/>
       <path d="M 32.171875 -5.078125 
Q 28.375 -14.84375 24.75 -17.8125 
Q 21.140625 -20.796875 15.09375 -20.796875 
L 7.90625 -20.796875 
L 7.90625 -13.28125 
L 13.1875 -13.28125 
Q 16.890625 -13.28125 18.9375 -11.515625 
Q 21 -9.765625 23.484375 -3.21875 
L 25.09375 0.875 
L 2.984375 54.6875 
L 12.5 54.6875 
L 29.59375 11.921875 
L 46.6875 54.6875 
L 56.203125 54.6875 
z
" id="DejaVuSans-121"/>
       <path id="DejaVuSans-32"/>
       <path d="M 37.109375 75.984375 
L 37.109375 68.5 
L 28.515625 68.5 
Q 23.6875 68.5 21.796875 66.546875 
Q 19.921875 64.59375 19.921875 59.515625 
L 19.921875 54.6875 
L 34.71875 54.6875 
L 34.71875 47.703125 
L 19.921875 47.703125 
L 19.921875 0 
L 10.890625 0 
L 10.890625 47.703125 
L 2.296875 47.703125 
L 2.296875 54.6875 
L 10.890625 54.6875 
L 10.890625 58.5 
Q 10.890625 67.625 15.140625 71.796875 
Q 19.390625 75.984375 28.609375 75.984375 
z
" id="DejaVuSans-102"/>
       <path d="M 8.5 21.578125 
L 8.5 54.6875 
L 17.484375 54.6875 
L 17.484375 21.921875 
Q 17.484375 14.15625 20.5 10.265625 
Q 23.53125 6.390625 29.59375 6.390625 
Q 36.859375 6.390625 41.078125 11.03125 
Q 45.3125 15.671875 45.3125 23.6875 
L 45.3125 54.6875 
L 54.296875 54.6875 
L 54.296875 0 
L 45.3125 0 
L 45.3125 8.40625 
Q 42.046875 3.421875 37.71875 1 
Q 33.40625 -1.421875 27.6875 -1.421875 
Q 18.265625 -1.421875 13.375 4.4375 
Q 8.5 10.296875 8.5 21.578125 
z
M 31.109375 56 
z
" id="DejaVuSans-117"/>
       <path d="M 48.78125 52.59375 
L 48.78125 44.1875 
Q 44.96875 46.296875 41.140625 47.34375 
Q 37.3125 48.390625 33.40625 48.390625 
Q 24.65625 48.390625 19.8125 42.84375 
Q 14.984375 37.3125 14.984375 27.296875 
Q 14.984375 17.28125 19.8125 11.734375 
Q 24.65625 6.203125 33.40625 6.203125 
Q 37.3125 6.203125 41.140625 7.25 
Q 44.96875 8.296875 48.78125 10.40625 
L 48.78125 2.09375 
Q 45.015625 0.34375 40.984375 -0.53125 
Q 36.96875 -1.421875 32.421875 -1.421875 
Q 20.0625 -1.421875 12.78125 6.34375 
Q 5.515625 14.109375 5.515625 27.296875 
Q 5.515625 40.671875 12.859375 48.328125 
Q 20.21875 56 33.015625 56 
Q 37.15625 56 41.109375 55.140625 
Q 45.0625 54.296875 48.78125 52.59375 
z
" id="DejaVuSans-99"/>
      </defs>
      <use xlink:href="#DejaVuSans-112"/>
      <use x="63.476562" xlink:href="#DejaVuSans-114"/>
      <use x="102.339844" xlink:href="#DejaVuSans-111"/>
      <use x="163.521484" xlink:href="#DejaVuSans-98"/>
      <use x="226.998047" xlink:href="#DejaVuSans-97"/>
      <use x="288.277344" xlink:href="#DejaVuSans-98"/>
      <use x="351.753906" xlink:href="#DejaVuSans-105"/>
      <use x="379.537109" xlink:href="#DejaVuSans-108"/>
      <use x="407.320312" xlink:href="#DejaVuSans-105"/>
      <use x="435.103516" xlink:href="#DejaVuSans-116"/>
      <use x="474.3125" xlink:href="#DejaVuSans-121"/>
      <use x="533.492188" xlink:href="#DejaVuSans-32"/>
      <use x="565.279297" xlink:href="#DejaVuSans-111"/>
      <use x="626.460938" xlink:href="#DejaVuSans-102"/>
      <use x="661.666016" xlink:href="#DejaVuSans-32"/>
      <use x="693.453125" xlink:href="#DejaVuSans-115"/>
      <use x="745.552734" xlink:href="#DejaVuSans-117"/>
      <use x="808.931641" xlink:href="#DejaVuSans-99"/>
      <use x="863.912109" xlink:href="#DejaVuSans-99"/>
      <use x="918.892578" xlink:href="#DejaVuSans-101"/>
      <use x="980.416016" xlink:href="#DejaVuSans-115"/>
      <use x="1032.515625" xlink:href="#DejaVuSans-115"/>
     </g>
    </g>
   </g>
   <g id="line2d_16">
    <path clip-path="url(#pec33495c56)" d="M 138.436364 421.796988 
L 150.610909 421.796988 
L 162.785455 359.361173 
L 174.96 308.632074 
L 187.134545 214.978352 
L 199.309091 156.444775 
L 211.483636 88.887273 
L 223.658182 114.007933 
L 235.832727 137.177473 
L 248.007273 212.829072 
L 260.181818 242.446452 
L 272.356364 362.86709 
L 284.530909 331.59869 
L 296.705455 447.353982 
L 308.88 435.628213 
L 321.054545 432.742917 
L 333.229091 373.954673 
L 345.403636 285.47337 
L 357.578182 328.160708 
L 369.752727 202.415796 
L 381.927273 184.616136 
L 394.101818 150.206404 
L 406.276364 171.447613 
L 418.450909 170.47721 
L 430.625455 219.241881 
L 442.8 194.983162 
L 454.974545 314.475046 
L 467.149091 251.815446 
L 479.323636 401.162321 
L 491.498182 427.992005 
L 503.672727 416.706227 
L 515.847273 439.195827 
L 528.021818 311.989037 
L 540.196364 367.577464 
L 552.370909 222.164598 
L 564.545455 244.325534 
L 576.72 185.859808 
L 588.894545 152.749116 
L 601.069091 134.118167 
L 613.243636 113.620024 
L 625.418182 128.95627 
L 637.592727 260.533525 
L 649.767273 307.303102 
L 661.941818 418.180529 
L 674.116364 449.080506 
L 686.290909 459.053641 
L 698.465455 457.408729 
L 710.64 383.107973 
L 722.814545 375.0295 
L 734.989091 250.13704 
L 747.163636 201.71767 
" style="fill:none;stroke:#4c72b0;stroke-dasharray:11.1,4.8;stroke-dashoffset:0;stroke-width:3;"/>
    <defs>
     <path d="M 0 6 
C 1.591219 6 3.117479 5.367802 4.242641 4.242641 
C 5.367802 3.117479 6 1.591219 6 0 
C 6 -1.591219 5.367802 -3.117479 4.242641 -4.242641 
C 3.117479 -5.367802 1.591219 -6 0 -6 
C -1.591219 -6 -3.117479 -5.367802 -4.242641 -4.242641 
C -5.367802 -3.117479 -6 -1.591219 -6 0 
C -6 1.591219 -5.367802 3.117479 -4.242641 4.242641 
C -3.117479 5.367802 -1.591219 6 0 6 
z
" id="ma805bcdd3d" style="stroke:#4c72b0;"/>
    </defs>
    <g clip-path="url(#pec33495c56)">
     <use style="fill:#4c72b0;stroke:#4c72b0;" x="138.436364" xlink:href="#ma805bcdd3d" y="421.796988"/>
     <use style="fill:#4c72b0;stroke:#4c72b0;" x="150.610909" xlink:href="#ma805bcdd3d" y="421.796988"/>
     <use style="fill:#4c72b0;stroke:#4c72b0;" x="162.785455" xlink:href="#ma805bcdd3d" y="359.361173"/>
     <use style="fill:#4c72b0;stroke:#4c72b0;" x="174.96" xlink:href="#ma805bcdd3d" y="308.632074"/>
     <use style="fill:#4c72b0;stroke:#4c72b0;" x="187.134545" xlink:href="#ma805bcdd3d" y="214.978352"/>
     <use style="fill:#4c72b0;stroke:#4c72b0;" x="199.309091" xlink:href="#ma805bcdd3d" y="156.444775"/>
     <use style="fill:#4c72b0;stroke:#4c72b0;" x="211.483636" xlink:href="#ma805bcdd3d" y="88.887273"/>
     <use style="fill:#4c72b0;stroke:#4c72b0;" x="223.658182" xlink:href="#ma805bcdd3d" y="114.007933"/>
     <use style="fill:#4c72b0;stroke:#4c72b0;" x="235.832727" xlink:href="#ma805bcdd3d" y="137.177473"/>
     <use style="fill:#4c72b0;stroke:#4c72b0;" x="248.007273" xlink:href="#ma805bcdd3d" y="212.829072"/>
     <use style="fill:#4c72b0;stroke:#4c72b0;" x="260.181818" xlink:href="#ma805bcdd3d" y="242.446452"/>
     <use style="fill:#4c72b0;stroke:#4c72b0;" x="272.356364" xlink:href="#ma805bcdd3d" y="362.86709"/>
     <use style="fill:#4c72b0;stroke:#4c72b0;" x="284.530909" xlink:href="#ma805bcdd3d" y="331.59869"/>
     <use style="fill:#4c72b0;stroke:#4c72b0;" x="296.705455" xlink:href="#ma805bcdd3d" y="447.353982"/>
     <use style="fill:#4c72b0;stroke:#4c72b0;" x="308.88" xlink:href="#ma805bcdd3d" y="435.628213"/>
     <use style="fill:#4c72b0;stroke:#4c72b0;" x="321.054545" xlink:href="#ma805bcdd3d" y="432.742917"/>
     <use style="fill:#4c72b0;stroke:#4c72b0;" x="333.229091" xlink:href="#ma805bcdd3d" y="373.954673"/>
     <use style="fill:#4c72b0;stroke:#4c72b0;" x="345.403636" xlink:href="#ma805bcdd3d" y="285.47337"/>
     <use style="fill:#4c72b0;stroke:#4c72b0;" x="357.578182" xlink:href="#ma805bcdd3d" y="328.160708"/>
     <use style="fill:#4c72b0;stroke:#4c72b0;" x="369.752727" xlink:href="#ma805bcdd3d" y="202.415796"/>
     <use style="fill:#4c72b0;stroke:#4c72b0;" x="381.927273" xlink:href="#ma805bcdd3d" y="184.616136"/>
     <use style="fill:#4c72b0;stroke:#4c72b0;" x="394.101818" xlink:href="#ma805bcdd3d" y="150.206404"/>
     <use style="fill:#4c72b0;stroke:#4c72b0;" x="406.276364" xlink:href="#ma805bcdd3d" y="171.447613"/>
     <use style="fill:#4c72b0;stroke:#4c72b0;" x="418.450909" xlink:href="#ma805bcdd3d" y="170.47721"/>
     <use style="fill:#4c72b0;stroke:#4c72b0;" x="430.625455" xlink:href="#ma805bcdd3d" y="219.241881"/>
     <use style="fill:#4c72b0;stroke:#4c72b0;" x="442.8" xlink:href="#ma805bcdd3d" y="194.983162"/>
     <use style="fill:#4c72b0;stroke:#4c72b0;" x="454.974545" xlink:href="#ma805bcdd3d" y="314.475046"/>
     <use style="fill:#4c72b0;stroke:#4c72b0;" x="467.149091" xlink:href="#ma805bcdd3d" y="251.815446"/>
     <use style="fill:#4c72b0;stroke:#4c72b0;" x="479.323636" xlink:href="#ma805bcdd3d" y="401.162321"/>
     <use style="fill:#4c72b0;stroke:#4c72b0;" x="491.498182" xlink:href="#ma805bcdd3d" y="427.992005"/>
     <use style="fill:#4c72b0;stroke:#4c72b0;" x="503.672727" xlink:href="#ma805bcdd3d" y="416.706227"/>
     <use style="fill:#4c72b0;stroke:#4c72b0;" x="515.847273" xlink:href="#ma805bcdd3d" y="439.195827"/>
     <use style="fill:#4c72b0;stroke:#4c72b0;" x="528.021818" xlink:href="#ma805bcdd3d" y="311.989037"/>
     <use style="fill:#4c72b0;stroke:#4c72b0;" x="540.196364" xlink:href="#ma805bcdd3d" y="367.577464"/>
     <use style="fill:#4c72b0;stroke:#4c72b0;" x="552.370909" xlink:href="#ma805bcdd3d" y="222.164598"/>
     <use style="fill:#4c72b0;stroke:#4c72b0;" x="564.545455" xlink:href="#ma805bcdd3d" y="244.325534"/>
     <use style="fill:#4c72b0;stroke:#4c72b0;" x="576.72" xlink:href="#ma805bcdd3d" y="185.859808"/>
     <use style="fill:#4c72b0;stroke:#4c72b0;" x="588.894545" xlink:href="#ma805bcdd3d" y="152.749116"/>
     <use style="fill:#4c72b0;stroke:#4c72b0;" x="601.069091" xlink:href="#ma805bcdd3d" y="134.118167"/>
     <use style="fill:#4c72b0;stroke:#4c72b0;" x="613.243636" xlink:href="#ma805bcdd3d" y="113.620024"/>
     <use style="fill:#4c72b0;stroke:#4c72b0;" x="625.418182" xlink:href="#ma805bcdd3d" y="128.95627"/>
     <use style="fill:#4c72b0;stroke:#4c72b0;" x="637.592727" xlink:href="#ma805bcdd3d" y="260.533525"/>
     <use style="fill:#4c72b0;stroke:#4c72b0;" x="649.767273" xlink:href="#ma805bcdd3d" y="307.303102"/>
     <use style="fill:#4c72b0;stroke:#4c72b0;" x="661.941818" xlink:href="#ma805bcdd3d" y="418.180529"/>
     <use style="fill:#4c72b0;stroke:#4c72b0;" x="674.116364" xlink:href="#ma805bcdd3d" y="449.080506"/>
     <use style="fill:#4c72b0;stroke:#4c72b0;" x="686.290909" xlink:href="#ma805bcdd3d" y="459.053641"/>
     <use style="fill:#4c72b0;stroke:#4c72b0;" x="698.465455" xlink:href="#ma805bcdd3d" y="457.408729"/>
     <use style="fill:#4c72b0;stroke:#4c72b0;" x="710.64" xlink:href="#ma805bcdd3d" y="383.107973"/>
     <use style="fill:#4c72b0;stroke:#4c72b0;" x="722.814545" xlink:href="#ma805bcdd3d" y="375.0295"/>
     <use style="fill:#4c72b0;stroke:#4c72b0;" x="734.989091" xlink:href="#ma805bcdd3d" y="250.13704"/>
     <use style="fill:#4c72b0;stroke:#4c72b0;" x="747.163636" xlink:href="#ma805bcdd3d" y="201.71767"/>
    </g>
   </g>
   <g id="line2d_17">
    <path clip-path="url(#pec33495c56)" d="M 138.436364 349.45608 
L 151.232432 320.64746 
L 158.544472 304.720028 
L 164.637838 291.96821 
L 170.121867 281.016745 
L 174.99656 271.779218 
L 179.261916 264.13194 
L 183.527273 256.933031 
L 187.183292 251.147916 
L 190.839312 245.741988 
L 194.495332 240.735953 
L 198.151351 236.148988 
L 201.198034 232.659365 
L 204.244717 229.482278 
L 207.2914 226.626177 
L 210.338084 224.098662 
L 213.384767 221.906456 
L 215.822113 220.398063 
L 218.259459 219.110587 
L 220.696806 218.046219 
L 223.134152 217.206772 
L 225.571499 216.593675 
L 228.008845 216.207972 
L 230.446192 216.05032 
L 232.883538 216.120988 
L 235.320885 216.419854 
L 237.758231 216.946411 
L 240.195577 217.699761 
L 242.632924 218.678621 
L 245.07027 219.881326 
L 247.507617 221.305827 
L 249.944963 222.949699 
L 252.991646 225.308729 
L 256.038329 227.999849 
L 259.085012 231.015899 
L 262.131695 234.348857 
L 265.178378 237.989856 
L 268.834398 242.751973 
L 272.490418 247.925437 
L 276.146437 253.490431 
L 279.802457 259.425639 
L 284.067813 266.787551 
L 288.33317 274.583986 
L 293.207862 283.974035 
L 298.691892 295.072973 
L 304.785258 307.957233 
L 312.097297 323.998054 
L 322.45602 347.347825 
L 337.080098 380.289582 
L 344.392138 396.193441 
L 350.485504 408.918177 
L 355.969533 419.839734 
L 360.844226 429.046492 
L 365.109582 436.663785 
L 369.374939 443.830016 
L 373.030958 449.585105 
L 376.686978 454.959269 
L 380.342998 459.931921 
L 383.999017 464.484015 
L 387.0457 467.943536 
L 390.092383 471.08966 
L 393.139066 473.914018 
L 396.185749 476.409096 
L 399.232432 478.568256 
L 401.669779 480.049832 
L 404.107125 481.310205 
L 406.544472 482.347227 
L 408.981818 483.159134 
L 411.419165 483.744543 
L 413.856511 484.102457 
L 416.293857 484.232266 
L 418.731204 484.13375 
L 421.16855 483.807076 
L 423.605897 483.252801 
L 426.043243 482.471868 
L 428.48059 481.465607 
L 430.917936 480.235731 
L 433.355283 478.784335 
L 435.792629 477.11389 
L 438.839312 474.722164 
L 441.885995 471.999008 
L 444.932678 468.951667 
L 447.979361 465.588246 
L 451.026044 461.917695 
L 454.682064 457.121425 
L 458.338084 451.915363 
L 461.994103 446.319448 
L 465.650123 440.355117 
L 469.915479 432.961648 
L 474.180835 425.136416 
L 479.055528 415.717031 
L 484.539558 404.589883 
L 490.632924 391.680513 
L 497.944963 375.61858 
L 508.303686 352.2563 
L 522.318428 320.680123 
L 529.630467 304.751532 
L 535.723833 291.998379 
L 541.207862 281.045438 
L 546.082555 271.80639 
L 550.347912 264.15763 
L 554.613268 256.957105 
L 558.269287 251.170505 
L 561.925307 245.763004 
L 565.581327 240.755317 
L 569.237346 236.166625 
L 572.284029 232.675511 
L 575.330713 229.49689 
L 578.377396 226.639216 
L 581.424079 224.110094 
L 584.470762 221.91625 
L 586.908108 220.406528 
L 589.345455 219.117708 
L 591.782801 218.051984 
L 594.220147 217.211171 
L 596.657494 216.596701 
L 599.09484 216.20962 
L 601.532187 216.050588 
L 603.969533 216.119873 
L 606.40688 216.41736 
L 608.844226 216.942542 
L 611.281572 217.694523 
L 613.718919 218.672024 
L 616.156265 219.87338 
L 618.593612 221.296546 
L 621.030958 222.939098 
L 624.077641 225.296505 
L 627.124324 227.986034 
L 630.171007 231.00053 
L 633.21769 234.331975 
L 636.264373 237.971505 
L 639.920393 242.731925 
L 643.576413 247.903768 
L 647.232432 253.467225 
L 650.888452 259.400984 
L 655.153808 266.761326 
L 659.419165 274.556328 
L 664.293857 283.944915 
L 669.777887 295.042446 
L 675.871253 307.925452 
L 683.183292 323.965216 
L 693.542015 347.314351 
L 708.166093 380.256956 
L 715.478133 396.161994 
L 721.571499 408.888081 
L 727.055528 419.811128 
L 731.930221 429.019418 
L 736.195577 436.638203 
L 740.460934 443.806059 
L 744.116953 449.562641 
L 747.163636 454.069767 
L 747.163636 454.069767 
" style="fill:none;stroke:#dd8452;stroke-linecap:round;stroke-width:3;"/>
   </g>
   <g id="line2d_18">
    <path clip-path="url(#pec33495c56)" d="M 138.436364 466.526894 
L 140.264373 461.361473 
L 142.092383 455.583708 
L 144.52973 446.965152 
L 146.967076 437.353935 
L 149.404423 426.813935 
L 152.451106 412.44011 
L 155.497789 396.874167 
L 159.153808 376.84975 
L 163.419165 352.013364 
L 168.903194 318.529084 
L 181.699263 239.650594 
L 185.964619 215.010339 
L 189.620639 195.208685 
L 192.667322 179.864418 
L 195.714005 165.742594 
L 198.151351 155.424283 
L 200.588698 146.051019 
L 203.026044 137.685102 
L 204.854054 132.105446 
L 206.682064 127.144711 
L 208.510074 122.821446 
L 210.338084 119.151819 
L 212.166093 116.149552 
L 213.384767 114.524445 
L 214.60344 113.203686 
L 215.822113 112.18947 
L 217.040786 111.483484 
L 218.259459 111.086901 
L 219.478133 111.00038 
L 220.696806 111.224065 
L 221.915479 111.757584 
L 223.134152 112.600051 
L 224.352826 113.750065 
L 225.571499 115.205714 
L 226.790172 116.964578 
L 228.008845 119.023734 
L 229.836855 122.667893 
L 231.664865 126.966264 
L 233.492875 131.902773 
L 235.320885 137.458959 
L 237.148894 143.614045 
L 239.586241 152.712355 
L 242.023587 162.773737 
L 244.460934 173.73132 
L 247.507617 188.5771 
L 250.5543 204.554871 
L 254.210319 224.988139 
L 258.475676 250.17628 
L 264.569042 287.701038 
L 274.318428 347.93968 
L 278.583784 372.986863 
L 282.239803 393.254679 
L 285.286486 409.064953 
L 288.33317 423.718149 
L 290.770516 434.504937 
L 293.207862 444.381879 
L 295.645209 453.283328 
L 297.473219 459.283403 
L 299.301229 464.678906 
L 301.129238 469.44966 
L 302.957248 473.577825 
L 304.785258 477.047964 
L 306.003931 478.989308 
L 307.222604 480.62915 
L 308.441278 481.964763 
L 309.659951 482.993928 
L 310.878624 483.714934 
L 312.097297 484.126582 
L 313.315971 484.228187 
L 314.534644 484.019582 
L 315.753317 483.501112 
L 316.97199 482.67364 
L 318.190663 481.538541 
L 319.409337 480.097702 
L 320.62801 478.353518 
L 321.846683 476.308889 
L 323.674693 472.686179 
L 325.502703 468.408778 
L 327.330713 463.492679 
L 329.158722 457.956268 
L 330.986732 451.820247 
L 333.424079 442.746132 
L 335.861425 432.707397 
L 338.298771 421.770764 
L 341.345455 406.94857 
L 344.392138 390.991271 
L 348.048157 370.578159 
L 352.313514 345.407082 
L 358.40688 307.894029 
L 368.156265 247.642319 
L 372.421622 222.577371 
L 376.077641 202.288831 
L 379.124324 186.457643 
L 382.171007 171.780448 
L 384.608354 160.972409 
L 387.0457 151.072542 
L 389.483047 142.146646 
L 391.311057 136.127336 
L 393.139066 130.711905 
L 394.967076 125.920606 
L 396.795086 121.771354 
L 398.623096 118.279667 
L 399.841769 116.32374 
L 401.060442 114.66917 
L 402.279115 113.318708 
L 403.497789 112.274598 
L 404.716462 111.538576 
L 405.935135 111.111865 
L 407.153808 110.995175 
L 408.372482 111.1887 
L 409.591155 111.692118 
L 410.809828 112.504592 
L 412.028501 113.624772 
L 413.247174 115.050795 
L 414.465848 116.780291 
L 415.684521 118.810386 
L 417.512531 122.411632 
L 419.340541 126.668048 
L 421.16855 131.563717 
L 422.99656 137.080332 
L 424.82457 143.197262 
L 427.261916 152.247146 
L 429.699263 162.263195 
L 432.136609 173.178836 
L 435.183292 187.977385 
L 438.229975 203.91415 
L 441.885995 224.307025 
L 446.151351 249.460939 
L 452.244717 286.96214 
L 462.60344 350.883836 
L 466.868796 375.780106 
L 470.524816 395.873219 
L 473.571499 411.507886 
L 476.618182 425.960114 
L 479.055528 436.569259 
L 481.492875 446.254839 
L 483.930221 454.952477 
L 485.758231 460.792337 
L 487.586241 466.021981 
L 489.414251 470.621855 
L 491.24226 474.574756 
L 493.07027 477.865902 
L 494.288943 479.686177 
L 495.507617 481.203791 
L 496.72629 482.416221 
L 497.944963 483.321453 
L 499.163636 483.917981 
L 500.38231 484.204813 
L 501.600983 484.181473 
L 502.819656 483.848 
L 504.038329 483.204948 
L 505.257002 482.253386 
L 506.475676 480.994895 
L 507.694349 479.431569 
L 508.913022 477.566004 
L 510.131695 475.401303 
L 511.959705 471.601377 
L 513.787715 467.150815 
L 515.615725 462.066261 
L 517.443735 456.366727 
L 519.271744 450.073529 
L 521.709091 440.800103 
L 524.146437 430.574991 
L 526.583784 419.466153 
L 529.630467 404.450369 
L 532.67715 388.325415 
L 536.33317 367.747784 
L 540.598526 342.438364 
L 547.301229 301.029795 
L 555.831941 248.355709 
L 560.097297 223.255528 
L 563.753317 202.925779 
L 566.8 187.052948 
L 569.846683 172.327931 
L 572.284029 161.477515 
L 574.721376 151.531914 
L 577.158722 142.557231 
L 579.596069 134.613117 
L 581.424079 129.363371 
L 583.252088 124.742799 
L 585.080098 120.76868 
L 586.908108 117.455875 
L 588.126781 115.620956 
L 589.345455 114.088562 
L 590.564128 112.861241 
L 591.782801 111.941033 
L 593.001474 111.329467 
L 594.220147 111.02756 
L 595.438821 111.035813 
L 596.657494 111.354215 
L 597.876167 111.982234 
L 599.09484 112.918827 
L 600.313514 114.162437 
L 601.532187 115.710996 
L 602.75086 117.561932 
L 603.969533 119.712166 
L 605.797543 123.490749 
L 607.625553 127.920467 
L 609.453563 132.984755 
L 611.281572 138.664674 
L 613.109582 144.938984 
L 615.546929 154.188478 
L 617.984275 164.391233 
L 620.421622 175.479438 
L 623.468305 190.472062 
L 626.514988 206.577004 
L 630.171007 227.135065 
L 634.436364 252.428144 
L 640.52973 290.023059 
L 650.279115 350.174187 
L 654.544472 375.107516 
L 658.200491 395.243313 
L 661.247174 410.920772 
L 664.293857 425.421887 
L 666.731204 436.074192 
L 669.16855 445.806221 
L 671.605897 454.553292 
L 673.433907 460.431985 
L 675.261916 465.701811 
L 677.089926 470.343063 
L 678.917936 474.338384 
L 680.745946 477.672835 
L 681.964619 479.522391 
L 683.183292 481.069559 
L 684.401966 482.311766 
L 685.620639 483.246948 
L 686.839312 483.87355 
L 688.057985 484.19053 
L 689.276658 484.197362 
L 690.495332 483.894034 
L 691.714005 483.281051 
L 692.932678 482.359431 
L 694.151351 481.130706 
L 695.370025 479.596919 
L 696.588698 477.76062 
L 697.807371 475.624861 
L 699.635381 471.867636 
L 701.463391 467.458779 
L 703.2914 462.414778 
L 705.11941 456.754496 
L 706.94742 450.499098 
L 709.384767 441.273573 
L 711.822113 431.093215 
L 714.259459 420.025687 
L 717.306143 405.056281 
L 720.352826 388.971415 
L 724.008845 368.433004 
L 728.274201 343.156367 
L 734.367568 305.572229 
L 744.116953 245.406545 
L 747.163636 227.445494 
L 747.163636 227.445494 
" style="fill:none;stroke:#55a868;stroke-linecap:round;stroke-width:3;"/>
   </g>
   <g id="patch_3">
    <path d="M 108 504 
L 108 69.12 
" style="fill:none;stroke:#262626;stroke-linecap:square;stroke-linejoin:miter;stroke-width:2.5;"/>
   </g>
   <g id="patch_4">
    <path d="M 777.6 504 
L 777.6 69.12 
" style="fill:none;stroke:#262626;stroke-linecap:square;stroke-linejoin:miter;stroke-width:2.5;"/>
   </g>
   <g id="patch_5">
    <path d="M 108 504 
L 777.6 504 
" style="fill:none;stroke:#262626;stroke-linecap:square;stroke-linejoin:miter;stroke-width:2.5;"/>
   </g>
   <g id="patch_6">
    <path d="M 108 69.12 
L 777.6 69.12 
" style="fill:none;stroke:#262626;stroke-linecap:square;stroke-linejoin:miter;stroke-width:2.5;"/>
   </g>
   <g id="legend_1">
    <g id="patch_7">
     <path d="M 470.115625 183.595625 
L 762.2 183.595625 
Q 766.6 183.595625 766.6 179.195625 
L 766.6 84.52 
Q 766.6 80.12 762.2 80.12 
L 470.115625 80.12 
Q 465.715625 80.12 465.715625 84.52 
L 465.715625 179.195625 
Q 465.715625 183.595625 470.115625 183.595625 
z
" style="fill:#ffffff;opacity:0.8;stroke:#cccccc;stroke-linejoin:miter;stroke-width:2;"/>
    </g>
    <g id="line2d_19">
     <path d="M 474.515625 97.936563 
L 518.515625 97.936563 
" style="fill:none;stroke:#4c72b0;stroke-dasharray:11.1,4.8;stroke-dashoffset:0;stroke-width:3;"/>
    </g>
    <g id="line2d_20">
     <g>
      <use style="fill:#4c72b0;stroke:#4c72b0;" x="496.515625" xlink:href="#ma805bcdd3d" y="97.936563"/>
     </g>
    </g>
    <g id="text_18">
     <!-- search -->
     <g style="fill:#262626;" transform="translate(536.115625 105.636563)scale(0.22 -0.22)">
      <defs>
       <path d="M 54.890625 33.015625 
L 54.890625 0 
L 45.90625 0 
L 45.90625 32.71875 
Q 45.90625 40.484375 42.875 44.328125 
Q 39.84375 48.1875 33.796875 48.1875 
Q 26.515625 48.1875 22.3125 43.546875 
Q 18.109375 38.921875 18.109375 30.90625 
L 18.109375 0 
L 9.078125 0 
L 9.078125 75.984375 
L 18.109375 75.984375 
L 18.109375 46.1875 
Q 21.34375 51.125 25.703125 53.5625 
Q 30.078125 56 35.796875 56 
Q 45.21875 56 50.046875 50.171875 
Q 54.890625 44.34375 54.890625 33.015625 
z
" id="DejaVuSans-104"/>
      </defs>
      <use xlink:href="#DejaVuSans-115"/>
      <use x="52.099609" xlink:href="#DejaVuSans-101"/>
      <use x="113.623047" xlink:href="#DejaVuSans-97"/>
      <use x="174.902344" xlink:href="#DejaVuSans-114"/>
      <use x="213.765625" xlink:href="#DejaVuSans-99"/>
      <use x="268.746094" xlink:href="#DejaVuSans-104"/>
     </g>
    </g>
    <g id="line2d_21">
     <path d="M 474.515625 130.228438 
L 518.515625 130.228438 
" style="fill:none;stroke:#dd8452;stroke-linecap:round;stroke-width:3;"/>
    </g>
    <g id="line2d_22"/>
    <g id="text_19">
     <!-- predicted frequency -->
     <g style="fill:#262626;" transform="translate(536.115625 137.928438)scale(0.22 -0.22)">
      <defs>
       <path d="M 45.40625 46.390625 
L 45.40625 75.984375 
L 54.390625 75.984375 
L 54.390625 0 
L 45.40625 0 
L 45.40625 8.203125 
Q 42.578125 3.328125 38.25 0.953125 
Q 33.9375 -1.421875 27.875 -1.421875 
Q 17.96875 -1.421875 11.734375 6.484375 
Q 5.515625 14.40625 5.515625 27.296875 
Q 5.515625 40.1875 11.734375 48.09375 
Q 17.96875 56 27.875 56 
Q 33.9375 56 38.25 53.625 
Q 42.578125 51.265625 45.40625 46.390625 
z
M 14.796875 27.296875 
Q 14.796875 17.390625 18.875 11.75 
Q 22.953125 6.109375 30.078125 6.109375 
Q 37.203125 6.109375 41.296875 11.75 
Q 45.40625 17.390625 45.40625 27.296875 
Q 45.40625 37.203125 41.296875 42.84375 
Q 37.203125 48.484375 30.078125 48.484375 
Q 22.953125 48.484375 18.875 42.84375 
Q 14.796875 37.203125 14.796875 27.296875 
z
" id="DejaVuSans-100"/>
       <path d="M 14.796875 27.296875 
Q 14.796875 17.390625 18.875 11.75 
Q 22.953125 6.109375 30.078125 6.109375 
Q 37.203125 6.109375 41.296875 11.75 
Q 45.40625 17.390625 45.40625 27.296875 
Q 45.40625 37.203125 41.296875 42.84375 
Q 37.203125 48.484375 30.078125 48.484375 
Q 22.953125 48.484375 18.875 42.84375 
Q 14.796875 37.203125 14.796875 27.296875 
z
M 45.40625 8.203125 
Q 42.578125 3.328125 38.25 0.953125 
Q 33.9375 -1.421875 27.875 -1.421875 
Q 17.96875 -1.421875 11.734375 6.484375 
Q 5.515625 14.40625 5.515625 27.296875 
Q 5.515625 40.1875 11.734375 48.09375 
Q 17.96875 56 27.875 56 
Q 33.9375 56 38.25 53.625 
Q 42.578125 51.265625 45.40625 46.390625 
L 45.40625 54.6875 
L 54.390625 54.6875 
L 54.390625 -20.796875 
L 45.40625 -20.796875 
z
" id="DejaVuSans-113"/>
       <path d="M 54.890625 33.015625 
L 54.890625 0 
L 45.90625 0 
L 45.90625 32.71875 
Q 45.90625 40.484375 42.875 44.328125 
Q 39.84375 48.1875 33.796875 48.1875 
Q 26.515625 48.1875 22.3125 43.546875 
Q 18.109375 38.921875 18.109375 30.90625 
L 18.109375 0 
L 9.078125 0 
L 9.078125 54.6875 
L 18.109375 54.6875 
L 18.109375 46.1875 
Q 21.34375 51.125 25.703125 53.5625 
Q 30.078125 56 35.796875 56 
Q 45.21875 56 50.046875 50.171875 
Q 54.890625 44.34375 54.890625 33.015625 
z
" id="DejaVuSans-110"/>
      </defs>
      <use xlink:href="#DejaVuSans-112"/>
      <use x="63.476562" xlink:href="#DejaVuSans-114"/>
      <use x="102.339844" xlink:href="#DejaVuSans-101"/>
      <use x="163.863281" xlink:href="#DejaVuSans-100"/>
      <use x="227.339844" xlink:href="#DejaVuSans-105"/>
      <use x="255.123047" xlink:href="#DejaVuSans-99"/>
      <use x="310.103516" xlink:href="#DejaVuSans-116"/>
      <use x="349.3125" xlink:href="#DejaVuSans-101"/>
      <use x="410.835938" xlink:href="#DejaVuSans-100"/>
      <use x="474.3125" xlink:href="#DejaVuSans-32"/>
      <use x="506.099609" xlink:href="#DejaVuSans-102"/>
      <use x="541.304688" xlink:href="#DejaVuSans-114"/>
      <use x="580.167969" xlink:href="#DejaVuSans-101"/>
      <use x="641.691406" xlink:href="#DejaVuSans-113"/>
      <use x="705.167969" xlink:href="#DejaVuSans-117"/>
      <use x="768.546875" xlink:href="#DejaVuSans-101"/>
      <use x="830.070312" xlink:href="#DejaVuSans-110"/>
      <use x="893.449219" xlink:href="#DejaVuSans-99"/>
      <use x="948.429688" xlink:href="#DejaVuSans-121"/>
     </g>
    </g>
    <g id="line2d_23">
     <path d="M 474.515625 162.520313 
L 518.515625 162.520313 
" style="fill:none;stroke:#55a868;stroke-linecap:round;stroke-width:3;"/>
    </g>
    <g id="line2d_24"/>
    <g id="text_20">
     <!-- fit -->
     <g style="fill:#262626;" transform="translate(536.115625 170.220313)scale(0.22 -0.22)">
      <use xlink:href="#DejaVuSans-102"/>
      <use x="35.205078" xlink:href="#DejaVuSans-105"/>
      <use x="62.988281" xlink:href="#DejaVuSans-116"/>
     </g>
    </g>
   </g>
  </g>
 </g>
 <defs>
  <clipPath id="pec33495c56">
   <rect height="434.88" width="669.6" x="108" y="69.12"/>
  </clipPath>
 </defs>
</svg>
