<?xml version="1.0" encoding="utf-8" standalone="no"?>
<!DOCTYPE svg PUBLIC "-//W3C//DTD SVG 1.1//EN"
  "http://www.w3.org/Graphics/SVG/1.1/DTD/svg11.dtd">
<!-- Created with matplotlib (https://matplotlib.org/) -->
<svg height="576pt" version="1.1" viewBox="0 0 864 576" width="864pt" xmlns="http://www.w3.org/2000/svg" xmlns:xlink="http://www.w3.org/1999/xlink">
 <metadata>
  <rdf:RDF xmlns:cc="http://creativecommons.org/ns#" xmlns:dc="http://purl.org/dc/elements/1.1/" xmlns:rdf="http://www.w3.org/1999/02/22-rdf-syntax-ns#">
   <cc:Work>
    <dc:type rdf:resource="http://purl.org/dc/dcmitype/StillImage"/>
    <dc:date>2022-01-30T19:32:45.785396</dc:date>
    <dc:format>image/svg+xml</dc:format>
    <dc:creator>
     <cc:Agent>
      <dc:title>Matplotlib v3.3.2, https://matplotlib.org/</dc:title>
     </cc:Agent>
    </dc:creator>
   </cc:Work>
  </rdf:RDF>
 </metadata>
 <defs>
  <style type="text/css">*{stroke-linecap:butt;stroke-linejoin:round;}</style>
 </defs>
 <g id="figure_1">
  <g id="patch_1">
   <path d="M 0 576 
L 864 576 
L 864 0 
L 0 0 
z
" style="fill:#ffffff;"/>
  </g>
  <g id="axes_1">
   <g id="patch_2">
    <path d="M 108 504 
L 777.6 504 
L 777.6 69.12 
L 108 69.12 
z
" style="fill:#ffffff;"/>
   </g>
   <g id="matplotlib.axis_1">
    <g id="xtick_1">
     <g id="line2d_1">
      <defs>
       <path d="M 0 0 
L 0 12 
" id="m0f42a365fb" style="stroke:#262626;stroke-width:2.5;"/>
      </defs>
      <g>
       <use style="fill:#262626;stroke:#262626;stroke-width:2.5;" x="138.436364" xlink:href="#m0f42a365fb" y="504"/>
      </g>
     </g>
     <g id="text_1">
      <!-- 0 -->
      <g style="fill:#262626;" transform="translate(131.437614 536.216563)scale(0.22 -0.22)">
       <defs>
        <path d="M 31.78125 66.40625 
Q 24.171875 66.40625 20.328125 58.90625 
Q 16.5 51.421875 16.5 36.375 
Q 16.5 21.390625 20.328125 13.890625 
Q 24.171875 6.390625 31.78125 6.390625 
Q 39.453125 6.390625 43.28125 13.890625 
Q 47.125 21.390625 47.125 36.375 
Q 47.125 51.421875 43.28125 58.90625 
Q 39.453125 66.40625 31.78125 66.40625 
z
M 31.78125 74.21875 
Q 44.046875 74.21875 50.515625 64.515625 
Q 56.984375 54.828125 56.984375 36.375 
Q 56.984375 17.96875 50.515625 8.265625 
Q 44.046875 -1.421875 31.78125 -1.421875 
Q 19.53125 -1.421875 13.0625 8.265625 
Q 6.59375 17.96875 6.59375 36.375 
Q 6.59375 54.828125 13.0625 64.515625 
Q 19.53125 74.21875 31.78125 74.21875 
z
" id="DejaVuSans-48"/>
       </defs>
       <use xlink:href="#DejaVuSans-48"/>
      </g>
     </g>
    </g>
    <g id="xtick_2">
     <g id="line2d_2">
      <g>
       <use style="fill:#262626;stroke:#262626;stroke-width:2.5;" x="260.181818" xlink:href="#m0f42a365fb" y="504"/>
      </g>
     </g>
     <g id="text_2">
      <!-- 10 -->
      <g style="fill:#262626;" transform="translate(246.184318 536.216563)scale(0.22 -0.22)">
       <defs>
        <path d="M 12.40625 8.296875 
L 28.515625 8.296875 
L 28.515625 63.921875 
L 10.984375 60.40625 
L 10.984375 69.390625 
L 28.421875 72.90625 
L 38.28125 72.90625 
L 38.28125 8.296875 
L 54.390625 8.296875 
L 54.390625 0 
L 12.40625 0 
z
" id="DejaVuSans-49"/>
       </defs>
       <use xlink:href="#DejaVuSans-49"/>
       <use x="63.623047" xlink:href="#DejaVuSans-48"/>
      </g>
     </g>
    </g>
    <g id="xtick_3">
     <g id="line2d_3">
      <g>
       <use style="fill:#262626;stroke:#262626;stroke-width:2.5;" x="381.927273" xlink:href="#m0f42a365fb" y="504"/>
      </g>
     </g>
     <g id="text_3">
      <!-- 20 -->
      <g style="fill:#262626;" transform="translate(367.929773 536.216563)scale(0.22 -0.22)">
       <defs>
        <path d="M 19.1875 8.296875 
L 53.609375 8.296875 
L 53.609375 0 
L 7.328125 0 
L 7.328125 8.296875 
Q 12.9375 14.109375 22.625 23.890625 
Q 32.328125 33.6875 34.8125 36.53125 
Q 39.546875 41.84375 41.421875 45.53125 
Q 43.3125 49.21875 43.3125 52.78125 
Q 43.3125 58.59375 39.234375 62.25 
Q 35.15625 65.921875 28.609375 65.921875 
Q 23.96875 65.921875 18.8125 64.3125 
Q 13.671875 62.703125 7.8125 59.421875 
L 7.8125 69.390625 
Q 13.765625 71.78125 18.9375 73 
Q 24.125 74.21875 28.421875 74.21875 
Q 39.75 74.21875 46.484375 68.546875 
Q 53.21875 62.890625 53.21875 53.421875 
Q 53.21875 48.921875 51.53125 44.890625 
Q 49.859375 40.875 45.40625 35.40625 
Q 44.1875 33.984375 37.640625 27.21875 
Q 31.109375 20.453125 19.1875 8.296875 
z
" id="DejaVuSans-50"/>
       </defs>
       <use xlink:href="#DejaVuSans-50"/>
       <use x="63.623047" xlink:href="#DejaVuSans-48"/>
      </g>
     </g>
    </g>
    <g id="xtick_4">
     <g id="line2d_4">
      <g>
       <use style="fill:#262626;stroke:#262626;stroke-width:2.5;" x="503.672727" xlink:href="#m0f42a365fb" y="504"/>
      </g>
     </g>
     <g id="text_4">
      <!-- 30 -->
      <g style="fill:#262626;" transform="translate(489.675227 536.216563)scale(0.22 -0.22)">
       <defs>
        <path d="M 40.578125 39.3125 
Q 47.65625 37.796875 51.625 33 
Q 55.609375 28.21875 55.609375 21.1875 
Q 55.609375 10.40625 48.1875 4.484375 
Q 40.765625 -1.421875 27.09375 -1.421875 
Q 22.515625 -1.421875 17.65625 -0.515625 
Q 12.796875 0.390625 7.625 2.203125 
L 7.625 11.71875 
Q 11.71875 9.328125 16.59375 8.109375 
Q 21.484375 6.890625 26.8125 6.890625 
Q 36.078125 6.890625 40.9375 10.546875 
Q 45.796875 14.203125 45.796875 21.1875 
Q 45.796875 27.640625 41.28125 31.265625 
Q 36.765625 34.90625 28.71875 34.90625 
L 20.21875 34.90625 
L 20.21875 43.015625 
L 29.109375 43.015625 
Q 36.375 43.015625 40.234375 45.921875 
Q 44.09375 48.828125 44.09375 54.296875 
Q 44.09375 59.90625 40.109375 62.90625 
Q 36.140625 65.921875 28.71875 65.921875 
Q 24.65625 65.921875 20.015625 65.03125 
Q 15.375 64.15625 9.8125 62.3125 
L 9.8125 71.09375 
Q 15.4375 72.65625 20.34375 73.4375 
Q 25.25 74.21875 29.59375 74.21875 
Q 40.828125 74.21875 47.359375 69.109375 
Q 53.90625 64.015625 53.90625 55.328125 
Q 53.90625 49.265625 50.4375 45.09375 
Q 46.96875 40.921875 40.578125 39.3125 
z
" id="DejaVuSans-51"/>
       </defs>
       <use xlink:href="#DejaVuSans-51"/>
       <use x="63.623047" xlink:href="#DejaVuSans-48"/>
      </g>
     </g>
    </g>
    <g id="xtick_5">
     <g id="line2d_5">
      <g>
       <use style="fill:#262626;stroke:#262626;stroke-width:2.5;" x="625.418182" xlink:href="#m0f42a365fb" y="504"/>
      </g>
     </g>
     <g id="text_5">
      <!-- 40 -->
      <g style="fill:#262626;" transform="translate(611.420682 536.216563)scale(0.22 -0.22)">
       <defs>
        <path d="M 37.796875 64.3125 
L 12.890625 25.390625 
L 37.796875 25.390625 
z
M 35.203125 72.90625 
L 47.609375 72.90625 
L 47.609375 25.390625 
L 58.015625 25.390625 
L 58.015625 17.1875 
L 47.609375 17.1875 
L 47.609375 0 
L 37.796875 0 
L 37.796875 17.1875 
L 4.890625 17.1875 
L 4.890625 26.703125 
z
" id="DejaVuSans-52"/>
       </defs>
       <use xlink:href="#DejaVuSans-52"/>
       <use x="63.623047" xlink:href="#DejaVuSans-48"/>
      </g>
     </g>
    </g>
    <g id="xtick_6">
     <g id="line2d_6">
      <g>
       <use style="fill:#262626;stroke:#262626;stroke-width:2.5;" x="747.163636" xlink:href="#m0f42a365fb" y="504"/>
      </g>
     </g>
     <g id="text_6">
      <!-- 50 -->
      <g style="fill:#262626;" transform="translate(733.166136 536.216563)scale(0.22 -0.22)">
       <defs>
        <path d="M 10.796875 72.90625 
L 49.515625 72.90625 
L 49.515625 64.59375 
L 19.828125 64.59375 
L 19.828125 46.734375 
Q 21.96875 47.46875 24.109375 47.828125 
Q 26.265625 48.1875 28.421875 48.1875 
Q 40.625 48.1875 47.75 41.5 
Q 54.890625 34.8125 54.890625 23.390625 
Q 54.890625 11.625 47.5625 5.09375 
Q 40.234375 -1.421875 26.90625 -1.421875 
Q 22.3125 -1.421875 17.546875 -0.640625 
Q 12.796875 0.140625 7.71875 1.703125 
L 7.71875 11.625 
Q 12.109375 9.234375 16.796875 8.0625 
Q 21.484375 6.890625 26.703125 6.890625 
Q 35.15625 6.890625 40.078125 11.328125 
Q 45.015625 15.765625 45.015625 23.390625 
Q 45.015625 31 40.078125 35.4375 
Q 35.15625 39.890625 26.703125 39.890625 
Q 22.75 39.890625 18.8125 39.015625 
Q 14.890625 38.140625 10.796875 36.28125 
z
" id="DejaVuSans-53"/>
       </defs>
       <use xlink:href="#DejaVuSans-53"/>
       <use x="63.623047" xlink:href="#DejaVuSans-48"/>
      </g>
     </g>
    </g>
    <g id="text_7">
     <!-- steps -->
     <g style="fill:#262626;" transform="translate(410.59125 563.028125)scale(0.24 -0.24)">
      <defs>
       <path d="M 44.28125 53.078125 
L 44.28125 44.578125 
Q 40.484375 46.53125 36.375 47.5 
Q 32.28125 48.484375 27.875 48.484375 
Q 21.1875 48.484375 17.84375 46.4375 
Q 14.5 44.390625 14.5 40.28125 
Q 14.5 37.15625 16.890625 35.375 
Q 19.28125 33.59375 26.515625 31.984375 
L 29.59375 31.296875 
Q 39.15625 29.25 43.1875 25.515625 
Q 47.21875 21.78125 47.21875 15.09375 
Q 47.21875 7.46875 41.1875 3.015625 
Q 35.15625 -1.421875 24.609375 -1.421875 
Q 20.21875 -1.421875 15.453125 -0.5625 
Q 10.6875 0.296875 5.421875 2 
L 5.421875 11.28125 
Q 10.40625 8.6875 15.234375 7.390625 
Q 20.0625 6.109375 24.8125 6.109375 
Q 31.15625 6.109375 34.5625 8.28125 
Q 37.984375 10.453125 37.984375 14.40625 
Q 37.984375 18.0625 35.515625 20.015625 
Q 33.0625 21.96875 24.703125 23.78125 
L 21.578125 24.515625 
Q 13.234375 26.265625 9.515625 29.90625 
Q 5.8125 33.546875 5.8125 39.890625 
Q 5.8125 47.609375 11.28125 51.796875 
Q 16.75 56 26.8125 56 
Q 31.78125 56 36.171875 55.265625 
Q 40.578125 54.546875 44.28125 53.078125 
z
" id="DejaVuSans-115"/>
       <path d="M 18.3125 70.21875 
L 18.3125 54.6875 
L 36.8125 54.6875 
L 36.8125 47.703125 
L 18.3125 47.703125 
L 18.3125 18.015625 
Q 18.3125 11.328125 20.140625 9.421875 
Q 21.96875 7.515625 27.59375 7.515625 
L 36.8125 7.515625 
L 36.8125 0 
L 27.59375 0 
Q 17.1875 0 13.234375 3.875 
Q 9.28125 7.765625 9.28125 18.015625 
L 9.28125 47.703125 
L 2.6875 47.703125 
L 2.6875 54.6875 
L 9.28125 54.6875 
L 9.28125 70.21875 
z
" id="DejaVuSans-116"/>
       <path d="M 56.203125 29.59375 
L 56.203125 25.203125 
L 14.890625 25.203125 
Q 15.484375 15.921875 20.484375 11.0625 
Q 25.484375 6.203125 34.421875 6.203125 
Q 39.59375 6.203125 44.453125 7.46875 
Q 49.3125 8.734375 54.109375 11.28125 
L 54.109375 2.78125 
Q 49.265625 0.734375 44.1875 -0.34375 
Q 39.109375 -1.421875 33.890625 -1.421875 
Q 20.796875 -1.421875 13.15625 6.1875 
Q 5.515625 13.8125 5.515625 26.8125 
Q 5.515625 40.234375 12.765625 48.109375 
Q 20.015625 56 32.328125 56 
Q 43.359375 56 49.78125 48.890625 
Q 56.203125 41.796875 56.203125 29.59375 
z
M 47.21875 32.234375 
Q 47.125 39.59375 43.09375 43.984375 
Q 39.0625 48.390625 32.421875 48.390625 
Q 24.90625 48.390625 20.390625 44.140625 
Q 15.875 39.890625 15.1875 32.171875 
z
" id="DejaVuSans-101"/>
       <path d="M 18.109375 8.203125 
L 18.109375 -20.796875 
L 9.078125 -20.796875 
L 9.078125 54.6875 
L 18.109375 54.6875 
L 18.109375 46.390625 
Q 20.953125 51.265625 25.265625 53.625 
Q 29.59375 56 35.59375 56 
Q 45.5625 56 51.78125 48.09375 
Q 58.015625 40.1875 58.015625 27.296875 
Q 58.015625 14.40625 51.78125 6.484375 
Q 45.5625 -1.421875 35.59375 -1.421875 
Q 29.59375 -1.421875 25.265625 0.953125 
Q 20.953125 3.328125 18.109375 8.203125 
z
M 48.6875 27.296875 
Q 48.6875 37.203125 44.609375 42.84375 
Q 40.53125 48.484375 33.40625 48.484375 
Q 26.265625 48.484375 22.1875 42.84375 
Q 18.109375 37.203125 18.109375 27.296875 
Q 18.109375 17.390625 22.1875 11.75 
Q 26.265625 6.109375 33.40625 6.109375 
Q 40.53125 6.109375 44.609375 11.75 
Q 48.6875 17.390625 48.6875 27.296875 
z
" id="DejaVuSans-112"/>
      </defs>
      <use xlink:href="#DejaVuSans-115"/>
      <use x="52.099609" xlink:href="#DejaVuSans-116"/>
      <use x="91.308594" xlink:href="#DejaVuSans-101"/>
      <use x="152.832031" xlink:href="#DejaVuSans-112"/>
      <use x="216.308594" xlink:href="#DejaVuSans-115"/>
     </g>
    </g>
   </g>
   <g id="matplotlib.axis_2">
    <g id="ytick_1">
     <g id="line2d_7">
      <defs>
       <path d="M 0 0 
L -12 0 
" id="mf89c1b248d" style="stroke:#262626;stroke-width:2.5;"/>
      </defs>
      <g>
       <use style="fill:#262626;stroke:#262626;stroke-width:2.5;" x="108" xlink:href="#mf89c1b248d" y="484.232734"/>
      </g>
     </g>
     <g id="text_8">
      <!-- 0.000 -->
      <g style="fill:#262626;" transform="translate(29.518125 492.591016)scale(0.22 -0.22)">
       <defs>
        <path d="M 10.6875 12.40625 
L 21 12.40625 
L 21 0 
L 10.6875 0 
z
" id="DejaVuSans-46"/>
       </defs>
       <use xlink:href="#DejaVuSans-48"/>
       <use x="63.623047" xlink:href="#DejaVuSans-46"/>
       <use x="95.410156" xlink:href="#DejaVuSans-48"/>
       <use x="159.033203" xlink:href="#DejaVuSans-48"/>
       <use x="222.65625" xlink:href="#DejaVuSans-48"/>
      </g>
     </g>
    </g>
    <g id="ytick_2">
     <g id="line2d_8">
      <g>
       <use style="fill:#262626;stroke:#262626;stroke-width:2.5;" x="108" xlink:href="#mf89c1b248d" y="430.25715"/>
      </g>
     </g>
     <g id="text_9">
      <!-- 0.025 -->
      <g style="fill:#262626;" transform="translate(29.518125 438.615431)scale(0.22 -0.22)">
       <use xlink:href="#DejaVuSans-48"/>
       <use x="63.623047" xlink:href="#DejaVuSans-46"/>
       <use x="95.410156" xlink:href="#DejaVuSans-48"/>
       <use x="159.033203" xlink:href="#DejaVuSans-50"/>
       <use x="222.65625" xlink:href="#DejaVuSans-53"/>
      </g>
     </g>
    </g>
    <g id="ytick_3">
     <g id="line2d_9">
      <g>
       <use style="fill:#262626;stroke:#262626;stroke-width:2.5;" x="108" xlink:href="#mf89c1b248d" y="376.281565"/>
      </g>
     </g>
     <g id="text_10">
      <!-- 0.050 -->
      <g style="fill:#262626;" transform="translate(29.518125 384.639846)scale(0.22 -0.22)">
       <use xlink:href="#DejaVuSans-48"/>
       <use x="63.623047" xlink:href="#DejaVuSans-46"/>
       <use x="95.410156" xlink:href="#DejaVuSans-48"/>
       <use x="159.033203" xlink:href="#DejaVuSans-53"/>
       <use x="222.65625" xlink:href="#DejaVuSans-48"/>
      </g>
     </g>
    </g>
    <g id="ytick_4">
     <g id="line2d_10">
      <g>
       <use style="fill:#262626;stroke:#262626;stroke-width:2.5;" x="108" xlink:href="#mf89c1b248d" y="322.30598"/>
      </g>
     </g>
     <g id="text_11">
      <!-- 0.075 -->
      <g style="fill:#262626;" transform="translate(29.518125 330.664262)scale(0.22 -0.22)">
       <defs>
        <path d="M 8.203125 72.90625 
L 55.078125 72.90625 
L 55.078125 68.703125 
L 28.609375 0 
L 18.3125 0 
L 43.21875 64.59375 
L 8.203125 64.59375 
z
" id="DejaVuSans-55"/>
       </defs>
       <use xlink:href="#DejaVuSans-48"/>
       <use x="63.623047" xlink:href="#DejaVuSans-46"/>
       <use x="95.410156" xlink:href="#DejaVuSans-48"/>
       <use x="159.033203" xlink:href="#DejaVuSans-55"/>
       <use x="222.65625" xlink:href="#DejaVuSans-53"/>
      </g>
     </g>
    </g>
    <g id="ytick_5">
     <g id="line2d_11">
      <g>
       <use style="fill:#262626;stroke:#262626;stroke-width:2.5;" x="108" xlink:href="#mf89c1b248d" y="268.330396"/>
      </g>
     </g>
     <g id="text_12">
      <!-- 0.100 -->
      <g style="fill:#262626;" transform="translate(29.518125 276.688677)scale(0.22 -0.22)">
       <use xlink:href="#DejaVuSans-48"/>
       <use x="63.623047" xlink:href="#DejaVuSans-46"/>
       <use x="95.410156" xlink:href="#DejaVuSans-49"/>
       <use x="159.033203" xlink:href="#DejaVuSans-48"/>
       <use x="222.65625" xlink:href="#DejaVuSans-48"/>
      </g>
     </g>
    </g>
    <g id="ytick_6">
     <g id="line2d_12">
      <g>
       <use style="fill:#262626;stroke:#262626;stroke-width:2.5;" x="108" xlink:href="#mf89c1b248d" y="214.354811"/>
      </g>
     </g>
     <g id="text_13">
      <!-- 0.125 -->
      <g style="fill:#262626;" transform="translate(29.518125 222.713092)scale(0.22 -0.22)">
       <use xlink:href="#DejaVuSans-48"/>
       <use x="63.623047" xlink:href="#DejaVuSans-46"/>
       <use x="95.410156" xlink:href="#DejaVuSans-49"/>
       <use x="159.033203" xlink:href="#DejaVuSans-50"/>
       <use x="222.65625" xlink:href="#DejaVuSans-53"/>
      </g>
     </g>
    </g>
    <g id="ytick_7">
     <g id="line2d_13">
      <g>
       <use style="fill:#262626;stroke:#262626;stroke-width:2.5;" x="108" xlink:href="#mf89c1b248d" y="160.379226"/>
      </g>
     </g>
     <g id="text_14">
      <!-- 0.150 -->
      <g style="fill:#262626;" transform="translate(29.518125 168.737507)scale(0.22 -0.22)">
       <use xlink:href="#DejaVuSans-48"/>
       <use x="63.623047" xlink:href="#DejaVuSans-46"/>
       <use x="95.410156" xlink:href="#DejaVuSans-49"/>
       <use x="159.033203" xlink:href="#DejaVuSans-53"/>
       <use x="222.65625" xlink:href="#DejaVuSans-48"/>
      </g>
     </g>
    </g>
    <g id="ytick_8">
     <g id="line2d_14">
      <g>
       <use style="fill:#262626;stroke:#262626;stroke-width:2.5;" x="108" xlink:href="#mf89c1b248d" y="106.403641"/>
      </g>
     </g>
     <g id="text_15">
      <!-- 0.175 -->
      <g style="fill:#262626;" transform="translate(29.518125 114.761923)scale(0.22 -0.22)">
       <use xlink:href="#DejaVuSans-48"/>
       <use x="63.623047" xlink:href="#DejaVuSans-46"/>
       <use x="95.410156" xlink:href="#DejaVuSans-49"/>
       <use x="159.033203" xlink:href="#DejaVuSans-55"/>
       <use x="222.65625" xlink:href="#DejaVuSans-53"/>
      </g>
     </g>
    </g>
    <g id="text_16">
     <!-- probability of success -->
     <g style="fill:#262626;" transform="translate(20.526875 416.715)rotate(-90)scale(0.24 -0.24)">
      <defs>
       <path d="M 41.109375 46.296875 
Q 39.59375 47.171875 37.8125 47.578125 
Q 36.03125 48 33.890625 48 
Q 26.265625 48 22.1875 43.046875 
Q 18.109375 38.09375 18.109375 28.8125 
L 18.109375 0 
L 9.078125 0 
L 9.078125 54.6875 
L 18.109375 54.6875 
L 18.109375 46.1875 
Q 20.953125 51.171875 25.484375 53.578125 
Q 30.03125 56 36.53125 56 
Q 37.453125 56 38.578125 55.875 
Q 39.703125 55.765625 41.0625 55.515625 
z
" id="DejaVuSans-114"/>
       <path d="M 30.609375 48.390625 
Q 23.390625 48.390625 19.1875 42.75 
Q 14.984375 37.109375 14.984375 27.296875 
Q 14.984375 17.484375 19.15625 11.84375 
Q 23.34375 6.203125 30.609375 6.203125 
Q 37.796875 6.203125 41.984375 11.859375 
Q 46.1875 17.53125 46.1875 27.296875 
Q 46.1875 37.015625 41.984375 42.703125 
Q 37.796875 48.390625 30.609375 48.390625 
z
M 30.609375 56 
Q 42.328125 56 49.015625 48.375 
Q 55.71875 40.765625 55.71875 27.296875 
Q 55.71875 13.875 49.015625 6.21875 
Q 42.328125 -1.421875 30.609375 -1.421875 
Q 18.84375 -1.421875 12.171875 6.21875 
Q 5.515625 13.875 5.515625 27.296875 
Q 5.515625 40.765625 12.171875 48.375 
Q 18.84375 56 30.609375 56 
z
" id="DejaVuSans-111"/>
       <path d="M 48.6875 27.296875 
Q 48.6875 37.203125 44.609375 42.84375 
Q 40.53125 48.484375 33.40625 48.484375 
Q 26.265625 48.484375 22.1875 42.84375 
Q 18.109375 37.203125 18.109375 27.296875 
Q 18.109375 17.390625 22.1875 11.75 
Q 26.265625 6.109375 33.40625 6.109375 
Q 40.53125 6.109375 44.609375 11.75 
Q 48.6875 17.390625 48.6875 27.296875 
z
M 18.109375 46.390625 
Q 20.953125 51.265625 25.265625 53.625 
Q 29.59375 56 35.59375 56 
Q 45.5625 56 51.78125 48.09375 
Q 58.015625 40.1875 58.015625 27.296875 
Q 58.015625 14.40625 51.78125 6.484375 
Q 45.5625 -1.421875 35.59375 -1.421875 
Q 29.59375 -1.421875 25.265625 0.953125 
Q 20.953125 3.328125 18.109375 8.203125 
L 18.109375 0 
L 9.078125 0 
L 9.078125 75.984375 
L 18.109375 75.984375 
z
" id="DejaVuSans-98"/>
       <path d="M 34.28125 27.484375 
Q 23.390625 27.484375 19.1875 25 
Q 14.984375 22.515625 14.984375 16.5 
Q 14.984375 11.71875 18.140625 8.90625 
Q 21.296875 6.109375 26.703125 6.109375 
Q 34.1875 6.109375 38.703125 11.40625 
Q 43.21875 16.703125 43.21875 25.484375 
L 43.21875 27.484375 
z
M 52.203125 31.203125 
L 52.203125 0 
L 43.21875 0 
L 43.21875 8.296875 
Q 40.140625 3.328125 35.546875 0.953125 
Q 30.953125 -1.421875 24.3125 -1.421875 
Q 15.921875 -1.421875 10.953125 3.296875 
Q 6 8.015625 6 15.921875 
Q 6 25.140625 12.171875 29.828125 
Q 18.359375 34.515625 30.609375 34.515625 
L 43.21875 34.515625 
L 43.21875 35.40625 
Q 43.21875 41.609375 39.140625 45 
Q 35.0625 48.390625 27.6875 48.390625 
Q 23 48.390625 18.546875 47.265625 
Q 14.109375 46.140625 10.015625 43.890625 
L 10.015625 52.203125 
Q 14.9375 54.109375 19.578125 55.046875 
Q 24.21875 56 28.609375 56 
Q 40.484375 56 46.34375 49.84375 
Q 52.203125 43.703125 52.203125 31.203125 
z
" id="DejaVuSans-97"/>
       <path d="M 9.421875 54.6875 
L 18.40625 54.6875 
L 18.40625 0 
L 9.421875 0 
z
M 9.421875 75.984375 
L 18.40625 75.984375 
L 18.40625 64.59375 
L 9.421875 64.59375 
z
" id="DejaVuSans-105"/>
       <path d="M 9.421875 75.984375 
L 18.40625 75.984375 
L 18.40625 0 
L 9.421875 0 
z
" id="DejaVuSans-108"/>
       <path d="M 32.171875 -5.078125 
Q 28.375 -14.84375 24.75 -17.8125 
Q 21.140625 -20.796875 15.09375 -20.796875 
L 7.90625 -20.796875 
L 7.90625 -13.28125 
L 13.1875 -13.28125 
Q 16.890625 -13.28125 18.9375 -11.515625 
Q 21 -9.765625 23.484375 -3.21875 
L 25.09375 0.875 
L 2.984375 54.6875 
L 12.5 54.6875 
L 29.59375 11.921875 
L 46.6875 54.6875 
L 56.203125 54.6875 
z
" id="DejaVuSans-121"/>
       <path id="DejaVuSans-32"/>
       <path d="M 37.109375 75.984375 
L 37.109375 68.5 
L 28.515625 68.5 
Q 23.6875 68.5 21.796875 66.546875 
Q 19.921875 64.59375 19.921875 59.515625 
L 19.921875 54.6875 
L 34.71875 54.6875 
L 34.71875 47.703125 
L 19.921875 47.703125 
L 19.921875 0 
L 10.890625 0 
L 10.890625 47.703125 
L 2.296875 47.703125 
L 2.296875 54.6875 
L 10.890625 54.6875 
L 10.890625 58.5 
Q 10.890625 67.625 15.140625 71.796875 
Q 19.390625 75.984375 28.609375 75.984375 
z
" id="DejaVuSans-102"/>
       <path d="M 8.5 21.578125 
L 8.5 54.6875 
L 17.484375 54.6875 
L 17.484375 21.921875 
Q 17.484375 14.15625 20.5 10.265625 
Q 23.53125 6.390625 29.59375 6.390625 
Q 36.859375 6.390625 41.078125 11.03125 
Q 45.3125 15.671875 45.3125 23.6875 
L 45.3125 54.6875 
L 54.296875 54.6875 
L 54.296875 0 
L 45.3125 0 
L 45.3125 8.40625 
Q 42.046875 3.421875 37.71875 1 
Q 33.40625 -1.421875 27.6875 -1.421875 
Q 18.265625 -1.421875 13.375 4.4375 
Q 8.5 10.296875 8.5 21.578125 
z
M 31.109375 56 
z
" id="DejaVuSans-117"/>
       <path d="M 48.78125 52.59375 
L 48.78125 44.1875 
Q 44.96875 46.296875 41.140625 47.34375 
Q 37.3125 48.390625 33.40625 48.390625 
Q 24.65625 48.390625 19.8125 42.84375 
Q 14.984375 37.3125 14.984375 27.296875 
Q 14.984375 17.28125 19.8125 11.734375 
Q 24.65625 6.203125 33.40625 6.203125 
Q 37.3125 6.203125 41.140625 7.25 
Q 44.96875 8.296875 48.78125 10.40625 
L 48.78125 2.09375 
Q 45.015625 0.34375 40.984375 -0.53125 
Q 36.96875 -1.421875 32.421875 -1.421875 
Q 20.0625 -1.421875 12.78125 6.34375 
Q 5.515625 14.109375 5.515625 27.296875 
Q 5.515625 40.671875 12.859375 48.328125 
Q 20.21875 56 33.015625 56 
Q 37.15625 56 41.109375 55.140625 
Q 45.0625 54.296875 48.78125 52.59375 
z
" id="DejaVuSans-99"/>
      </defs>
      <use xlink:href="#DejaVuSans-112"/>
      <use x="63.476562" xlink:href="#DejaVuSans-114"/>
      <use x="102.339844" xlink:href="#DejaVuSans-111"/>
      <use x="163.521484" xlink:href="#DejaVuSans-98"/>
      <use x="226.998047" xlink:href="#DejaVuSans-97"/>
      <use x="288.277344" xlink:href="#DejaVuSans-98"/>
      <use x="351.753906" xlink:href="#DejaVuSans-105"/>
      <use x="379.537109" xlink:href="#DejaVuSans-108"/>
      <use x="407.320312" xlink:href="#DejaVuSans-105"/>
      <use x="435.103516" xlink:href="#DejaVuSans-116"/>
      <use x="474.3125" xlink:href="#DejaVuSans-121"/>
      <use x="533.492188" xlink:href="#DejaVuSans-32"/>
      <use x="565.279297" xlink:href="#DejaVuSans-111"/>
      <use x="626.460938" xlink:href="#DejaVuSans-102"/>
      <use x="661.666016" xlink:href="#DejaVuSans-32"/>
      <use x="693.453125" xlink:href="#DejaVuSans-115"/>
      <use x="745.552734" xlink:href="#DejaVuSans-117"/>
      <use x="808.931641" xlink:href="#DejaVuSans-99"/>
      <use x="863.912109" xlink:href="#DejaVuSans-99"/>
      <use x="918.892578" xlink:href="#DejaVuSans-101"/>
      <use x="980.416016" xlink:href="#DejaVuSans-115"/>
      <use x="1032.515625" xlink:href="#DejaVuSans-115"/>
     </g>
    </g>
   </g>
   <g id="line2d_15">
    <path clip-path="url(#pa83664e870)" d="M 138.436364 416.763254 
L 150.610909 416.763254 
L 162.785455 264.956922 
L 174.96 264.956922 
L 187.134545 159.535858 
L 199.309091 159.535858 
L 211.483636 145.831119 
L 223.658182 145.831119 
L 235.832727 269.437317 
L 248.007273 269.437317 
L 260.181818 198.739316 
L 272.356364 198.739316 
L 284.530909 88.887273 
L 296.705455 88.887273 
L 308.88 234.759552 
L 321.054545 234.759552 
L 333.229091 424.895294 
L 345.403636 424.895294 
L 357.578182 466.503413 
L 369.752727 466.503413 
L 381.927273 287.12771 
L 394.101818 287.12771 
L 406.276364 134.836595 
L 418.450909 134.836595 
L 430.625455 157.521439 
L 442.8 157.521439 
L 454.974545 230.820075 
L 467.149091 230.820075 
L 479.323636 214.371074 
L 491.498182 214.371074 
L 503.672727 167.648439 
L 515.847273 167.648439 
L 528.021818 132.699648 
L 540.196364 132.699648 
L 552.370909 423.165261 
L 564.545455 423.165261 
L 576.72 464.607348 
L 588.894545 464.607348 
L 601.069091 339.011378 
L 613.243636 339.011378 
L 625.418182 100.129414 
L 637.592727 100.129414 
L 649.767273 150.400702 
L 661.941818 150.400702 
L 674.116364 256.568394 
L 686.290909 256.568394 
L 698.465455 230.45466 
L 710.64 230.45466 
L 722.814545 171.394892 
L 734.989091 171.394892 
L 747.163636 156.996757 
" style="fill:none;stroke:#4c72b0;stroke-dasharray:11.1,4.8;stroke-dashoffset:0;stroke-width:3;"/>
    <defs>
     <path d="M 0 6 
C 1.591219 6 3.117479 5.367802 4.242641 4.242641 
C 5.367802 3.117479 6 1.591219 6 0 
C 6 -1.591219 5.367802 -3.117479 4.242641 -4.242641 
C 3.117479 -5.367802 1.591219 -6 0 -6 
C -1.591219 -6 -3.117479 -5.367802 -4.242641 -4.242641 
C -5.367802 -3.117479 -6 -1.591219 -6 0 
C -6 1.591219 -5.367802 3.117479 -4.242641 4.242641 
C -3.117479 5.367802 -1.591219 6 0 6 
z
" id="m50ff586174" style="stroke:#4c72b0;"/>
    </defs>
    <g clip-path="url(#pa83664e870)">
     <use style="fill:#4c72b0;stroke:#4c72b0;" x="138.436364" xlink:href="#m50ff586174" y="416.763254"/>
     <use style="fill:#4c72b0;stroke:#4c72b0;" x="150.610909" xlink:href="#m50ff586174" y="416.763254"/>
     <use style="fill:#4c72b0;stroke:#4c72b0;" x="162.785455" xlink:href="#m50ff586174" y="264.956922"/>
     <use style="fill:#4c72b0;stroke:#4c72b0;" x="174.96" xlink:href="#m50ff586174" y="264.956922"/>
     <use style="fill:#4c72b0;stroke:#4c72b0;" x="187.134545" xlink:href="#m50ff586174" y="159.535858"/>
     <use style="fill:#4c72b0;stroke:#4c72b0;" x="199.309091" xlink:href="#m50ff586174" y="159.535858"/>
     <use style="fill:#4c72b0;stroke:#4c72b0;" x="211.483636" xlink:href="#m50ff586174" y="145.831119"/>
     <use style="fill:#4c72b0;stroke:#4c72b0;" x="223.658182" xlink:href="#m50ff586174" y="145.831119"/>
     <use style="fill:#4c72b0;stroke:#4c72b0;" x="235.832727" xlink:href="#m50ff586174" y="269.437317"/>
     <use style="fill:#4c72b0;stroke:#4c72b0;" x="248.007273" xlink:href="#m50ff586174" y="269.437317"/>
     <use style="fill:#4c72b0;stroke:#4c72b0;" x="260.181818" xlink:href="#m50ff586174" y="198.739316"/>
     <use style="fill:#4c72b0;stroke:#4c72b0;" x="272.356364" xlink:href="#m50ff586174" y="198.739316"/>
     <use style="fill:#4c72b0;stroke:#4c72b0;" x="284.530909" xlink:href="#m50ff586174" y="88.887273"/>
     <use style="fill:#4c72b0;stroke:#4c72b0;" x="296.705455" xlink:href="#m50ff586174" y="88.887273"/>
     <use style="fill:#4c72b0;stroke:#4c72b0;" x="308.88" xlink:href="#m50ff586174" y="234.759552"/>
     <use style="fill:#4c72b0;stroke:#4c72b0;" x="321.054545" xlink:href="#m50ff586174" y="234.759552"/>
     <use style="fill:#4c72b0;stroke:#4c72b0;" x="333.229091" xlink:href="#m50ff586174" y="424.895294"/>
     <use style="fill:#4c72b0;stroke:#4c72b0;" x="345.403636" xlink:href="#m50ff586174" y="424.895294"/>
     <use style="fill:#4c72b0;stroke:#4c72b0;" x="357.578182" xlink:href="#m50ff586174" y="466.503413"/>
     <use style="fill:#4c72b0;stroke:#4c72b0;" x="369.752727" xlink:href="#m50ff586174" y="466.503413"/>
     <use style="fill:#4c72b0;stroke:#4c72b0;" x="381.927273" xlink:href="#m50ff586174" y="287.12771"/>
     <use style="fill:#4c72b0;stroke:#4c72b0;" x="394.101818" xlink:href="#m50ff586174" y="287.12771"/>
     <use style="fill:#4c72b0;stroke:#4c72b0;" x="406.276364" xlink:href="#m50ff586174" y="134.836595"/>
     <use style="fill:#4c72b0;stroke:#4c72b0;" x="418.450909" xlink:href="#m50ff586174" y="134.836595"/>
     <use style="fill:#4c72b0;stroke:#4c72b0;" x="430.625455" xlink:href="#m50ff586174" y="157.521439"/>
     <use style="fill:#4c72b0;stroke:#4c72b0;" x="442.8" xlink:href="#m50ff586174" y="157.521439"/>
     <use style="fill:#4c72b0;stroke:#4c72b0;" x="454.974545" xlink:href="#m50ff586174" y="230.820075"/>
     <use style="fill:#4c72b0;stroke:#4c72b0;" x="467.149091" xlink:href="#m50ff586174" y="230.820075"/>
     <use style="fill:#4c72b0;stroke:#4c72b0;" x="479.323636" xlink:href="#m50ff586174" y="214.371074"/>
     <use style="fill:#4c72b0;stroke:#4c72b0;" x="491.498182" xlink:href="#m50ff586174" y="214.371074"/>
     <use style="fill:#4c72b0;stroke:#4c72b0;" x="503.672727" xlink:href="#m50ff586174" y="167.648439"/>
     <use style="fill:#4c72b0;stroke:#4c72b0;" x="515.847273" xlink:href="#m50ff586174" y="167.648439"/>
     <use style="fill:#4c72b0;stroke:#4c72b0;" x="528.021818" xlink:href="#m50ff586174" y="132.699648"/>
     <use style="fill:#4c72b0;stroke:#4c72b0;" x="540.196364" xlink:href="#m50ff586174" y="132.699648"/>
     <use style="fill:#4c72b0;stroke:#4c72b0;" x="552.370909" xlink:href="#m50ff586174" y="423.165261"/>
     <use style="fill:#4c72b0;stroke:#4c72b0;" x="564.545455" xlink:href="#m50ff586174" y="423.165261"/>
     <use style="fill:#4c72b0;stroke:#4c72b0;" x="576.72" xlink:href="#m50ff586174" y="464.607348"/>
     <use style="fill:#4c72b0;stroke:#4c72b0;" x="588.894545" xlink:href="#m50ff586174" y="464.607348"/>
     <use style="fill:#4c72b0;stroke:#4c72b0;" x="601.069091" xlink:href="#m50ff586174" y="339.011378"/>
     <use style="fill:#4c72b0;stroke:#4c72b0;" x="613.243636" xlink:href="#m50ff586174" y="339.011378"/>
     <use style="fill:#4c72b0;stroke:#4c72b0;" x="625.418182" xlink:href="#m50ff586174" y="100.129414"/>
     <use style="fill:#4c72b0;stroke:#4c72b0;" x="637.592727" xlink:href="#m50ff586174" y="100.129414"/>
     <use style="fill:#4c72b0;stroke:#4c72b0;" x="649.767273" xlink:href="#m50ff586174" y="150.400702"/>
     <use style="fill:#4c72b0;stroke:#4c72b0;" x="661.941818" xlink:href="#m50ff586174" y="150.400702"/>
     <use style="fill:#4c72b0;stroke:#4c72b0;" x="674.116364" xlink:href="#m50ff586174" y="256.568394"/>
     <use style="fill:#4c72b0;stroke:#4c72b0;" x="686.290909" xlink:href="#m50ff586174" y="256.568394"/>
     <use style="fill:#4c72b0;stroke:#4c72b0;" x="698.465455" xlink:href="#m50ff586174" y="230.45466"/>
     <use style="fill:#4c72b0;stroke:#4c72b0;" x="710.64" xlink:href="#m50ff586174" y="230.45466"/>
     <use style="fill:#4c72b0;stroke:#4c72b0;" x="722.814545" xlink:href="#m50ff586174" y="171.394892"/>
     <use style="fill:#4c72b0;stroke:#4c72b0;" x="734.989091" xlink:href="#m50ff586174" y="171.394892"/>
     <use style="fill:#4c72b0;stroke:#4c72b0;" x="747.163636" xlink:href="#m50ff586174" y="156.996757"/>
    </g>
   </g>
   <g id="line2d_16">
    <path clip-path="url(#pa83664e870)" d="M 138.436364 466.075836 
L 143.311057 462.865717 
L 148.795086 458.966987 
L 154.279115 454.772484 
L 159.763145 450.291663 
L 165.247174 445.53462 
L 171.340541 439.938112 
L 177.433907 434.029408 
L 183.527273 427.824946 
L 190.229975 420.679062 
L 196.932678 413.220267 
L 204.244717 404.756053 
L 212.166093 395.239348 
L 220.696806 384.636937 
L 230.446192 372.143396 
L 241.414251 357.714632 
L 256.038329 338.078751 
L 288.33317 294.580827 
L 299.910565 279.441496 
L 309.659951 267.062342 
L 318.190663 256.581877 
L 326.112039 247.196069 
L 333.424079 238.867236 
L 340.126781 231.544339 
L 346.829484 224.545167 
L 352.92285 218.483051 
L 359.016216 212.724826 
L 365.109582 207.286513 
L 370.593612 202.678078 
L 376.077641 198.351424 
L 381.561671 194.3163 
L 387.0457 190.5818 
L 391.920393 187.521438 
L 396.795086 184.710715 
L 401.669779 182.154635 
L 406.544472 179.857749 
L 411.419165 177.824148 
L 416.293857 176.057452 
L 420.559214 174.733023 
L 424.82457 173.617166 
L 429.089926 172.711401 
L 433.355283 172.016963 
L 437.620639 171.534798 
L 441.885995 171.265565 
L 446.151351 171.20963 
L 450.416708 171.36707 
L 454.682064 171.737669 
L 458.94742 172.320923 
L 463.212776 173.116036 
L 467.478133 174.121924 
L 471.743489 175.337217 
L 476.008845 176.760257 
L 480.883538 178.638471 
L 485.758231 180.78214 
L 490.632924 183.187447 
L 495.507617 185.85011 
L 500.38231 188.765388 
L 505.257002 191.928088 
L 510.131695 195.33258 
L 515.615725 199.444086 
L 521.099754 203.844659 
L 526.583784 208.524384 
L 532.67715 214.038631 
L 538.770516 219.869134 
L 544.863882 225.999673 
L 551.566585 233.069428 
L 558.269287 240.457776 
L 565.581327 248.851895 
L 573.502703 258.300938 
L 582.033415 268.840458 
L 591.173464 280.487426 
L 602.141523 294.847371 
L 615.546929 312.787327 
L 655.153808 366.036801 
L 665.512531 379.473104 
L 674.65258 390.986702 
L 683.183292 401.376934 
L 691.104668 410.666628 
L 698.416708 418.896606 
L 705.11941 426.120687 
L 711.822113 433.013539 
L 717.915479 438.972793 
L 724.008845 444.622536 
L 730.102211 449.947052 
L 735.586241 454.448784 
L 741.07027 458.664926 
L 746.5543 462.585977 
L 747.163636 463.003044 
L 747.163636 463.003044 
" style="fill:none;stroke:#dd8452;stroke-linecap:round;stroke-width:3;"/>
   </g>
   <g id="line2d_17">
    <path clip-path="url(#pa83664e870)" d="M 138.436364 462.238489 
L 140.87371 455.954896 
L 143.311057 448.953716 
L 145.748403 441.266357 
L 148.185749 432.927303 
L 151.232432 421.644296 
L 154.279115 409.480741 
L 157.935135 393.842572 
L 161.591155 377.217227 
L 165.856511 356.797557 
L 171.340541 329.357811 
L 181.699263 275.979759 
L 188.401966 242.031791 
L 193.276658 218.425838 
L 197.542015 198.897249 
L 201.198034 183.209679 
L 204.244717 170.999525 
L 207.2914 159.665327 
L 210.338084 149.286516 
L 212.77543 141.720459 
L 215.212776 134.84648 
L 217.650123 128.695414 
L 219.478133 124.573251 
L 221.306143 120.883722 
L 223.134152 117.636137 
L 224.962162 114.838693 
L 226.790172 112.49845 
L 228.618182 110.621315 
L 229.836855 109.629561 
L 231.055528 108.846875 
L 232.274201 108.274135 
L 233.492875 107.911984 
L 234.711548 107.760827 
L 235.930221 107.820835 
L 237.148894 108.09194 
L 238.367568 108.573838 
L 239.586241 109.265988 
L 240.804914 110.167614 
L 242.023587 111.277704 
L 243.851597 113.330922 
L 245.679607 115.845147 
L 247.507617 118.814032 
L 249.335627 122.230086 
L 251.163636 126.084686 
L 252.991646 130.368105 
L 255.428993 136.727544 
L 257.866339 143.801458 
L 260.303686 151.558113 
L 262.741032 159.962713 
L 265.787715 171.321933 
L 268.834398 183.55485 
L 272.490418 199.26653 
L 276.146437 215.954081 
L 280.411794 236.431208 
L 285.895823 263.919728 
L 306.003931 366.067683 
L 310.269287 386.02156 
L 313.925307 402.151166 
L 317.581327 417.209774 
L 320.62801 428.830522 
L 323.674693 439.520362 
L 326.112039 447.351405 
L 328.549386 454.503456 
L 330.986732 460.94443 
L 333.424079 466.645435 
L 335.252088 470.420069 
L 337.080098 473.754487 
L 338.908108 476.640274 
L 340.736118 479.070146 
L 342.564128 481.03797 
L 343.782801 482.090659 
L 345.001474 482.934582 
L 346.220147 483.56879 
L 347.438821 483.992574 
L 348.657494 484.205457 
L 349.876167 484.207201 
L 351.09484 483.997804 
L 352.313514 483.5775 
L 353.532187 482.946762 
L 354.75086 482.106297 
L 355.969533 481.057047 
L 357.797543 479.09434 
L 359.625553 476.669524 
L 361.453563 473.78872 
L 363.281572 470.459198 
L 365.109582 466.689361 
L 366.937592 462.488723 
L 369.374939 456.236216 
L 371.812285 449.264859 
L 374.249631 441.605926 
L 376.686978 433.293776 
L 379.733661 422.042073 
L 382.780344 409.907035 
L 386.436364 394.299127 
L 390.092383 377.699436 
L 394.35774 357.303532 
L 399.841769 329.884101 
L 410.200491 276.511701 
L 416.903194 242.544452 
L 421.777887 218.913519 
L 426.043243 199.355882 
L 429.699263 183.638386 
L 432.745946 171.399975 
L 435.792629 160.034715 
L 438.839312 149.622251 
L 441.276658 142.027568 
L 443.714005 135.123583 
L 446.151351 128.941269 
L 447.979361 124.794939 
L 449.807371 121.080682 
L 451.635381 117.807873 
L 453.463391 114.984771 
L 455.2914 112.618502 
L 457.11941 110.715037 
L 458.338084 109.705595 
L 459.556757 108.905135 
L 460.77543 108.314556 
L 461.994103 107.934521 
L 463.212776 107.765454 
L 464.43145 107.807547 
L 465.650123 108.060752 
L 466.868796 108.524785 
L 468.087469 109.199125 
L 469.306143 110.083016 
L 470.524816 111.175466 
L 472.352826 113.202445 
L 474.180835 115.690755 
L 476.008845 118.634115 
L 477.836855 122.025098 
L 479.664865 125.855145 
L 481.492875 130.11459 
L 483.930221 136.443068 
L 486.367568 143.487298 
L 488.804914 151.215678 
L 491.24226 159.593539 
L 494.288943 170.921678 
L 497.335627 183.126319 
L 500.991646 198.808048 
L 504.647666 215.470274 
L 508.913022 235.924039 
L 514.397052 263.392786 
L 534.50516 365.57095 
L 538.770516 385.551444 
L 542.426536 401.709018 
L 546.082555 416.800053 
L 549.129238 428.450998 
L 552.175921 439.173693 
L 554.613268 447.032782 
L 557.050614 454.214308 
L 559.487961 460.686054 
L 561.925307 466.41899 
L 563.753317 470.218247 
L 565.581327 473.577798 
L 567.409337 476.489163 
L 569.237346 478.944994 
L 571.065356 480.939094 
L 572.284029 482.009443 
L 573.502703 482.871116 
L 574.721376 483.523147 
L 575.940049 483.964804 
L 577.158722 484.195592 
L 578.377396 484.215251 
L 579.596069 484.02376 
L 580.814742 483.621334 
L 582.033415 483.008424 
L 583.252088 482.185717 
L 584.470762 481.154137 
L 586.298771 479.217725 
L 588.126781 476.818892 
L 589.954791 473.963695 
L 591.782801 470.659337 
L 593.610811 466.914159 
L 595.438821 462.737614 
L 597.876167 456.516241 
L 600.313514 449.574764 
L 602.75086 441.94432 
L 605.188206 433.65914 
L 608.234889 422.438833 
L 611.281572 410.33241 
L 614.937592 394.754887 
L 618.593612 378.180985 
L 622.858968 357.809012 
L 628.342998 330.410117 
L 638.092383 280.182833 
L 645.404423 243.057545 
L 650.279115 219.401822 
L 654.544472 199.815296 
L 658.200491 184.068 
L 661.247174 171.801432 
L 664.293857 160.4052 
L 667.340541 149.959169 
L 669.777887 142.335919 
L 672.215233 135.401986 
L 674.65258 129.188473 
L 677.089926 123.723257 
L 678.917936 120.130291 
L 680.745946 116.981171 
L 682.573956 114.283846 
L 684.401966 112.045122 
L 686.229975 110.270649 
L 687.448649 109.347845 
L 688.667322 108.634425 
L 689.885995 108.131189 
L 691.104668 107.838702 
L 692.323342 107.757292 
L 693.542015 107.88705 
L 694.760688 108.227832 
L 695.979361 108.779253 
L 697.198034 109.540697 
L 698.416708 110.511308 
L 699.635381 111.689997 
L 701.463391 113.845224 
L 703.2914 116.460159 
L 705.11941 119.528203 
L 706.94742 123.041612 
L 708.77543 126.99152 
L 711.212776 132.919677 
L 713.650123 139.57939 
L 716.087469 146.940785 
L 718.524816 154.970838 
L 721.571499 165.893554 
L 724.618182 177.728008 
L 727.664865 190.391266 
L 731.320885 206.555872 
L 735.586241 226.543052 
L 740.460934 250.536365 
L 747.163636 284.767104 
L 747.163636 284.767104 
" style="fill:none;stroke:#55a868;stroke-linecap:round;stroke-width:3;"/>
   </g>
   <g id="patch_3">
    <path d="M 108 504 
L 108 69.12 
" style="fill:none;stroke:#262626;stroke-linecap:square;stroke-linejoin:miter;stroke-width:2.5;"/>
   </g>
   <g id="patch_4">
    <path d="M 777.6 504 
L 777.6 69.12 
" style="fill:none;stroke:#262626;stroke-linecap:square;stroke-linejoin:miter;stroke-width:2.5;"/>
   </g>
   <g id="patch_5">
    <path d="M 108 504 
L 777.6 504 
" style="fill:none;stroke:#262626;stroke-linecap:square;stroke-linejoin:miter;stroke-width:2.5;"/>
   </g>
   <g id="patch_6">
    <path d="M 108 69.12 
L 777.6 69.12 
" style="fill:none;stroke:#262626;stroke-linecap:square;stroke-linejoin:miter;stroke-width:2.5;"/>
   </g>
   <g id="legend_1">
    <g id="patch_7">
     <path d="M 123.4 183.595625 
L 415.484375 183.595625 
Q 419.884375 183.595625 419.884375 179.195625 
L 419.884375 84.52 
Q 419.884375 80.12 415.484375 80.12 
L 123.4 80.12 
Q 119 80.12 119 84.52 
L 119 179.195625 
Q 119 183.595625 123.4 183.595625 
z
" style="fill:#ffffff;opacity:0.8;stroke:#cccccc;stroke-linejoin:miter;stroke-width:2;"/>
    </g>
    <g id="line2d_18">
     <path d="M 127.8 97.936563 
L 171.8 97.936563 
" style="fill:none;stroke:#4c72b0;stroke-dasharray:11.1,4.8;stroke-dashoffset:0;stroke-width:3;"/>
    </g>
    <g id="line2d_19">
     <g>
      <use style="fill:#4c72b0;stroke:#4c72b0;" x="149.8" xlink:href="#m50ff586174" y="97.936563"/>
     </g>
    </g>
    <g id="text_17">
     <!-- search -->
     <g style="fill:#262626;" transform="translate(189.4 105.636563)scale(0.22 -0.22)">
      <defs>
       <path d="M 54.890625 33.015625 
L 54.890625 0 
L 45.90625 0 
L 45.90625 32.71875 
Q 45.90625 40.484375 42.875 44.328125 
Q 39.84375 48.1875 33.796875 48.1875 
Q 26.515625 48.1875 22.3125 43.546875 
Q 18.109375 38.921875 18.109375 30.90625 
L 18.109375 0 
L 9.078125 0 
L 9.078125 75.984375 
L 18.109375 75.984375 
L 18.109375 46.1875 
Q 21.34375 51.125 25.703125 53.5625 
Q 30.078125 56 35.796875 56 
Q 45.21875 56 50.046875 50.171875 
Q 54.890625 44.34375 54.890625 33.015625 
z
" id="DejaVuSans-104"/>
      </defs>
      <use xlink:href="#DejaVuSans-115"/>
      <use x="52.099609" xlink:href="#DejaVuSans-101"/>
      <use x="113.623047" xlink:href="#DejaVuSans-97"/>
      <use x="174.902344" xlink:href="#DejaVuSans-114"/>
      <use x="213.765625" xlink:href="#DejaVuSans-99"/>
      <use x="268.746094" xlink:href="#DejaVuSans-104"/>
     </g>
    </g>
    <g id="line2d_20">
     <path d="M 127.8 130.228438 
L 171.8 130.228438 
" style="fill:none;stroke:#dd8452;stroke-linecap:round;stroke-width:3;"/>
    </g>
    <g id="line2d_21"/>
    <g id="text_18">
     <!-- predicted frequency -->
     <g style="fill:#262626;" transform="translate(189.4 137.928438)scale(0.22 -0.22)">
      <defs>
       <path d="M 45.40625 46.390625 
L 45.40625 75.984375 
L 54.390625 75.984375 
L 54.390625 0 
L 45.40625 0 
L 45.40625 8.203125 
Q 42.578125 3.328125 38.25 0.953125 
Q 33.9375 -1.421875 27.875 -1.421875 
Q 17.96875 -1.421875 11.734375 6.484375 
Q 5.515625 14.40625 5.515625 27.296875 
Q 5.515625 40.1875 11.734375 48.09375 
Q 17.96875 56 27.875 56 
Q 33.9375 56 38.25 53.625 
Q 42.578125 51.265625 45.40625 46.390625 
z
M 14.796875 27.296875 
Q 14.796875 17.390625 18.875 11.75 
Q 22.953125 6.109375 30.078125 6.109375 
Q 37.203125 6.109375 41.296875 11.75 
Q 45.40625 17.390625 45.40625 27.296875 
Q 45.40625 37.203125 41.296875 42.84375 
Q 37.203125 48.484375 30.078125 48.484375 
Q 22.953125 48.484375 18.875 42.84375 
Q 14.796875 37.203125 14.796875 27.296875 
z
" id="DejaVuSans-100"/>
       <path d="M 14.796875 27.296875 
Q 14.796875 17.390625 18.875 11.75 
Q 22.953125 6.109375 30.078125 6.109375 
Q 37.203125 6.109375 41.296875 11.75 
Q 45.40625 17.390625 45.40625 27.296875 
Q 45.40625 37.203125 41.296875 42.84375 
Q 37.203125 48.484375 30.078125 48.484375 
Q 22.953125 48.484375 18.875 42.84375 
Q 14.796875 37.203125 14.796875 27.296875 
z
M 45.40625 8.203125 
Q 42.578125 3.328125 38.25 0.953125 
Q 33.9375 -1.421875 27.875 -1.421875 
Q 17.96875 -1.421875 11.734375 6.484375 
Q 5.515625 14.40625 5.515625 27.296875 
Q 5.515625 40.1875 11.734375 48.09375 
Q 17.96875 56 27.875 56 
Q 33.9375 56 38.25 53.625 
Q 42.578125 51.265625 45.40625 46.390625 
L 45.40625 54.6875 
L 54.390625 54.6875 
L 54.390625 -20.796875 
L 45.40625 -20.796875 
z
" id="DejaVuSans-113"/>
       <path d="M 54.890625 33.015625 
L 54.890625 0 
L 45.90625 0 
L 45.90625 32.71875 
Q 45.90625 40.484375 42.875 44.328125 
Q 39.84375 48.1875 33.796875 48.1875 
Q 26.515625 48.1875 22.3125 43.546875 
Q 18.109375 38.921875 18.109375 30.90625 
L 18.109375 0 
L 9.078125 0 
L 9.078125 54.6875 
L 18.109375 54.6875 
L 18.109375 46.1875 
Q 21.34375 51.125 25.703125 53.5625 
Q 30.078125 56 35.796875 56 
Q 45.21875 56 50.046875 50.171875 
Q 54.890625 44.34375 54.890625 33.015625 
z
" id="DejaVuSans-110"/>
      </defs>
      <use xlink:href="#DejaVuSans-112"/>
      <use x="63.476562" xlink:href="#DejaVuSans-114"/>
      <use x="102.339844" xlink:href="#DejaVuSans-101"/>
      <use x="163.863281" xlink:href="#DejaVuSans-100"/>
      <use x="227.339844" xlink:href="#DejaVuSans-105"/>
      <use x="255.123047" xlink:href="#DejaVuSans-99"/>
      <use x="310.103516" xlink:href="#DejaVuSans-116"/>
      <use x="349.3125" xlink:href="#DejaVuSans-101"/>
      <use x="410.835938" xlink:href="#DejaVuSans-100"/>
      <use x="474.3125" xlink:href="#DejaVuSans-32"/>
      <use x="506.099609" xlink:href="#DejaVuSans-102"/>
      <use x="541.304688" xlink:href="#DejaVuSans-114"/>
      <use x="580.167969" xlink:href="#DejaVuSans-101"/>
      <use x="641.691406" xlink:href="#DejaVuSans-113"/>
      <use x="705.167969" xlink:href="#DejaVuSans-117"/>
      <use x="768.546875" xlink:href="#DejaVuSans-101"/>
      <use x="830.070312" xlink:href="#DejaVuSans-110"/>
      <use x="893.449219" xlink:href="#DejaVuSans-99"/>
      <use x="948.429688" xlink:href="#DejaVuSans-121"/>
     </g>
    </g>
    <g id="line2d_22">
     <path d="M 127.8 162.520313 
L 171.8 162.520313 
" style="fill:none;stroke:#55a868;stroke-linecap:round;stroke-width:3;"/>
    </g>
    <g id="line2d_23"/>
    <g id="text_19">
     <!-- fit -->
     <g style="fill:#262626;" transform="translate(189.4 170.220313)scale(0.22 -0.22)">
      <use xlink:href="#DejaVuSans-102"/>
      <use x="35.205078" xlink:href="#DejaVuSans-105"/>
      <use x="62.988281" xlink:href="#DejaVuSans-116"/>
     </g>
    </g>
   </g>
  </g>
 </g>
 <defs>
  <clipPath id="pa83664e870">
   <rect height="434.88" width="669.6" x="108" y="69.12"/>
  </clipPath>
 </defs>
</svg>
