<?xml version="1.0" encoding="utf-8" standalone="no"?>
<!DOCTYPE svg PUBLIC "-//W3C//DTD SVG 1.1//EN"
  "http://www.w3.org/Graphics/SVG/1.1/DTD/svg11.dtd">
<!-- Created with matplotlib (https://matplotlib.org/) -->
<svg height="504pt" version="1.1" viewBox="0 0 864 504" width="864pt" xmlns="http://www.w3.org/2000/svg" xmlns:xlink="http://www.w3.org/1999/xlink">
 <metadata>
  <rdf:RDF xmlns:cc="http://creativecommons.org/ns#" xmlns:dc="http://purl.org/dc/elements/1.1/" xmlns:rdf="http://www.w3.org/1999/02/22-rdf-syntax-ns#">
   <cc:Work>
    <dc:type rdf:resource="http://purl.org/dc/dcmitype/StillImage"/>
    <dc:date>2022-01-30T19:32:46.892382</dc:date>
    <dc:format>image/svg+xml</dc:format>
    <dc:creator>
     <cc:Agent>
      <dc:title>Matplotlib v3.3.2, https://matplotlib.org/</dc:title>
     </cc:Agent>
    </dc:creator>
   </cc:Work>
  </rdf:RDF>
 </metadata>
 <defs>
  <style type="text/css">*{stroke-linecap:butt;stroke-linejoin:round;}</style>
 </defs>
 <g id="figure_1">
  <g id="patch_1">
   <path d="M 0 504 
L 864 504 
L 864 0 
L 0 0 
z
" style="fill:#ffffff;"/>
  </g>
  <g id="axes_1">
   <g id="patch_2">
    <path d="M 108 441 
L 777.6 441 
L 777.6 60.48 
L 108 60.48 
z
" style="fill:#ffffff;"/>
   </g>
   <g id="matplotlib.axis_1">
    <g id="xtick_1">
     <g id="line2d_1">
      <defs>
       <path d="M 0 0 
L 0 12 
" id="m79dd6927ea" style="stroke:#262626;stroke-width:2.5;"/>
      </defs>
      <g>
       <use style="fill:#262626;stroke:#262626;stroke-width:2.5;" x="118.478092" xlink:href="#m79dd6927ea" y="441"/>
      </g>
     </g>
     <g id="text_1">
      <!-- 0 -->
      <g style="fill:#262626;" transform="translate(111.479342 473.216563)scale(0.22 -0.22)">
       <defs>
        <path d="M 31.78125 66.40625 
Q 24.171875 66.40625 20.328125 58.90625 
Q 16.5 51.421875 16.5 36.375 
Q 16.5 21.390625 20.328125 13.890625 
Q 24.171875 6.390625 31.78125 6.390625 
Q 39.453125 6.390625 43.28125 13.890625 
Q 47.125 21.390625 47.125 36.375 
Q 47.125 51.421875 43.28125 58.90625 
Q 39.453125 66.40625 31.78125 66.40625 
z
M 31.78125 74.21875 
Q 44.046875 74.21875 50.515625 64.515625 
Q 56.984375 54.828125 56.984375 36.375 
Q 56.984375 17.96875 50.515625 8.265625 
Q 44.046875 -1.421875 31.78125 -1.421875 
Q 19.53125 -1.421875 13.0625 8.265625 
Q 6.59375 17.96875 6.59375 36.375 
Q 6.59375 54.828125 13.0625 64.515625 
Q 19.53125 74.21875 31.78125 74.21875 
z
" id="DejaVuSans-48"/>
       </defs>
       <use xlink:href="#DejaVuSans-48"/>
      </g>
     </g>
    </g>
    <g id="xtick_2">
     <g id="line2d_2">
      <g>
       <use style="fill:#262626;stroke:#262626;stroke-width:2.5;" x="218.269449" xlink:href="#m79dd6927ea" y="441"/>
      </g>
     </g>
     <g id="text_2">
      <!-- 10 -->
      <g style="fill:#262626;" transform="translate(204.271949 473.216563)scale(0.22 -0.22)">
       <defs>
        <path d="M 12.40625 8.296875 
L 28.515625 8.296875 
L 28.515625 63.921875 
L 10.984375 60.40625 
L 10.984375 69.390625 
L 28.421875 72.90625 
L 38.28125 72.90625 
L 38.28125 8.296875 
L 54.390625 8.296875 
L 54.390625 0 
L 12.40625 0 
z
" id="DejaVuSans-49"/>
       </defs>
       <use xlink:href="#DejaVuSans-49"/>
       <use x="63.623047" xlink:href="#DejaVuSans-48"/>
      </g>
     </g>
    </g>
    <g id="xtick_3">
     <g id="line2d_3">
      <g>
       <use style="fill:#262626;stroke:#262626;stroke-width:2.5;" x="318.060805" xlink:href="#m79dd6927ea" y="441"/>
      </g>
     </g>
     <g id="text_3">
      <!-- 20 -->
      <g style="fill:#262626;" transform="translate(304.063305 473.216563)scale(0.22 -0.22)">
       <defs>
        <path d="M 19.1875 8.296875 
L 53.609375 8.296875 
L 53.609375 0 
L 7.328125 0 
L 7.328125 8.296875 
Q 12.9375 14.109375 22.625 23.890625 
Q 32.328125 33.6875 34.8125 36.53125 
Q 39.546875 41.84375 41.421875 45.53125 
Q 43.3125 49.21875 43.3125 52.78125 
Q 43.3125 58.59375 39.234375 62.25 
Q 35.15625 65.921875 28.609375 65.921875 
Q 23.96875 65.921875 18.8125 64.3125 
Q 13.671875 62.703125 7.8125 59.421875 
L 7.8125 69.390625 
Q 13.765625 71.78125 18.9375 73 
Q 24.125 74.21875 28.421875 74.21875 
Q 39.75 74.21875 46.484375 68.546875 
Q 53.21875 62.890625 53.21875 53.421875 
Q 53.21875 48.921875 51.53125 44.890625 
Q 49.859375 40.875 45.40625 35.40625 
Q 44.1875 33.984375 37.640625 27.21875 
Q 31.109375 20.453125 19.1875 8.296875 
z
" id="DejaVuSans-50"/>
       </defs>
       <use xlink:href="#DejaVuSans-50"/>
       <use x="63.623047" xlink:href="#DejaVuSans-48"/>
      </g>
     </g>
    </g>
    <g id="xtick_4">
     <g id="line2d_4">
      <g>
       <use style="fill:#262626;stroke:#262626;stroke-width:2.5;" x="417.852161" xlink:href="#m79dd6927ea" y="441"/>
      </g>
     </g>
     <g id="text_4">
      <!-- 30 -->
      <g style="fill:#262626;" transform="translate(403.854661 473.216563)scale(0.22 -0.22)">
       <defs>
        <path d="M 40.578125 39.3125 
Q 47.65625 37.796875 51.625 33 
Q 55.609375 28.21875 55.609375 21.1875 
Q 55.609375 10.40625 48.1875 4.484375 
Q 40.765625 -1.421875 27.09375 -1.421875 
Q 22.515625 -1.421875 17.65625 -0.515625 
Q 12.796875 0.390625 7.625 2.203125 
L 7.625 11.71875 
Q 11.71875 9.328125 16.59375 8.109375 
Q 21.484375 6.890625 26.8125 6.890625 
Q 36.078125 6.890625 40.9375 10.546875 
Q 45.796875 14.203125 45.796875 21.1875 
Q 45.796875 27.640625 41.28125 31.265625 
Q 36.765625 34.90625 28.71875 34.90625 
L 20.21875 34.90625 
L 20.21875 43.015625 
L 29.109375 43.015625 
Q 36.375 43.015625 40.234375 45.921875 
Q 44.09375 48.828125 44.09375 54.296875 
Q 44.09375 59.90625 40.109375 62.90625 
Q 36.140625 65.921875 28.71875 65.921875 
Q 24.65625 65.921875 20.015625 65.03125 
Q 15.375 64.15625 9.8125 62.3125 
L 9.8125 71.09375 
Q 15.4375 72.65625 20.34375 73.4375 
Q 25.25 74.21875 29.59375 74.21875 
Q 40.828125 74.21875 47.359375 69.109375 
Q 53.90625 64.015625 53.90625 55.328125 
Q 53.90625 49.265625 50.4375 45.09375 
Q 46.96875 40.921875 40.578125 39.3125 
z
" id="DejaVuSans-51"/>
       </defs>
       <use xlink:href="#DejaVuSans-51"/>
       <use x="63.623047" xlink:href="#DejaVuSans-48"/>
      </g>
     </g>
    </g>
    <g id="xtick_5">
     <g id="line2d_5">
      <g>
       <use style="fill:#262626;stroke:#262626;stroke-width:2.5;" x="517.643517" xlink:href="#m79dd6927ea" y="441"/>
      </g>
     </g>
     <g id="text_5">
      <!-- 40 -->
      <g style="fill:#262626;" transform="translate(503.646017 473.216563)scale(0.22 -0.22)">
       <defs>
        <path d="M 37.796875 64.3125 
L 12.890625 25.390625 
L 37.796875 25.390625 
z
M 35.203125 72.90625 
L 47.609375 72.90625 
L 47.609375 25.390625 
L 58.015625 25.390625 
L 58.015625 17.1875 
L 47.609375 17.1875 
L 47.609375 0 
L 37.796875 0 
L 37.796875 17.1875 
L 4.890625 17.1875 
L 4.890625 26.703125 
z
" id="DejaVuSans-52"/>
       </defs>
       <use xlink:href="#DejaVuSans-52"/>
       <use x="63.623047" xlink:href="#DejaVuSans-48"/>
      </g>
     </g>
    </g>
    <g id="xtick_6">
     <g id="line2d_6">
      <g>
       <use style="fill:#262626;stroke:#262626;stroke-width:2.5;" x="617.434873" xlink:href="#m79dd6927ea" y="441"/>
      </g>
     </g>
     <g id="text_6">
      <!-- 50 -->
      <g style="fill:#262626;" transform="translate(603.437373 473.216563)scale(0.22 -0.22)">
       <defs>
        <path d="M 10.796875 72.90625 
L 49.515625 72.90625 
L 49.515625 64.59375 
L 19.828125 64.59375 
L 19.828125 46.734375 
Q 21.96875 47.46875 24.109375 47.828125 
Q 26.265625 48.1875 28.421875 48.1875 
Q 40.625 48.1875 47.75 41.5 
Q 54.890625 34.8125 54.890625 23.390625 
Q 54.890625 11.625 47.5625 5.09375 
Q 40.234375 -1.421875 26.90625 -1.421875 
Q 22.3125 -1.421875 17.546875 -0.640625 
Q 12.796875 0.140625 7.71875 1.703125 
L 7.71875 11.625 
Q 12.109375 9.234375 16.796875 8.0625 
Q 21.484375 6.890625 26.703125 6.890625 
Q 35.15625 6.890625 40.078125 11.328125 
Q 45.015625 15.765625 45.015625 23.390625 
Q 45.015625 31 40.078125 35.4375 
Q 35.15625 39.890625 26.703125 39.890625 
Q 22.75 39.890625 18.8125 39.015625 
Q 14.890625 38.140625 10.796875 36.28125 
z
" id="DejaVuSans-53"/>
       </defs>
       <use xlink:href="#DejaVuSans-53"/>
       <use x="63.623047" xlink:href="#DejaVuSans-48"/>
      </g>
     </g>
    </g>
    <g id="xtick_7">
     <g id="line2d_7">
      <g>
       <use style="fill:#262626;stroke:#262626;stroke-width:2.5;" x="717.22623" xlink:href="#m79dd6927ea" y="441"/>
      </g>
     </g>
     <g id="text_7">
      <!-- 60 -->
      <g style="fill:#262626;" transform="translate(703.22873 473.216563)scale(0.22 -0.22)">
       <defs>
        <path d="M 33.015625 40.375 
Q 26.375 40.375 22.484375 35.828125 
Q 18.609375 31.296875 18.609375 23.390625 
Q 18.609375 15.53125 22.484375 10.953125 
Q 26.375 6.390625 33.015625 6.390625 
Q 39.65625 6.390625 43.53125 10.953125 
Q 47.40625 15.53125 47.40625 23.390625 
Q 47.40625 31.296875 43.53125 35.828125 
Q 39.65625 40.375 33.015625 40.375 
z
M 52.59375 71.296875 
L 52.59375 62.3125 
Q 48.875 64.0625 45.09375 64.984375 
Q 41.3125 65.921875 37.59375 65.921875 
Q 27.828125 65.921875 22.671875 59.328125 
Q 17.53125 52.734375 16.796875 39.40625 
Q 19.671875 43.65625 24.015625 45.921875 
Q 28.375 48.1875 33.59375 48.1875 
Q 44.578125 48.1875 50.953125 41.515625 
Q 57.328125 34.859375 57.328125 23.390625 
Q 57.328125 12.15625 50.6875 5.359375 
Q 44.046875 -1.421875 33.015625 -1.421875 
Q 20.359375 -1.421875 13.671875 8.265625 
Q 6.984375 17.96875 6.984375 36.375 
Q 6.984375 53.65625 15.1875 63.9375 
Q 23.390625 74.21875 37.203125 74.21875 
Q 40.921875 74.21875 44.703125 73.484375 
Q 48.484375 72.75 52.59375 71.296875 
z
" id="DejaVuSans-54"/>
       </defs>
       <use xlink:href="#DejaVuSans-54"/>
       <use x="63.623047" xlink:href="#DejaVuSans-48"/>
      </g>
     </g>
    </g>
    <g id="text_8">
     <!-- M -->
     <g style="fill:#262626;" transform="translate(432.44625 500.028125)scale(0.24 -0.24)">
      <defs>
       <path d="M 9.8125 72.90625 
L 24.515625 72.90625 
L 43.109375 23.296875 
L 61.8125 72.90625 
L 76.515625 72.90625 
L 76.515625 0 
L 66.890625 0 
L 66.890625 64.015625 
L 48.09375 14.015625 
L 38.1875 14.015625 
L 19.390625 64.015625 
L 19.390625 0 
L 9.8125 0 
z
" id="DejaVuSans-77"/>
      </defs>
      <use xlink:href="#DejaVuSans-77"/>
     </g>
    </g>
   </g>
   <g id="matplotlib.axis_2">
    <g id="ytick_1">
     <g id="line2d_8">
      <defs>
       <path d="M 0 0 
L -12 0 
" id="mb325bba83f" style="stroke:#262626;stroke-width:2.5;"/>
      </defs>
      <g>
       <use style="fill:#262626;stroke:#262626;stroke-width:2.5;" x="108" xlink:href="#mb325bba83f" y="435.045514"/>
      </g>
     </g>
     <g id="text_9">
      <!-- 0.0 -->
      <g style="fill:#262626;" transform="translate(57.513125 443.403795)scale(0.22 -0.22)">
       <defs>
        <path d="M 10.6875 12.40625 
L 21 12.40625 
L 21 0 
L 10.6875 0 
z
" id="DejaVuSans-46"/>
       </defs>
       <use xlink:href="#DejaVuSans-48"/>
       <use x="63.623047" xlink:href="#DejaVuSans-46"/>
       <use x="95.410156" xlink:href="#DejaVuSans-48"/>
      </g>
     </g>
    </g>
    <g id="ytick_2">
     <g id="line2d_9">
      <g>
       <use style="fill:#262626;stroke:#262626;stroke-width:2.5;" x="108" xlink:href="#mb325bba83f" y="362.457496"/>
      </g>
     </g>
     <g id="text_10">
      <!-- 0.2 -->
      <g style="fill:#262626;" transform="translate(57.513125 370.815778)scale(0.22 -0.22)">
       <use xlink:href="#DejaVuSans-48"/>
       <use x="63.623047" xlink:href="#DejaVuSans-46"/>
       <use x="95.410156" xlink:href="#DejaVuSans-50"/>
      </g>
     </g>
    </g>
    <g id="ytick_3">
     <g id="line2d_10">
      <g>
       <use style="fill:#262626;stroke:#262626;stroke-width:2.5;" x="108" xlink:href="#mb325bba83f" y="289.869478"/>
      </g>
     </g>
     <g id="text_11">
      <!-- 0.4 -->
      <g style="fill:#262626;" transform="translate(57.513125 298.22776)scale(0.22 -0.22)">
       <use xlink:href="#DejaVuSans-48"/>
       <use x="63.623047" xlink:href="#DejaVuSans-46"/>
       <use x="95.410156" xlink:href="#DejaVuSans-52"/>
      </g>
     </g>
    </g>
    <g id="ytick_4">
     <g id="line2d_11">
      <g>
       <use style="fill:#262626;stroke:#262626;stroke-width:2.5;" x="108" xlink:href="#mb325bba83f" y="217.281461"/>
      </g>
     </g>
     <g id="text_12">
      <!-- 0.6 -->
      <g style="fill:#262626;" transform="translate(57.513125 225.639742)scale(0.22 -0.22)">
       <use xlink:href="#DejaVuSans-48"/>
       <use x="63.623047" xlink:href="#DejaVuSans-46"/>
       <use x="95.410156" xlink:href="#DejaVuSans-54"/>
      </g>
     </g>
    </g>
    <g id="ytick_5">
     <g id="line2d_12">
      <g>
       <use style="fill:#262626;stroke:#262626;stroke-width:2.5;" x="108" xlink:href="#mb325bba83f" y="144.693443"/>
      </g>
     </g>
     <g id="text_13">
      <!-- 0.8 -->
      <g style="fill:#262626;" transform="translate(57.513125 153.051724)scale(0.22 -0.22)">
       <defs>
        <path d="M 31.78125 34.625 
Q 24.75 34.625 20.71875 30.859375 
Q 16.703125 27.09375 16.703125 20.515625 
Q 16.703125 13.921875 20.71875 10.15625 
Q 24.75 6.390625 31.78125 6.390625 
Q 38.8125 6.390625 42.859375 10.171875 
Q 46.921875 13.96875 46.921875 20.515625 
Q 46.921875 27.09375 42.890625 30.859375 
Q 38.875 34.625 31.78125 34.625 
z
M 21.921875 38.8125 
Q 15.578125 40.375 12.03125 44.71875 
Q 8.5 49.078125 8.5 55.328125 
Q 8.5 64.0625 14.71875 69.140625 
Q 20.953125 74.21875 31.78125 74.21875 
Q 42.671875 74.21875 48.875 69.140625 
Q 55.078125 64.0625 55.078125 55.328125 
Q 55.078125 49.078125 51.53125 44.71875 
Q 48 40.375 41.703125 38.8125 
Q 48.828125 37.15625 52.796875 32.3125 
Q 56.78125 27.484375 56.78125 20.515625 
Q 56.78125 9.90625 50.3125 4.234375 
Q 43.84375 -1.421875 31.78125 -1.421875 
Q 19.734375 -1.421875 13.25 4.234375 
Q 6.78125 9.90625 6.78125 20.515625 
Q 6.78125 27.484375 10.78125 32.3125 
Q 14.796875 37.15625 21.921875 38.8125 
z
M 18.3125 54.390625 
Q 18.3125 48.734375 21.84375 45.5625 
Q 25.390625 42.390625 31.78125 42.390625 
Q 38.140625 42.390625 41.71875 45.5625 
Q 45.3125 48.734375 45.3125 54.390625 
Q 45.3125 60.0625 41.71875 63.234375 
Q 38.140625 66.40625 31.78125 66.40625 
Q 25.390625 66.40625 21.84375 63.234375 
Q 18.3125 60.0625 18.3125 54.390625 
z
" id="DejaVuSans-56"/>
       </defs>
       <use xlink:href="#DejaVuSans-48"/>
       <use x="63.623047" xlink:href="#DejaVuSans-46"/>
       <use x="95.410156" xlink:href="#DejaVuSans-56"/>
      </g>
     </g>
    </g>
    <g id="ytick_6">
     <g id="line2d_13">
      <g>
       <use style="fill:#262626;stroke:#262626;stroke-width:2.5;" x="108" xlink:href="#mb325bba83f" y="72.105425"/>
      </g>
     </g>
     <g id="text_14">
      <!-- 1.0 -->
      <g style="fill:#262626;" transform="translate(57.513125 80.463706)scale(0.22 -0.22)">
       <use xlink:href="#DejaVuSans-49"/>
       <use x="63.623047" xlink:href="#DejaVuSans-46"/>
       <use x="95.410156" xlink:href="#DejaVuSans-48"/>
      </g>
     </g>
    </g>
    <g id="text_15">
     <!-- Average probability of sucess -->
     <g style="fill:#262626;" transform="translate(48.521875 427.389375)rotate(-90)scale(0.24 -0.24)">
      <defs>
       <path d="M 34.1875 63.1875 
L 20.796875 26.90625 
L 47.609375 26.90625 
z
M 28.609375 72.90625 
L 39.796875 72.90625 
L 67.578125 0 
L 57.328125 0 
L 50.6875 18.703125 
L 17.828125 18.703125 
L 11.1875 0 
L 0.78125 0 
z
" id="DejaVuSans-65"/>
       <path d="M 2.984375 54.6875 
L 12.5 54.6875 
L 29.59375 8.796875 
L 46.6875 54.6875 
L 56.203125 54.6875 
L 35.6875 0 
L 23.484375 0 
z
" id="DejaVuSans-118"/>
       <path d="M 56.203125 29.59375 
L 56.203125 25.203125 
L 14.890625 25.203125 
Q 15.484375 15.921875 20.484375 11.0625 
Q 25.484375 6.203125 34.421875 6.203125 
Q 39.59375 6.203125 44.453125 7.46875 
Q 49.3125 8.734375 54.109375 11.28125 
L 54.109375 2.78125 
Q 49.265625 0.734375 44.1875 -0.34375 
Q 39.109375 -1.421875 33.890625 -1.421875 
Q 20.796875 -1.421875 13.15625 6.1875 
Q 5.515625 13.8125 5.515625 26.8125 
Q 5.515625 40.234375 12.765625 48.109375 
Q 20.015625 56 32.328125 56 
Q 43.359375 56 49.78125 48.890625 
Q 56.203125 41.796875 56.203125 29.59375 
z
M 47.21875 32.234375 
Q 47.125 39.59375 43.09375 43.984375 
Q 39.0625 48.390625 32.421875 48.390625 
Q 24.90625 48.390625 20.390625 44.140625 
Q 15.875 39.890625 15.1875 32.171875 
z
" id="DejaVuSans-101"/>
       <path d="M 41.109375 46.296875 
Q 39.59375 47.171875 37.8125 47.578125 
Q 36.03125 48 33.890625 48 
Q 26.265625 48 22.1875 43.046875 
Q 18.109375 38.09375 18.109375 28.8125 
L 18.109375 0 
L 9.078125 0 
L 9.078125 54.6875 
L 18.109375 54.6875 
L 18.109375 46.1875 
Q 20.953125 51.171875 25.484375 53.578125 
Q 30.03125 56 36.53125 56 
Q 37.453125 56 38.578125 55.875 
Q 39.703125 55.765625 41.0625 55.515625 
z
" id="DejaVuSans-114"/>
       <path d="M 34.28125 27.484375 
Q 23.390625 27.484375 19.1875 25 
Q 14.984375 22.515625 14.984375 16.5 
Q 14.984375 11.71875 18.140625 8.90625 
Q 21.296875 6.109375 26.703125 6.109375 
Q 34.1875 6.109375 38.703125 11.40625 
Q 43.21875 16.703125 43.21875 25.484375 
L 43.21875 27.484375 
z
M 52.203125 31.203125 
L 52.203125 0 
L 43.21875 0 
L 43.21875 8.296875 
Q 40.140625 3.328125 35.546875 0.953125 
Q 30.953125 -1.421875 24.3125 -1.421875 
Q 15.921875 -1.421875 10.953125 3.296875 
Q 6 8.015625 6 15.921875 
Q 6 25.140625 12.171875 29.828125 
Q 18.359375 34.515625 30.609375 34.515625 
L 43.21875 34.515625 
L 43.21875 35.40625 
Q 43.21875 41.609375 39.140625 45 
Q 35.0625 48.390625 27.6875 48.390625 
Q 23 48.390625 18.546875 47.265625 
Q 14.109375 46.140625 10.015625 43.890625 
L 10.015625 52.203125 
Q 14.9375 54.109375 19.578125 55.046875 
Q 24.21875 56 28.609375 56 
Q 40.484375 56 46.34375 49.84375 
Q 52.203125 43.703125 52.203125 31.203125 
z
" id="DejaVuSans-97"/>
       <path d="M 45.40625 27.984375 
Q 45.40625 37.75 41.375 43.109375 
Q 37.359375 48.484375 30.078125 48.484375 
Q 22.859375 48.484375 18.828125 43.109375 
Q 14.796875 37.75 14.796875 27.984375 
Q 14.796875 18.265625 18.828125 12.890625 
Q 22.859375 7.515625 30.078125 7.515625 
Q 37.359375 7.515625 41.375 12.890625 
Q 45.40625 18.265625 45.40625 27.984375 
z
M 54.390625 6.78125 
Q 54.390625 -7.171875 48.1875 -13.984375 
Q 42 -20.796875 29.203125 -20.796875 
Q 24.46875 -20.796875 20.265625 -20.09375 
Q 16.0625 -19.390625 12.109375 -17.921875 
L 12.109375 -9.1875 
Q 16.0625 -11.328125 19.921875 -12.34375 
Q 23.78125 -13.375 27.78125 -13.375 
Q 36.625 -13.375 41.015625 -8.765625 
Q 45.40625 -4.15625 45.40625 5.171875 
L 45.40625 9.625 
Q 42.625 4.78125 38.28125 2.390625 
Q 33.9375 0 27.875 0 
Q 17.828125 0 11.671875 7.65625 
Q 5.515625 15.328125 5.515625 27.984375 
Q 5.515625 40.671875 11.671875 48.328125 
Q 17.828125 56 27.875 56 
Q 33.9375 56 38.28125 53.609375 
Q 42.625 51.21875 45.40625 46.390625 
L 45.40625 54.6875 
L 54.390625 54.6875 
z
" id="DejaVuSans-103"/>
       <path id="DejaVuSans-32"/>
       <path d="M 18.109375 8.203125 
L 18.109375 -20.796875 
L 9.078125 -20.796875 
L 9.078125 54.6875 
L 18.109375 54.6875 
L 18.109375 46.390625 
Q 20.953125 51.265625 25.265625 53.625 
Q 29.59375 56 35.59375 56 
Q 45.5625 56 51.78125 48.09375 
Q 58.015625 40.1875 58.015625 27.296875 
Q 58.015625 14.40625 51.78125 6.484375 
Q 45.5625 -1.421875 35.59375 -1.421875 
Q 29.59375 -1.421875 25.265625 0.953125 
Q 20.953125 3.328125 18.109375 8.203125 
z
M 48.6875 27.296875 
Q 48.6875 37.203125 44.609375 42.84375 
Q 40.53125 48.484375 33.40625 48.484375 
Q 26.265625 48.484375 22.1875 42.84375 
Q 18.109375 37.203125 18.109375 27.296875 
Q 18.109375 17.390625 22.1875 11.75 
Q 26.265625 6.109375 33.40625 6.109375 
Q 40.53125 6.109375 44.609375 11.75 
Q 48.6875 17.390625 48.6875 27.296875 
z
" id="DejaVuSans-112"/>
       <path d="M 30.609375 48.390625 
Q 23.390625 48.390625 19.1875 42.75 
Q 14.984375 37.109375 14.984375 27.296875 
Q 14.984375 17.484375 19.15625 11.84375 
Q 23.34375 6.203125 30.609375 6.203125 
Q 37.796875 6.203125 41.984375 11.859375 
Q 46.1875 17.53125 46.1875 27.296875 
Q 46.1875 37.015625 41.984375 42.703125 
Q 37.796875 48.390625 30.609375 48.390625 
z
M 30.609375 56 
Q 42.328125 56 49.015625 48.375 
Q 55.71875 40.765625 55.71875 27.296875 
Q 55.71875 13.875 49.015625 6.21875 
Q 42.328125 -1.421875 30.609375 -1.421875 
Q 18.84375 -1.421875 12.171875 6.21875 
Q 5.515625 13.875 5.515625 27.296875 
Q 5.515625 40.765625 12.171875 48.375 
Q 18.84375 56 30.609375 56 
z
" id="DejaVuSans-111"/>
       <path d="M 48.6875 27.296875 
Q 48.6875 37.203125 44.609375 42.84375 
Q 40.53125 48.484375 33.40625 48.484375 
Q 26.265625 48.484375 22.1875 42.84375 
Q 18.109375 37.203125 18.109375 27.296875 
Q 18.109375 17.390625 22.1875 11.75 
Q 26.265625 6.109375 33.40625 6.109375 
Q 40.53125 6.109375 44.609375 11.75 
Q 48.6875 17.390625 48.6875 27.296875 
z
M 18.109375 46.390625 
Q 20.953125 51.265625 25.265625 53.625 
Q 29.59375 56 35.59375 56 
Q 45.5625 56 51.78125 48.09375 
Q 58.015625 40.1875 58.015625 27.296875 
Q 58.015625 14.40625 51.78125 6.484375 
Q 45.5625 -1.421875 35.59375 -1.421875 
Q 29.59375 -1.421875 25.265625 0.953125 
Q 20.953125 3.328125 18.109375 8.203125 
L 18.109375 0 
L 9.078125 0 
L 9.078125 75.984375 
L 18.109375 75.984375 
z
" id="DejaVuSans-98"/>
       <path d="M 9.421875 54.6875 
L 18.40625 54.6875 
L 18.40625 0 
L 9.421875 0 
z
M 9.421875 75.984375 
L 18.40625 75.984375 
L 18.40625 64.59375 
L 9.421875 64.59375 
z
" id="DejaVuSans-105"/>
       <path d="M 9.421875 75.984375 
L 18.40625 75.984375 
L 18.40625 0 
L 9.421875 0 
z
" id="DejaVuSans-108"/>
       <path d="M 18.3125 70.21875 
L 18.3125 54.6875 
L 36.8125 54.6875 
L 36.8125 47.703125 
L 18.3125 47.703125 
L 18.3125 18.015625 
Q 18.3125 11.328125 20.140625 9.421875 
Q 21.96875 7.515625 27.59375 7.515625 
L 36.8125 7.515625 
L 36.8125 0 
L 27.59375 0 
Q 17.1875 0 13.234375 3.875 
Q 9.28125 7.765625 9.28125 18.015625 
L 9.28125 47.703125 
L 2.6875 47.703125 
L 2.6875 54.6875 
L 9.28125 54.6875 
L 9.28125 70.21875 
z
" id="DejaVuSans-116"/>
       <path d="M 32.171875 -5.078125 
Q 28.375 -14.84375 24.75 -17.8125 
Q 21.140625 -20.796875 15.09375 -20.796875 
L 7.90625 -20.796875 
L 7.90625 -13.28125 
L 13.1875 -13.28125 
Q 16.890625 -13.28125 18.9375 -11.515625 
Q 21 -9.765625 23.484375 -3.21875 
L 25.09375 0.875 
L 2.984375 54.6875 
L 12.5 54.6875 
L 29.59375 11.921875 
L 46.6875 54.6875 
L 56.203125 54.6875 
z
" id="DejaVuSans-121"/>
       <path d="M 37.109375 75.984375 
L 37.109375 68.5 
L 28.515625 68.5 
Q 23.6875 68.5 21.796875 66.546875 
Q 19.921875 64.59375 19.921875 59.515625 
L 19.921875 54.6875 
L 34.71875 54.6875 
L 34.71875 47.703125 
L 19.921875 47.703125 
L 19.921875 0 
L 10.890625 0 
L 10.890625 47.703125 
L 2.296875 47.703125 
L 2.296875 54.6875 
L 10.890625 54.6875 
L 10.890625 58.5 
Q 10.890625 67.625 15.140625 71.796875 
Q 19.390625 75.984375 28.609375 75.984375 
z
" id="DejaVuSans-102"/>
       <path d="M 44.28125 53.078125 
L 44.28125 44.578125 
Q 40.484375 46.53125 36.375 47.5 
Q 32.28125 48.484375 27.875 48.484375 
Q 21.1875 48.484375 17.84375 46.4375 
Q 14.5 44.390625 14.5 40.28125 
Q 14.5 37.15625 16.890625 35.375 
Q 19.28125 33.59375 26.515625 31.984375 
L 29.59375 31.296875 
Q 39.15625 29.25 43.1875 25.515625 
Q 47.21875 21.78125 47.21875 15.09375 
Q 47.21875 7.46875 41.1875 3.015625 
Q 35.15625 -1.421875 24.609375 -1.421875 
Q 20.21875 -1.421875 15.453125 -0.5625 
Q 10.6875 0.296875 5.421875 2 
L 5.421875 11.28125 
Q 10.40625 8.6875 15.234375 7.390625 
Q 20.0625 6.109375 24.8125 6.109375 
Q 31.15625 6.109375 34.5625 8.28125 
Q 37.984375 10.453125 37.984375 14.40625 
Q 37.984375 18.0625 35.515625 20.015625 
Q 33.0625 21.96875 24.703125 23.78125 
L 21.578125 24.515625 
Q 13.234375 26.265625 9.515625 29.90625 
Q 5.8125 33.546875 5.8125 39.890625 
Q 5.8125 47.609375 11.28125 51.796875 
Q 16.75 56 26.8125 56 
Q 31.78125 56 36.171875 55.265625 
Q 40.578125 54.546875 44.28125 53.078125 
z
" id="DejaVuSans-115"/>
       <path d="M 8.5 21.578125 
L 8.5 54.6875 
L 17.484375 54.6875 
L 17.484375 21.921875 
Q 17.484375 14.15625 20.5 10.265625 
Q 23.53125 6.390625 29.59375 6.390625 
Q 36.859375 6.390625 41.078125 11.03125 
Q 45.3125 15.671875 45.3125 23.6875 
L 45.3125 54.6875 
L 54.296875 54.6875 
L 54.296875 0 
L 45.3125 0 
L 45.3125 8.40625 
Q 42.046875 3.421875 37.71875 1 
Q 33.40625 -1.421875 27.6875 -1.421875 
Q 18.265625 -1.421875 13.375 4.4375 
Q 8.5 10.296875 8.5 21.578125 
z
M 31.109375 56 
z
" id="DejaVuSans-117"/>
       <path d="M 48.78125 52.59375 
L 48.78125 44.1875 
Q 44.96875 46.296875 41.140625 47.34375 
Q 37.3125 48.390625 33.40625 48.390625 
Q 24.65625 48.390625 19.8125 42.84375 
Q 14.984375 37.3125 14.984375 27.296875 
Q 14.984375 17.28125 19.8125 11.734375 
Q 24.65625 6.203125 33.40625 6.203125 
Q 37.3125 6.203125 41.140625 7.25 
Q 44.96875 8.296875 48.78125 10.40625 
L 48.78125 2.09375 
Q 45.015625 0.34375 40.984375 -0.53125 
Q 36.96875 -1.421875 32.421875 -1.421875 
Q 20.0625 -1.421875 12.78125 6.34375 
Q 5.515625 14.109375 5.515625 27.296875 
Q 5.515625 40.671875 12.859375 48.328125 
Q 20.21875 56 33.015625 56 
Q 37.15625 56 41.109375 55.140625 
Q 45.0625 54.296875 48.78125 52.59375 
z
" id="DejaVuSans-99"/>
      </defs>
      <use xlink:href="#DejaVuSans-65"/>
      <use x="62.533203" xlink:href="#DejaVuSans-118"/>
      <use x="121.712891" xlink:href="#DejaVuSans-101"/>
      <use x="183.236328" xlink:href="#DejaVuSans-114"/>
      <use x="224.349609" xlink:href="#DejaVuSans-97"/>
      <use x="285.628906" xlink:href="#DejaVuSans-103"/>
      <use x="349.105469" xlink:href="#DejaVuSans-101"/>
      <use x="410.628906" xlink:href="#DejaVuSans-32"/>
      <use x="442.416016" xlink:href="#DejaVuSans-112"/>
      <use x="505.892578" xlink:href="#DejaVuSans-114"/>
      <use x="544.755859" xlink:href="#DejaVuSans-111"/>
      <use x="605.9375" xlink:href="#DejaVuSans-98"/>
      <use x="669.414062" xlink:href="#DejaVuSans-97"/>
      <use x="730.693359" xlink:href="#DejaVuSans-98"/>
      <use x="794.169922" xlink:href="#DejaVuSans-105"/>
      <use x="821.953125" xlink:href="#DejaVuSans-108"/>
      <use x="849.736328" xlink:href="#DejaVuSans-105"/>
      <use x="877.519531" xlink:href="#DejaVuSans-116"/>
      <use x="916.728516" xlink:href="#DejaVuSans-121"/>
      <use x="975.908203" xlink:href="#DejaVuSans-32"/>
      <use x="1007.695312" xlink:href="#DejaVuSans-111"/>
      <use x="1068.876953" xlink:href="#DejaVuSans-102"/>
      <use x="1104.082031" xlink:href="#DejaVuSans-32"/>
      <use x="1135.869141" xlink:href="#DejaVuSans-115"/>
      <use x="1187.96875" xlink:href="#DejaVuSans-117"/>
      <use x="1251.347656" xlink:href="#DejaVuSans-99"/>
      <use x="1306.328125" xlink:href="#DejaVuSans-101"/>
      <use x="1367.851562" xlink:href="#DejaVuSans-115"/>
      <use x="1419.951172" xlink:href="#DejaVuSans-115"/>
     </g>
    </g>
   </g>
   <g id="line2d_14">
    <defs>
     <path d="M 0 3 
C 0.795609 3 1.55874 2.683901 2.12132 2.12132 
C 2.683901 1.55874 3 0.795609 3 0 
C 3 -0.795609 2.683901 -1.55874 2.12132 -2.12132 
C 1.55874 -2.683901 0.795609 -3 0 -3 
C -0.795609 -3 -1.55874 -2.683901 -2.12132 -2.12132 
C -2.683901 -1.55874 -3 -0.795609 -3 0 
C -3 0.795609 -2.683901 1.55874 -2.12132 2.12132 
C -1.55874 2.683901 -0.795609 3 0 3 
z
" id="m6e77b8b25c" style="stroke:#4c72b0;"/>
    </defs>
    <g clip-path="url(#p13037f64e0)">
     <use style="fill:#4c72b0;stroke:#4c72b0;" x="138.436364" xlink:href="#m6e77b8b25c" y="332.109068"/>
     <use style="fill:#4c72b0;stroke:#4c72b0;" x="148.415499" xlink:href="#m6e77b8b25c" y="322.230381"/>
     <use style="fill:#4c72b0;stroke:#4c72b0;" x="158.394635" xlink:href="#m6e77b8b25c" y="321.913695"/>
     <use style="fill:#4c72b0;stroke:#4c72b0;" x="168.37377" xlink:href="#m6e77b8b25c" y="326.546276"/>
     <use style="fill:#4c72b0;stroke:#4c72b0;" x="178.352906" xlink:href="#m6e77b8b25c" y="332.344146"/>
     <use style="fill:#4c72b0;stroke:#4c72b0;" x="188.332042" xlink:href="#m6e77b8b25c" y="335.966636"/>
     <use style="fill:#4c72b0;stroke:#4c72b0;" x="198.311177" xlink:href="#m6e77b8b25c" y="339.445003"/>
     <use style="fill:#4c72b0;stroke:#4c72b0;" x="208.290313" xlink:href="#m6e77b8b25c" y="339.631303"/>
     <use style="fill:#4c72b0;stroke:#4c72b0;" x="218.269449" xlink:href="#m6e77b8b25c" y="341.122671"/>
     <use style="fill:#4c72b0;stroke:#4c72b0;" x="228.248584" xlink:href="#m6e77b8b25c" y="341.849083"/>
     <use style="fill:#4c72b0;stroke:#4c72b0;" x="238.22772" xlink:href="#m6e77b8b25c" y="339.308281"/>
     <use style="fill:#4c72b0;stroke:#4c72b0;" x="248.206855" xlink:href="#m6e77b8b25c" y="337.271217"/>
     <use style="fill:#4c72b0;stroke:#4c72b0;" x="258.185991" xlink:href="#m6e77b8b25c" y="334.715485"/>
     <use style="fill:#4c72b0;stroke:#4c72b0;" x="268.165127" xlink:href="#m6e77b8b25c" y="332.813859"/>
     <use style="fill:#4c72b0;stroke:#4c72b0;" x="278.144262" xlink:href="#m6e77b8b25c" y="330.198803"/>
     <use style="fill:#4c72b0;stroke:#4c72b0;" x="288.123398" xlink:href="#m6e77b8b25c" y="326.810816"/>
     <use style="fill:#4c72b0;stroke:#4c72b0;" x="298.102534" xlink:href="#m6e77b8b25c" y="322.807886"/>
     <use style="fill:#4c72b0;stroke:#4c72b0;" x="308.081669" xlink:href="#m6e77b8b25c" y="320.308996"/>
     <use style="fill:#4c72b0;stroke:#4c72b0;" x="318.060805" xlink:href="#m6e77b8b25c" y="316.860046"/>
     <use style="fill:#4c72b0;stroke:#4c72b0;" x="328.03994" xlink:href="#m6e77b8b25c" y="313.74196"/>
     <use style="fill:#4c72b0;stroke:#4c72b0;" x="338.019076" xlink:href="#m6e77b8b25c" y="309.422344"/>
     <use style="fill:#4c72b0;stroke:#4c72b0;" x="347.998212" xlink:href="#m6e77b8b25c" y="304.634743"/>
     <use style="fill:#4c72b0;stroke:#4c72b0;" x="357.977347" xlink:href="#m6e77b8b25c" y="299.401662"/>
     <use style="fill:#4c72b0;stroke:#4c72b0;" x="367.956483" xlink:href="#m6e77b8b25c" y="294.475743"/>
     <use style="fill:#4c72b0;stroke:#4c72b0;" x="377.935618" xlink:href="#m6e77b8b25c" y="290.052721"/>
     <use style="fill:#4c72b0;stroke:#4c72b0;" x="387.914754" xlink:href="#m6e77b8b25c" y="284.233806"/>
     <use style="fill:#4c72b0;stroke:#4c72b0;" x="397.89389" xlink:href="#m6e77b8b25c" y="278.691083"/>
     <use style="fill:#4c72b0;stroke:#4c72b0;" x="407.873025" xlink:href="#m6e77b8b25c" y="272.3496"/>
     <use style="fill:#4c72b0;stroke:#4c72b0;" x="417.852161" xlink:href="#m6e77b8b25c" y="266.357721"/>
     <use style="fill:#4c72b0;stroke:#4c72b0;" x="427.831297" xlink:href="#m6e77b8b25c" y="259.06928"/>
     <use style="fill:#4c72b0;stroke:#4c72b0;" x="437.810432" xlink:href="#m6e77b8b25c" y="253.094281"/>
     <use style="fill:#4c72b0;stroke:#4c72b0;" x="447.789568" xlink:href="#m6e77b8b25c" y="247.548147"/>
     <use style="fill:#4c72b0;stroke:#4c72b0;" x="457.768703" xlink:href="#m6e77b8b25c" y="239.829778"/>
     <use style="fill:#4c72b0;stroke:#4c72b0;" x="467.747839" xlink:href="#m6e77b8b25c" y="235.621587"/>
     <use style="fill:#4c72b0;stroke:#4c72b0;" x="477.726975" xlink:href="#m6e77b8b25c" y="229.334377"/>
     <use style="fill:#4c72b0;stroke:#4c72b0;" x="487.70611" xlink:href="#m6e77b8b25c" y="222.904462"/>
     <use style="fill:#4c72b0;stroke:#4c72b0;" x="497.685246" xlink:href="#m6e77b8b25c" y="216.766867"/>
     <use style="fill:#4c72b0;stroke:#4c72b0;" x="507.664382" xlink:href="#m6e77b8b25c" y="211.491653"/>
     <use style="fill:#4c72b0;stroke:#4c72b0;" x="517.643517" xlink:href="#m6e77b8b25c" y="206.874003"/>
     <use style="fill:#4c72b0;stroke:#4c72b0;" x="527.622653" xlink:href="#m6e77b8b25c" y="202.060439"/>
     <use style="fill:#4c72b0;stroke:#4c72b0;" x="537.601788" xlink:href="#m6e77b8b25c" y="197.38413"/>
     <use style="fill:#4c72b0;stroke:#4c72b0;" x="547.580924" xlink:href="#m6e77b8b25c" y="194.008636"/>
     <use style="fill:#4c72b0;stroke:#4c72b0;" x="557.56006" xlink:href="#m6e77b8b25c" y="189.944345"/>
     <use style="fill:#4c72b0;stroke:#4c72b0;" x="567.539195" xlink:href="#m6e77b8b25c" y="187.046584"/>
     <use style="fill:#4c72b0;stroke:#4c72b0;" x="577.518331" xlink:href="#m6e77b8b25c" y="183.465519"/>
     <use style="fill:#4c72b0;stroke:#4c72b0;" x="587.497466" xlink:href="#m6e77b8b25c" y="180.544941"/>
     <use style="fill:#4c72b0;stroke:#4c72b0;" x="597.476602" xlink:href="#m6e77b8b25c" y="176.932154"/>
     <use style="fill:#4c72b0;stroke:#4c72b0;" x="607.455738" xlink:href="#m6e77b8b25c" y="175.133315"/>
     <use style="fill:#4c72b0;stroke:#4c72b0;" x="617.434873" xlink:href="#m6e77b8b25c" y="173.240063"/>
     <use style="fill:#4c72b0;stroke:#4c72b0;" x="627.414009" xlink:href="#m6e77b8b25c" y="169.634188"/>
     <use style="fill:#4c72b0;stroke:#4c72b0;" x="637.393145" xlink:href="#m6e77b8b25c" y="166.86544"/>
     <use style="fill:#4c72b0;stroke:#4c72b0;" x="647.37228" xlink:href="#m6e77b8b25c" y="167.107208"/>
     <use style="fill:#4c72b0;stroke:#4c72b0;" x="657.351416" xlink:href="#m6e77b8b25c" y="165.581061"/>
     <use style="fill:#4c72b0;stroke:#4c72b0;" x="667.330551" xlink:href="#m6e77b8b25c" y="165.490016"/>
     <use style="fill:#4c72b0;stroke:#4c72b0;" x="677.309687" xlink:href="#m6e77b8b25c" y="166.124009"/>
     <use style="fill:#4c72b0;stroke:#4c72b0;" x="687.288823" xlink:href="#m6e77b8b25c" y="169.670561"/>
     <use style="fill:#4c72b0;stroke:#4c72b0;" x="697.267958" xlink:href="#m6e77b8b25c" y="175.982316"/>
     <use style="fill:#4c72b0;stroke:#4c72b0;" x="707.247094" xlink:href="#m6e77b8b25c" y="180.312433"/>
     <use style="fill:#4c72b0;stroke:#4c72b0;" x="717.22623" xlink:href="#m6e77b8b25c" y="185.081072"/>
     <use style="fill:#4c72b0;stroke:#4c72b0;" x="727.205365" xlink:href="#m6e77b8b25c" y="184.784455"/>
     <use style="fill:#4c72b0;stroke:#4c72b0;" x="737.184501" xlink:href="#m6e77b8b25c" y="174.308326"/>
     <use style="fill:#4c72b0;stroke:#4c72b0;" x="747.163636" xlink:href="#m6e77b8b25c" y="141.574426"/>
    </g>
   </g>
   <g id="line2d_15">
    <path clip-path="url(#p13037f64e0)" d="M 138.436364 423.703636 
L 148.415499 418.032697 
L 158.394635 412.361759 
L 168.37377 406.69082 
L 178.352906 401.019881 
L 188.332042 395.348942 
L 198.311177 389.678003 
L 208.290313 384.007064 
L 218.269449 378.336125 
L 228.248584 372.665186 
L 238.22772 366.994247 
L 248.206855 361.323308 
L 258.185991 355.65237 
L 268.165127 349.981431 
L 278.144262 344.310492 
L 288.123398 338.639553 
L 298.102534 332.968614 
L 308.081669 327.297675 
L 318.060805 321.626736 
L 328.03994 315.955797 
L 338.019076 310.284858 
L 347.998212 304.61392 
L 357.977347 298.942981 
L 367.956483 293.272042 
L 377.935618 287.601103 
L 387.914754 281.930164 
L 397.89389 276.259225 
L 407.873025 270.588286 
L 417.852161 264.917347 
L 427.831297 259.246408 
L 437.810432 253.575469 
L 447.789568 247.904531 
L 457.768703 242.233592 
L 467.747839 236.562653 
L 477.726975 230.891714 
L 487.70611 225.220775 
L 497.685246 219.549836 
L 507.664382 213.878897 
L 517.643517 208.207958 
L 527.622653 202.537019 
L 537.601788 196.86608 
L 547.580924 191.195142 
L 557.56006 185.524203 
L 567.539195 179.853264 
L 577.518331 174.182325 
L 587.497466 168.511386 
L 597.476602 162.840447 
L 607.455738 157.169508 
L 617.434873 151.498569 
L 627.414009 145.82763 
L 637.393145 140.156692 
L 647.37228 134.485753 
L 657.351416 128.814814 
L 667.330551 123.143875 
L 677.309687 117.472936 
L 687.288823 111.801997 
L 697.267958 106.131058 
L 707.247094 100.460119 
L 717.22623 94.78918 
L 727.205365 89.118241 
L 737.184501 83.447303 
L 747.163636 77.776364 
" style="fill:none;stroke:#dd8452;stroke-linecap:round;stroke-width:3;"/>
   </g>
   <g id="line2d_16">
    <path clip-path="url(#p13037f64e0)" d="M 138.436364 366.086897 
L 148.415499 366.086897 
L 158.394635 366.086897 
L 168.37377 366.086897 
L 178.352906 366.086897 
L 188.332042 366.086897 
L 198.311177 366.086897 
L 208.290313 366.086897 
L 218.269449 366.086897 
L 228.248584 366.086897 
L 238.22772 366.086897 
L 248.206855 366.086897 
L 258.185991 366.086897 
L 268.165127 366.086897 
L 278.144262 366.086897 
L 288.123398 366.086897 
L 298.102534 366.086897 
L 308.081669 366.086897 
L 318.060805 366.086897 
L 328.03994 366.086897 
L 338.019076 366.086897 
L 347.998212 366.086897 
L 357.977347 366.086897 
L 367.956483 366.086897 
L 377.935618 366.086897 
L 387.914754 366.086897 
L 397.89389 366.086897 
L 407.873025 366.086897 
L 417.852161 366.086897 
L 427.831297 366.086897 
L 437.810432 366.086897 
L 447.789568 366.086897 
L 457.768703 366.086897 
L 467.747839 366.086897 
L 477.726975 366.086897 
L 487.70611 366.086897 
L 497.685246 366.086897 
L 507.664382 366.086897 
L 517.643517 366.086897 
L 527.622653 366.086897 
L 537.601788 366.086897 
L 547.580924 366.086897 
L 557.56006 366.086897 
L 567.539195 366.086897 
L 577.518331 366.086897 
L 587.497466 366.086897 
L 597.476602 366.086897 
L 607.455738 366.086897 
L 617.434873 366.086897 
L 627.414009 366.086897 
L 637.393145 366.086897 
L 647.37228 366.086897 
L 657.351416 366.086897 
L 667.330551 366.086897 
L 677.309687 366.086897 
L 687.288823 366.086897 
L 697.267958 366.086897 
L 707.247094 366.086897 
L 717.22623 366.086897 
L 727.205365 366.086897 
L 737.184501 366.086897 
L 747.163636 366.086897 
" style="fill:none;stroke:#55a868;stroke-dasharray:11.1,4.8;stroke-dashoffset:0;stroke-width:3;"/>
   </g>
   <g id="patch_3">
    <path d="M 108 441 
L 108 60.48 
" style="fill:none;stroke:#262626;stroke-linecap:square;stroke-linejoin:miter;stroke-width:2.5;"/>
   </g>
   <g id="patch_4">
    <path d="M 777.6 441 
L 777.6 60.48 
" style="fill:none;stroke:#262626;stroke-linecap:square;stroke-linejoin:miter;stroke-width:2.5;"/>
   </g>
   <g id="patch_5">
    <path d="M 108 441 
L 777.6 441 
" style="fill:none;stroke:#262626;stroke-linecap:square;stroke-linejoin:miter;stroke-width:2.5;"/>
   </g>
   <g id="patch_6">
    <path d="M 108 60.48 
L 777.6 60.48 
" style="fill:none;stroke:#262626;stroke-linecap:square;stroke-linejoin:miter;stroke-width:2.5;"/>
   </g>
   <g id="legend_1">
    <g id="patch_7">
     <path d="M 123.4 174.955625 
L 268.108438 174.955625 
Q 272.508438 174.955625 272.508438 170.555625 
L 272.508438 75.88 
Q 272.508438 71.48 268.108438 71.48 
L 123.4 71.48 
Q 119 71.48 119 75.88 
L 119 170.555625 
Q 119 174.955625 123.4 174.955625 
z
" style="fill:#ffffff;opacity:0.8;stroke:#cccccc;stroke-linejoin:miter;stroke-width:2;"/>
    </g>
    <g id="line2d_17"/>
    <g id="line2d_18">
     <g>
      <use style="fill:#4c72b0;stroke:#4c72b0;" x="149.8" xlink:href="#m6e77b8b25c" y="89.296563"/>
     </g>
    </g>
    <g id="text_16">
     <!-- N=64 -->
     <g style="fill:#262626;" transform="translate(189.4 96.996563)scale(0.22 -0.22)">
      <defs>
       <path d="M 9.8125 72.90625 
L 23.09375 72.90625 
L 55.421875 11.921875 
L 55.421875 72.90625 
L 64.984375 72.90625 
L 64.984375 0 
L 51.703125 0 
L 19.390625 60.984375 
L 19.390625 0 
L 9.8125 0 
z
" id="DejaVuSans-78"/>
       <path d="M 10.59375 45.40625 
L 73.1875 45.40625 
L 73.1875 37.203125 
L 10.59375 37.203125 
z
M 10.59375 25.484375 
L 73.1875 25.484375 
L 73.1875 17.1875 
L 10.59375 17.1875 
z
" id="DejaVuSans-61"/>
      </defs>
      <use xlink:href="#DejaVuSans-78"/>
      <use x="74.804688" xlink:href="#DejaVuSans-61"/>
      <use x="158.59375" xlink:href="#DejaVuSans-54"/>
      <use x="222.216797" xlink:href="#DejaVuSans-52"/>
     </g>
    </g>
    <g id="line2d_19">
     <path d="M 127.8 121.588438 
L 171.8 121.588438 
" style="fill:none;stroke:#dd8452;stroke-linecap:round;stroke-width:3;"/>
    </g>
    <g id="line2d_20"/>
    <g id="text_17">
     <!-- y=M/N -->
     <g style="fill:#262626;" transform="translate(189.4 129.288438)scale(0.22 -0.22)">
      <defs>
       <path d="M 25.390625 72.90625 
L 33.6875 72.90625 
L 8.296875 -9.28125 
L 0 -9.28125 
z
" id="DejaVuSans-47"/>
      </defs>
      <use xlink:href="#DejaVuSans-121"/>
      <use x="59.179688" xlink:href="#DejaVuSans-61"/>
      <use x="142.96875" xlink:href="#DejaVuSans-77"/>
      <use x="229.248047" xlink:href="#DejaVuSans-47"/>
      <use x="262.939453" xlink:href="#DejaVuSans-78"/>
     </g>
    </g>
    <g id="line2d_21">
     <path d="M 127.8 153.880313 
L 171.8 153.880313 
" style="fill:none;stroke:#55a868;stroke-dasharray:11.1,4.8;stroke-dashoffset:0;stroke-width:3;"/>
    </g>
    <g id="line2d_22"/>
    <g id="text_18">
     <!-- M=1 -->
     <g style="fill:#262626;" transform="translate(189.4 161.580313)scale(0.22 -0.22)">
      <use xlink:href="#DejaVuSans-77"/>
      <use x="86.279297" xlink:href="#DejaVuSans-61"/>
      <use x="170.068359" xlink:href="#DejaVuSans-49"/>
     </g>
    </g>
   </g>
  </g>
 </g>
 <defs>
  <clipPath id="p13037f64e0">
   <rect height="380.52" width="669.6" x="108" y="60.48"/>
  </clipPath>
 </defs>
</svg>
